%TF.GenerationSoftware,KiCad,Pcbnew,9.0.6*%
%TF.CreationDate,2025-12-17T16:52:13-05:00*%
%TF.ProjectId,HMS,484d532e-6b69-4636-9164-5f7063625858,rev?*%
%TF.SameCoordinates,Original*%
%TF.FileFunction,Copper,L2,Bot*%
%TF.FilePolarity,Positive*%
%FSLAX46Y46*%
G04 Gerber Fmt 4.6, Leading zero omitted, Abs format (unit mm)*
G04 Created by KiCad (PCBNEW 9.0.6) date 2025-12-17 16:52:13*
%MOMM*%
%LPD*%
G01*
G04 APERTURE LIST*
G04 Aperture macros list*
%AMRoundRect*
0 Rectangle with rounded corners*
0 $1 Rounding radius*
0 $2 $3 $4 $5 $6 $7 $8 $9 X,Y pos of 4 corners*
0 Add a 4 corners polygon primitive as box body*
4,1,4,$2,$3,$4,$5,$6,$7,$8,$9,$2,$3,0*
0 Add four circle primitives for the rounded corners*
1,1,$1+$1,$2,$3*
1,1,$1+$1,$4,$5*
1,1,$1+$1,$6,$7*
1,1,$1+$1,$8,$9*
0 Add four rect primitives between the rounded corners*
20,1,$1+$1,$2,$3,$4,$5,0*
20,1,$1+$1,$4,$5,$6,$7,0*
20,1,$1+$1,$6,$7,$8,$9,0*
20,1,$1+$1,$8,$9,$2,$3,0*%
G04 Aperture macros list end*
%TA.AperFunction,ComponentPad*%
%ADD10R,1.800000X1.800000*%
%TD*%
%TA.AperFunction,ComponentPad*%
%ADD11C,1.800000*%
%TD*%
%TA.AperFunction,ComponentPad*%
%ADD12R,1.700000X1.700000*%
%TD*%
%TA.AperFunction,ComponentPad*%
%ADD13C,1.700000*%
%TD*%
%TA.AperFunction,ComponentPad*%
%ADD14RoundRect,0.250000X0.550000X-0.550000X0.550000X0.550000X-0.550000X0.550000X-0.550000X-0.550000X0*%
%TD*%
%TA.AperFunction,ComponentPad*%
%ADD15C,1.600000*%
%TD*%
%TA.AperFunction,ComponentPad*%
%ADD16RoundRect,0.760000X-1.140000X1.140000X-1.140000X-1.140000X1.140000X-1.140000X1.140000X1.140000X0*%
%TD*%
%TA.AperFunction,ComponentPad*%
%ADD17C,4.000000*%
%TD*%
%TA.AperFunction,SMDPad,CuDef*%
%ADD18RoundRect,0.250000X0.350000X0.450000X-0.350000X0.450000X-0.350000X-0.450000X0.350000X-0.450000X0*%
%TD*%
%TA.AperFunction,SMDPad,CuDef*%
%ADD19R,0.850000X1.450000*%
%TD*%
%TA.AperFunction,SMDPad,CuDef*%
%ADD20R,0.850000X1.050000*%
%TD*%
%TA.AperFunction,SMDPad,CuDef*%
%ADD21R,4.700000X3.750000*%
%TD*%
%TA.AperFunction,SMDPad,CuDef*%
%ADD22R,1.000000X1.000000*%
%TD*%
%TA.AperFunction,SMDPad,CuDef*%
%ADD23RoundRect,0.250000X-0.350000X-0.450000X0.350000X-0.450000X0.350000X0.450000X-0.350000X0.450000X0*%
%TD*%
%TA.AperFunction,SMDPad,CuDef*%
%ADD24R,0.508000X0.977900*%
%TD*%
%TA.AperFunction,SMDPad,CuDef*%
%ADD25RoundRect,0.250000X-0.337500X-0.475000X0.337500X-0.475000X0.337500X0.475000X-0.337500X0.475000X0*%
%TD*%
%TA.AperFunction,SMDPad,CuDef*%
%ADD26RoundRect,0.250000X0.337500X0.475000X-0.337500X0.475000X-0.337500X-0.475000X0.337500X-0.475000X0*%
%TD*%
%TA.AperFunction,SMDPad,CuDef*%
%ADD27R,0.558800X1.320800*%
%TD*%
%TA.AperFunction,SMDPad,CuDef*%
%ADD28R,0.500000X0.500000*%
%TD*%
%TA.AperFunction,SMDPad,CuDef*%
%ADD29RoundRect,0.250000X-0.475000X0.337500X-0.475000X-0.337500X0.475000X-0.337500X0.475000X0.337500X0*%
%TD*%
%TA.AperFunction,ViaPad*%
%ADD30C,0.762000*%
%TD*%
%TA.AperFunction,Conductor*%
%ADD31C,0.203200*%
%TD*%
%TA.AperFunction,Conductor*%
%ADD32C,1.500000*%
%TD*%
%TA.AperFunction,Conductor*%
%ADD33C,4.000000*%
%TD*%
%TA.AperFunction,Conductor*%
%ADD34C,1.000000*%
%TD*%
G04 APERTURE END LIST*
D10*
%TO.P,D2,1,K*%
%TO.N,GNDREF*%
X167716200Y-116636800D03*
D11*
%TO.P,D2,2,A*%
%TO.N,Net-(D2-A)*%
X165176200Y-116636800D03*
%TD*%
D12*
%TO.P,J3,1,Pin_1*%
%TO.N,/MotorDriver/DTR*%
X33650000Y-127550000D03*
D13*
%TO.P,J3,2,Pin_2*%
%TO.N,/MotorDriver/Rx*%
X31110000Y-127550000D03*
%TO.P,J3,3,Pin_3*%
%TO.N,/MotorDriver/Tx*%
X28570000Y-127550000D03*
%TO.P,J3,4,Pin_4*%
%TO.N,/BuckRegulator/3V3*%
X26030000Y-127550000D03*
%TO.P,J3,5,Pin_5*%
%TO.N,GNDREF*%
X23490000Y-127550000D03*
%TD*%
D10*
%TO.P,D1,1,K*%
%TO.N,GNDREF*%
X167970200Y-86080600D03*
D11*
%TO.P,D1,2,A*%
%TO.N,Net-(D1-A)*%
X165430200Y-86080600D03*
%TD*%
D12*
%TO.P,J4,1,Pin_1*%
%TO.N,/Microcontorller/Rx*%
X129845200Y-171922600D03*
D13*
%TO.P,J4,2,Pin_2*%
%TO.N,/Microcontorller/Tx*%
X129845200Y-169382600D03*
%TO.P,J4,3,Pin_3*%
%TO.N,/BuckRegulator/3V3*%
X129845200Y-166842600D03*
%TO.P,J4,4,Pin_4*%
%TO.N,GNDREF*%
X129845200Y-164302600D03*
%TD*%
D14*
%TO.P,C12,1*%
%TO.N,/BuckRegulator/Battery*%
X58100000Y-164850000D03*
D15*
%TO.P,C12,2*%
%TO.N,GNDREF*%
X58100000Y-161350000D03*
%TD*%
D16*
%TO.P,J2,1,Pin_1*%
%TO.N,GNDREF*%
X48900000Y-160500000D03*
D17*
%TO.P,J2,2,Pin_2*%
%TO.N,/BuckRegulator/Battery*%
X48900000Y-165500000D03*
%TD*%
D18*
%TO.P,R32,1*%
%TO.N,/MotorDriver/GLA*%
X42395000Y-151791400D03*
%TO.P,R32,2*%
%TO.N,Net-(Q4-G)*%
X40395000Y-151791400D03*
%TD*%
%TO.P,R22,1*%
%TO.N,/MotorDriver/SensingC*%
X23645000Y-151791400D03*
%TO.P,R22,2*%
%TO.N,GNDREF*%
X21645000Y-151791400D03*
%TD*%
D19*
%TO.P,Q5,1,S_1*%
%TO.N,/MotorDriver/PHASEB*%
X30230000Y-167553900D03*
%TO.P,Q5,2,S_2*%
X31500000Y-167553900D03*
%TO.P,Q5,3,S_3*%
X32770000Y-167553900D03*
%TO.P,Q5,4,G*%
%TO.N,Net-(Q5-G)*%
X34040000Y-167553900D03*
D20*
%TO.P,Q5,5,D_1*%
%TO.N,/BuckRegulator/Battery*%
X34040000Y-173253900D03*
%TO.P,Q5,6,D_2*%
X32770000Y-173253900D03*
%TO.P,Q5,7,D_3*%
X31500000Y-173253900D03*
%TO.P,Q5,8,D_4*%
X30230000Y-173253900D03*
D21*
%TO.P,Q5,9,D_5*%
X32135000Y-170853900D03*
%TD*%
D22*
%TO.P,TP3,1,1*%
%TO.N,/MotorDriver/PHASEC*%
X23050000Y-164266400D03*
%TD*%
D23*
%TO.P,R4,1*%
%TO.N,/BuckRegulator/3V3*%
X162452201Y-49212401D03*
%TO.P,R4,2*%
%TO.N,/Distance/SCL*%
X164452201Y-49212401D03*
%TD*%
D18*
%TO.P,R2,1*%
%TO.N,/Distance/2V8*%
X165722201Y-42100401D03*
%TO.P,R2,2*%
%TO.N,/Distance/SCL_2.8 V*%
X163722201Y-42100401D03*
%TD*%
D24*
%TO.P,U2,1,IN*%
%TO.N,/BuckRegulator/3V3*%
X160413601Y-29971901D03*
%TO.P,U2,2,GND*%
%TO.N,GNDREF*%
X161363602Y-29971901D03*
%TO.P,U2,3,EN*%
%TO.N,/BuckRegulator/3V3*%
X162313603Y-29971901D03*
%TO.P,U2,4,BYP*%
%TO.N,unconnected-(U2-BYP-Pad4)*%
X162313603Y-32702401D03*
%TO.P,U2,5,OUT*%
%TO.N,/Distance/2V8*%
X160413601Y-32702401D03*
%TD*%
D23*
%TO.P,R31,1*%
%TO.N,/MotorDriver/GHA*%
X39400000Y-164241400D03*
%TO.P,R31,2*%
%TO.N,Net-(Q3-G)*%
X41400000Y-164241400D03*
%TD*%
D25*
%TO.P,C2,1*%
%TO.N,/Distance/2V8*%
X162521801Y-34734401D03*
%TO.P,C2,2*%
%TO.N,GNDREF*%
X164596801Y-34734401D03*
%TD*%
D18*
%TO.P,R29,1*%
%TO.N,/MotorDriver/SensingA*%
X38670000Y-151791400D03*
%TO.P,R29,2*%
%TO.N,GNDREF*%
X36670000Y-151791400D03*
%TD*%
D22*
%TO.P,TP2,1,1*%
%TO.N,/MotorDriver/PHASEB*%
X30210000Y-164241400D03*
%TD*%
D23*
%TO.P,R18,1*%
%TO.N,/MotorDriver/GHC*%
X25250000Y-164291400D03*
%TO.P,R18,2*%
%TO.N,Net-(Q7-G)*%
X27250000Y-164291400D03*
%TD*%
%TO.P,R1,1*%
%TO.N,/Distance/2V8*%
X157016601Y-42100401D03*
%TO.P,R1,2*%
%TO.N,/Distance/SDA_2.8 V*%
X159016601Y-42100401D03*
%TD*%
D18*
%TO.P,R26,1*%
%TO.N,/MotorDriver/SensingB*%
X31195000Y-151766400D03*
%TO.P,R26,2*%
%TO.N,GNDREF*%
X29195000Y-151766400D03*
%TD*%
D19*
%TO.P,Q6,1,S_1*%
%TO.N,GNDREF*%
X30205000Y-155941400D03*
%TO.P,Q6,2,S_2*%
X31475000Y-155941400D03*
%TO.P,Q6,3,S_3*%
X32745000Y-155941400D03*
%TO.P,Q6,4,G*%
%TO.N,Net-(Q6-G)*%
X34015000Y-155941400D03*
D20*
%TO.P,Q6,5,D_1*%
%TO.N,/MotorDriver/PHASEB*%
X34015000Y-161641400D03*
%TO.P,Q6,6,D_2*%
X32745000Y-161641400D03*
%TO.P,Q6,7,D_3*%
X31475000Y-161641400D03*
%TO.P,Q6,8,D_4*%
X30205000Y-161641400D03*
D21*
%TO.P,Q6,9,D_5*%
X32110000Y-159241400D03*
%TD*%
D18*
%TO.P,R19,1*%
%TO.N,/MotorDriver/GLC*%
X27420000Y-151791400D03*
%TO.P,R19,2*%
%TO.N,Net-(Q8-G)*%
X25420000Y-151791400D03*
%TD*%
D26*
%TO.P,C16,1*%
%TO.N,/Distance/2V8*%
X160413601Y-34759801D03*
%TO.P,C16,2*%
%TO.N,GNDREF*%
X158338601Y-34759801D03*
%TD*%
D23*
%TO.P,R12,1*%
%TO.N,/MotorDriver/GHB*%
X32400000Y-164216400D03*
%TO.P,R12,2*%
%TO.N,Net-(Q5-G)*%
X34400000Y-164216400D03*
%TD*%
D19*
%TO.P,Q8,1,S_1*%
%TO.N,GNDREF*%
X23080000Y-155991400D03*
%TO.P,Q8,2,S_2*%
X24350000Y-155991400D03*
%TO.P,Q8,3,S_3*%
X25620000Y-155991400D03*
%TO.P,Q8,4,G*%
%TO.N,Net-(Q8-G)*%
X26890000Y-155991400D03*
D20*
%TO.P,Q8,5,D_1*%
%TO.N,/MotorDriver/PHASEC*%
X26890000Y-161691400D03*
%TO.P,Q8,6,D_2*%
X25620000Y-161691400D03*
%TO.P,Q8,7,D_3*%
X24350000Y-161691400D03*
%TO.P,Q8,8,D_4*%
X23080000Y-161691400D03*
D21*
%TO.P,Q8,9,D_5*%
X24985000Y-159291400D03*
%TD*%
D18*
%TO.P,R3,1*%
%TO.N,/BuckRegulator/3V3*%
X160413601Y-49161601D03*
%TO.P,R3,2*%
%TO.N,/Distance/SDA*%
X158413601Y-49161601D03*
%TD*%
D19*
%TO.P,Q3,1,S_1*%
%TO.N,/MotorDriver/PHASEA*%
X37280000Y-167541400D03*
%TO.P,Q3,2,S_2*%
X38550000Y-167541400D03*
%TO.P,Q3,3,S_3*%
X39820000Y-167541400D03*
%TO.P,Q3,4,G*%
%TO.N,Net-(Q3-G)*%
X41090000Y-167541400D03*
D20*
%TO.P,Q3,5,D_1*%
%TO.N,/BuckRegulator/Battery*%
X41090000Y-173241400D03*
%TO.P,Q3,6,D_2*%
X39820000Y-173241400D03*
%TO.P,Q3,7,D_3*%
X38550000Y-173241400D03*
%TO.P,Q3,8,D_4*%
X37280000Y-173241400D03*
D21*
%TO.P,Q3,9,D_5*%
X39185000Y-170841400D03*
%TD*%
D27*
%TO.P,Q1,1,G*%
%TO.N,/Distance/2V8*%
X157400000Y-45250000D03*
%TO.P,Q1,2,S*%
%TO.N,/Distance/SDA_2.8 V*%
X159305000Y-45250000D03*
%TO.P,Q1,3,D*%
%TO.N,/Distance/SDA*%
X158352500Y-47282000D03*
%TD*%
D28*
%TO.P,U1,1,AVDDVCSEL*%
%TO.N,/Distance/2V8*%
X160578800Y-37046002D03*
%TO.P,U1,2,AVSSVCSEL*%
%TO.N,GNDREF*%
X160578800Y-37846000D03*
%TO.P,U1,3,GND*%
X160578800Y-38646001D03*
%TO.P,U1,4,GND2*%
X160578800Y-39446002D03*
%TO.P,U1,5,XSHUT*%
%TO.N,unconnected-(U1-XSHUT-Pad5)*%
X160578800Y-40246000D03*
%TO.P,U1,6,GND3*%
%TO.N,GNDREF*%
X161378801Y-40246000D03*
%TO.P,U1,7,GPIO1*%
%TO.N,unconnected-(U1-GPIO1-Pad7)*%
X162178802Y-40246000D03*
%TO.P,U1,8,DNC*%
%TO.N,unconnected-(U1-DNC-Pad8)*%
X162178802Y-39446002D03*
%TO.P,U1,9,SDA*%
%TO.N,/Distance/SDA_2.8 V*%
X162178802Y-38646001D03*
%TO.P,U1,10,SCL*%
%TO.N,/Distance/SCL_2.8 V*%
X162178802Y-37846000D03*
%TO.P,U1,11,AVDD*%
%TO.N,/Distance/2V8*%
X162178802Y-37046002D03*
%TO.P,U1,12,GND4*%
%TO.N,GNDREF*%
X161378801Y-37046002D03*
%TD*%
D29*
%TO.P,C1,1*%
%TO.N,/Distance/2V8*%
X158813401Y-37020401D03*
%TO.P,C1,2*%
%TO.N,GNDREF*%
X158813401Y-39095401D03*
%TD*%
%TO.P,C15,1*%
%TO.N,/Distance/2V8*%
X163893401Y-36995001D03*
%TO.P,C15,2*%
%TO.N,GNDREF*%
X163893401Y-39070001D03*
%TD*%
D19*
%TO.P,Q7,1,S_1*%
%TO.N,/MotorDriver/PHASEC*%
X23160000Y-167591400D03*
%TO.P,Q7,2,S_2*%
X24430000Y-167591400D03*
%TO.P,Q7,3,S_3*%
X25700000Y-167591400D03*
%TO.P,Q7,4,G*%
%TO.N,Net-(Q7-G)*%
X26970000Y-167591400D03*
D20*
%TO.P,Q7,5,D_1*%
%TO.N,/BuckRegulator/Battery*%
X26970000Y-173291400D03*
%TO.P,Q7,6,D_2*%
X25700000Y-173291400D03*
%TO.P,Q7,7,D_3*%
X24430000Y-173291400D03*
%TO.P,Q7,8,D_4*%
X23160000Y-173291400D03*
D21*
%TO.P,Q7,9,D_5*%
X25065000Y-170891400D03*
%TD*%
D27*
%TO.P,Q2,1,G*%
%TO.N,/Distance/2V8*%
X163597500Y-45268000D03*
%TO.P,Q2,2,S*%
%TO.N,/Distance/SCL_2.8 V*%
X165502500Y-45268000D03*
%TO.P,Q2,3,D*%
%TO.N,/Distance/SCL*%
X164550000Y-47300000D03*
%TD*%
D19*
%TO.P,Q4,1,S_1*%
%TO.N,GNDREF*%
X37280000Y-155950000D03*
%TO.P,Q4,2,S_2*%
X38550000Y-155950000D03*
%TO.P,Q4,3,S_3*%
X39820000Y-155950000D03*
%TO.P,Q4,4,G*%
%TO.N,Net-(Q4-G)*%
X41090000Y-155950000D03*
D20*
%TO.P,Q4,5,D_1*%
%TO.N,/MotorDriver/PHASEA*%
X41090000Y-161650000D03*
%TO.P,Q4,6,D_2*%
X39820000Y-161650000D03*
%TO.P,Q4,7,D_3*%
X38550000Y-161650000D03*
%TO.P,Q4,8,D_4*%
X37280000Y-161650000D03*
D21*
%TO.P,Q4,9,D_5*%
X39185000Y-159250000D03*
%TD*%
D22*
%TO.P,TP1,1,1*%
%TO.N,/MotorDriver/PHASEA*%
X37287200Y-164236400D03*
%TD*%
D18*
%TO.P,R17,1*%
%TO.N,/MotorDriver/GLB*%
X34945000Y-151791400D03*
%TO.P,R17,2*%
%TO.N,Net-(Q6-G)*%
X32945000Y-151791400D03*
%TD*%
D25*
%TO.P,C3,1*%
%TO.N,/BuckRegulator/3V3*%
X160599201Y-28105001D03*
%TO.P,C3,2*%
%TO.N,GNDREF*%
X162674201Y-28105001D03*
%TD*%
D30*
%TO.N,/Distance/2V8*%
X160413601Y-32702401D03*
%TO.N,/Distance/SDA_2.8 V*%
X159016601Y-42100401D03*
%TO.N,/Distance/SCL_2.8 V*%
X165459401Y-45268000D03*
%TO.N,/BuckRegulator/Battery*%
X69375000Y-167350000D03*
%TO.N,/MotorDriver/PHASEA*%
X39660000Y-160350000D03*
%TO.N,/MotorDriver/PHASEB*%
X32535000Y-160016400D03*
%TO.N,/MotorDriver/PHASEC*%
X25435000Y-160016400D03*
%TO.N,GNDREF*%
X156650000Y-166600000D03*
X40550000Y-140150000D03*
X158813401Y-39095401D03*
X140700000Y-166500000D03*
X168895400Y-73100000D03*
X155200000Y-164149000D03*
X159050000Y-164150000D03*
X163850000Y-40600000D03*
X35700000Y-167900000D03*
X160700000Y-143450000D03*
X37800000Y-135350000D03*
X28864200Y-154350000D03*
X30500000Y-142035800D03*
X154000000Y-164150000D03*
X156450000Y-163050000D03*
X156500000Y-161750000D03*
X94850000Y-172450000D03*
X140650000Y-170650000D03*
X156562600Y-164200000D03*
X156562600Y-165450000D03*
X28864200Y-152514200D03*
X66000000Y-167350000D03*
X40550000Y-149300000D03*
X21250000Y-149550000D03*
X155850000Y-39150000D03*
X167650000Y-128150000D03*
X164300000Y-173200000D03*
X157850000Y-164149000D03*
X70600000Y-167400000D03*
X167550000Y-132350000D03*
X30700000Y-143800000D03*
X43300000Y-166750000D03*
X28550000Y-167950000D03*
X22400000Y-131400000D03*
X35300000Y-143000000D03*
X160800000Y-149800000D03*
X166800000Y-40600000D03*
X155750000Y-147700000D03*
%TO.N,/Microcontorller/Tx*%
X160472600Y-174399000D03*
X138592148Y-173864201D03*
%TO.N,/Microcontorller/Rx*%
X142050000Y-174550000D03*
X159202600Y-174399000D03*
%TO.N,/Buttons/Land*%
X171000000Y-141268000D03*
X154122600Y-156899000D03*
%TO.N,/LED/RED LED*%
X170256200Y-119314200D03*
X163350000Y-158806800D03*
%TO.N,/LED/GREEN LED*%
X170256200Y-124322618D03*
X164339996Y-158806800D03*
%TO.N,/Microcontorller/PWM*%
X36626991Y-147576991D03*
X145450000Y-158700000D03*
%TO.N,/Microcontorller/~{RESET}*%
X161742600Y-156899000D03*
X162820600Y-148056600D03*
%TO.N,/Buttons/Hover*%
X155392600Y-156899000D03*
X171000000Y-125080800D03*
%TO.N,/MotorDriver/GLC*%
X27420000Y-151791400D03*
%TO.N,/MotorDriver/BH*%
X33638169Y-146510086D03*
X29550000Y-150435800D03*
%TO.N,/MotorDriver/CH*%
X34587139Y-146333814D03*
X22500000Y-150550000D03*
%TO.N,/MotorDriver/CL*%
X29540800Y-139180000D03*
X28050000Y-149864200D03*
%TO.N,/MotorDriver/GLA*%
X42395000Y-151791400D03*
%TO.N,/MotorDriver/AH*%
X37965921Y-150581043D03*
X32799999Y-148460987D03*
%TO.N,/MotorDriver/GHB*%
X32400000Y-164216400D03*
%TO.N,/MotorDriver/BL*%
X34150000Y-140550000D03*
X36650000Y-150064200D03*
%TO.N,/MotorDriver/GHA*%
X39400000Y-164241400D03*
%TO.N,/MotorDriver/GLB*%
X34945000Y-151791400D03*
%TO.N,/MotorDriver/GHC*%
X25413342Y-164093473D03*
%TO.N,/MotorDriver/AL*%
X43450000Y-141350000D03*
X35100000Y-141350000D03*
%TO.N,/MotorDriver/~{RESET}*%
X32568800Y-135367200D03*
X31999999Y-138239013D03*
%TO.N,/MotorDriver/Tx*%
X30400001Y-138239013D03*
%TO.N,/MotorDriver/Rx*%
X31199999Y-137698999D03*
%TO.N,/MotorDriver/SensingC*%
X23645000Y-151791400D03*
%TO.N,/MotorDriver/COMMON*%
X38400000Y-153485800D03*
X27650000Y-148491600D03*
X24733200Y-153250000D03*
X26750000Y-149864200D03*
X31400000Y-153200000D03*
%TO.N,/MotorDriver/SensingB*%
X31195000Y-151766400D03*
%TO.N,/MotorDriver/SensingA*%
X38670000Y-151791400D03*
%TO.N,/BuckRegulator/3V3*%
X160550000Y-26500000D03*
X161450000Y-49161601D03*
%TO.N,/MotorDriver/DTR*%
X32568800Y-133292200D03*
%TO.N,/Distance/SDA*%
X157022800Y-155016200D03*
X158413601Y-49161601D03*
%TO.N,/Distance/SCL*%
X160172400Y-154965400D03*
X164452201Y-49212401D03*
%TO.N,Net-(U4-PB6)*%
X27189073Y-145291195D03*
X22231700Y-143048200D03*
%TO.N,Net-(U4-AREF)*%
X40500000Y-143300000D03*
X37510987Y-143750001D03*
%TO.N,Net-(U4-PB7)*%
X24056600Y-147247600D03*
X27300000Y-146250000D03*
%TO.N,Net-(Q8-G)*%
X26900000Y-156050000D03*
X25420000Y-151791400D03*
%TO.N,Net-(Q6-G)*%
X34050000Y-156050000D03*
X32945000Y-151791400D03*
%TO.N,Net-(Q4-G)*%
X40395000Y-151791400D03*
X41100000Y-156000000D03*
%TD*%
D31*
%TO.N,/Distance/2V8*%
X164100657Y-45326201D02*
X163639401Y-45326201D01*
X160413601Y-34759801D02*
X162496401Y-34759801D01*
X163893401Y-36995001D02*
X164048400Y-37150000D01*
X162229803Y-36995001D02*
X162178802Y-37046002D01*
X166145201Y-46106657D02*
X165882357Y-46369501D01*
X157016601Y-38817201D02*
X157016601Y-42100401D01*
X162496401Y-34759801D02*
X162521801Y-34734401D01*
X160553199Y-37020401D02*
X160578800Y-37046002D01*
X165722201Y-42100401D02*
X166145201Y-42523401D01*
X157016601Y-42100401D02*
X157016601Y-44900601D01*
X162521801Y-34734401D02*
X162521801Y-35623401D01*
X158813401Y-37020401D02*
X160553199Y-37020401D01*
X165882357Y-46369501D02*
X165143957Y-46369501D01*
X163893401Y-36995001D02*
X162229803Y-36995001D01*
X158813401Y-37020401D02*
X157016601Y-38817201D01*
X160413601Y-32702401D02*
X160413601Y-34759801D01*
X165722201Y-37472201D02*
X165722201Y-42100401D01*
X160413601Y-34759801D02*
X158813401Y-36360001D01*
X162521801Y-35623401D02*
X163893401Y-36995001D01*
X157016601Y-44900601D02*
X157421401Y-45305401D01*
X165400000Y-37150000D02*
X165722201Y-37472201D01*
X166145201Y-42523401D02*
X166145201Y-46106657D01*
X158813401Y-36360001D02*
X158813401Y-37020401D01*
X165143957Y-46369501D02*
X164100657Y-45326201D01*
X164048400Y-37150000D02*
X165400000Y-37150000D01*
%TO.N,/Distance/SDA_2.8 V*%
X162734602Y-38890202D02*
X162734602Y-40801800D01*
X159016601Y-45000601D02*
X159321401Y-45305401D01*
X159016601Y-42100401D02*
X159016601Y-45000601D01*
X162490401Y-38646001D02*
X162734602Y-38890202D01*
X161436001Y-42100401D02*
X159016601Y-42100401D01*
X162734602Y-40801800D02*
X161436001Y-42100401D01*
X162178802Y-38646001D02*
X162490401Y-38646001D01*
%TO.N,/Distance/SCL_2.8 V*%
X163722201Y-43509001D02*
X165539401Y-45326201D01*
X164924201Y-40898401D02*
X163722201Y-42100401D01*
X164924201Y-38495355D02*
X164924201Y-40898401D01*
X163722201Y-42100401D02*
X163722201Y-43509001D01*
X162221103Y-37888301D02*
X164317147Y-37888301D01*
X164317147Y-37888301D02*
X164924201Y-38495355D01*
X162178802Y-37846000D02*
X162221103Y-37888301D01*
D32*
%TO.N,/BuckRegulator/Battery*%
X38550000Y-173241400D02*
X37280000Y-173241400D01*
D33*
X39185000Y-170841400D02*
X43558600Y-170841400D01*
D32*
X32770000Y-173253900D02*
X31500000Y-173253900D01*
D31*
X58100000Y-164850000D02*
X49550000Y-164850000D01*
X49550000Y-164850000D02*
X48900000Y-165500000D01*
D32*
X26970000Y-173291400D02*
X25700000Y-173291400D01*
D33*
X25065000Y-170891400D02*
X32097500Y-170891400D01*
X43558600Y-170841400D02*
X48900000Y-165500000D01*
D32*
X25700000Y-173291400D02*
X24430000Y-173291400D01*
X39820000Y-173241400D02*
X38550000Y-173241400D01*
D33*
X32135000Y-170853900D02*
X39172500Y-170853900D01*
D31*
X66875000Y-164850000D02*
X69375000Y-167350000D01*
X32097500Y-170891400D02*
X32135000Y-170853900D01*
D32*
X23160000Y-173291400D02*
X24430000Y-173291400D01*
X34040000Y-173253900D02*
X32770000Y-173253900D01*
D31*
X34052500Y-173241400D02*
X34040000Y-173253900D01*
D32*
X37280000Y-173241400D02*
X34052500Y-173241400D01*
X26970000Y-173291400D02*
X30192500Y-173291400D01*
D31*
X58100000Y-164850000D02*
X66875000Y-164850000D01*
D32*
X39820000Y-173241400D02*
X41090000Y-173241400D01*
X30230000Y-173253900D02*
X31500000Y-173253900D01*
D31*
X30192500Y-173291400D02*
X30230000Y-173253900D01*
X39172500Y-170853900D02*
X39185000Y-170841400D01*
D32*
%TO.N,/MotorDriver/PHASEA*%
X39820000Y-161650000D02*
X38550000Y-161650000D01*
X38550000Y-161650000D02*
X37280000Y-161650000D01*
D34*
X38550000Y-167541400D02*
X39710800Y-167541400D01*
D32*
X37280000Y-163920000D02*
X37280000Y-161650000D01*
X38550000Y-167541400D02*
X37280000Y-167541400D01*
X37280000Y-167541400D02*
X37280000Y-164436400D01*
X41090000Y-161650000D02*
X39820000Y-161650000D01*
%TO.N,/MotorDriver/PHASEB*%
X30230000Y-167553900D02*
X31500000Y-167553900D01*
X31475000Y-161641400D02*
X30205000Y-161641400D01*
X30230000Y-164261400D02*
X30210000Y-164241400D01*
X34015000Y-161641400D02*
X32745000Y-161641400D01*
D34*
X32770000Y-167553900D02*
X31500000Y-167553900D01*
D32*
X30210000Y-161646400D02*
X30205000Y-161641400D01*
X30210000Y-164241400D02*
X30210000Y-161646400D01*
X30230000Y-167553900D02*
X30230000Y-164261400D01*
X32745000Y-161641400D02*
X31475000Y-161641400D01*
%TO.N,/MotorDriver/PHASEC*%
X23050000Y-167481400D02*
X23160000Y-167591400D01*
D34*
X25700000Y-167591400D02*
X24430000Y-167591400D01*
D32*
X23050000Y-164266400D02*
X23050000Y-161721400D01*
X23050000Y-161721400D02*
X23080000Y-161691400D01*
X23050000Y-164266400D02*
X23050000Y-167481400D01*
X26890000Y-161691400D02*
X25620000Y-161691400D01*
X25620000Y-161691400D02*
X24350000Y-161691400D01*
X24350000Y-161691400D02*
X23080000Y-161691400D01*
X24430000Y-167591400D02*
X23160000Y-167591400D01*
D31*
%TO.N,GNDREF*%
X21250000Y-149550000D02*
X21645000Y-149945000D01*
X158338601Y-33231852D02*
X158338601Y-34759801D01*
X21645000Y-149945000D02*
X21645000Y-151791400D01*
X160129400Y-39095401D02*
X160578800Y-38646001D01*
D34*
X30205000Y-155941400D02*
X31475000Y-155941400D01*
D31*
X161363602Y-30206851D02*
X158338601Y-33231852D01*
D34*
X39820000Y-155950000D02*
X38550000Y-155950000D01*
D31*
X160578800Y-37846000D02*
X160578800Y-38646001D01*
X161378801Y-37471199D02*
X161004000Y-37846000D01*
X39820000Y-153934518D02*
X39820000Y-155950000D01*
X161004000Y-37846000D02*
X160578800Y-37846000D01*
X163893401Y-39070001D02*
X163893401Y-40556599D01*
X163893401Y-40556599D02*
X163850000Y-40600000D01*
D34*
X23080000Y-155991400D02*
X24350000Y-155991400D01*
X24350000Y-155991400D02*
X25620000Y-155991400D01*
D31*
X29195000Y-151766400D02*
X29195000Y-152183400D01*
D34*
X37280000Y-155950000D02*
X38550000Y-155950000D01*
D31*
X161378801Y-37046002D02*
X161378801Y-37471199D01*
X161363602Y-29971901D02*
X161363602Y-30206851D01*
X161378801Y-40246000D02*
X161378801Y-39934401D01*
X160578800Y-38646001D02*
X160578800Y-39446002D01*
X37675800Y-152797200D02*
X38682682Y-152797200D01*
X29195000Y-152183400D02*
X28864200Y-152514200D01*
X38682682Y-152797200D02*
X39820000Y-153934518D01*
X160890402Y-39446002D02*
X160578800Y-39446002D01*
X161378801Y-39934401D02*
X160890402Y-39446002D01*
D34*
X31475000Y-155941400D02*
X32745000Y-155941400D01*
D31*
X36670000Y-151791400D02*
X37675800Y-152797200D01*
X158813401Y-39095401D02*
X160129400Y-39095401D01*
%TO.N,/Microcontorller/Tx*%
X138592148Y-173864201D02*
X138744149Y-173712200D01*
X159785800Y-173712200D02*
X160472600Y-174399000D01*
X138744149Y-173712200D02*
X159785800Y-173712200D01*
%TO.N,/Microcontorller/Rx*%
X142050000Y-174550000D02*
X159051600Y-174550000D01*
X159051600Y-174550000D02*
X159202600Y-174399000D01*
%TO.N,/Buttons/Land*%
X171000000Y-141268000D02*
X166008502Y-141268000D01*
X154992600Y-159168750D02*
X154992600Y-157792600D01*
X155723849Y-159900000D02*
X154992600Y-159168750D01*
X154122600Y-156922600D02*
X154122600Y-156899000D01*
X166008502Y-141268000D02*
X165670000Y-141606502D01*
X165670000Y-141606502D02*
X165670000Y-159106151D01*
X154992600Y-157792600D02*
X154122600Y-156922600D01*
X164876150Y-159900000D02*
X155723849Y-159900000D01*
X165670000Y-159106151D02*
X164876150Y-159900000D01*
%TO.N,/LED/RED LED*%
X169569400Y-139132900D02*
X168802300Y-139900000D01*
X164427673Y-141120379D02*
X164427673Y-157729127D01*
X169569400Y-120001000D02*
X169569400Y-139132900D01*
X168802300Y-139900000D02*
X165648052Y-139900000D01*
X165648052Y-139900000D02*
X164427673Y-141120379D01*
X170256200Y-119314200D02*
X169569400Y-120001000D01*
X164427673Y-157729127D02*
X163350000Y-158806800D01*
%TO.N,/LED/GREEN LED*%
X170521550Y-124587968D02*
X170256200Y-124322618D01*
X165700000Y-140424202D02*
X165727034Y-140397168D01*
X165700000Y-140453200D02*
X165700000Y-140424202D01*
X164855200Y-158291596D02*
X164855200Y-141269002D01*
X170313200Y-125365282D02*
X170313200Y-124796318D01*
X170323400Y-125375482D02*
X170313200Y-125365282D01*
X170313200Y-124796318D02*
X170521550Y-124587968D01*
X165671002Y-140453200D02*
X165700000Y-140453200D01*
X170323400Y-140176600D02*
X170323400Y-125375482D01*
X170102832Y-140397168D02*
X170323400Y-140176600D01*
X164339996Y-158806800D02*
X164855200Y-158291596D01*
X165727034Y-140397168D02*
X170102832Y-140397168D01*
X164855200Y-141269002D02*
X165671002Y-140453200D01*
%TO.N,/Microcontorller/PWM*%
X68650000Y-166050000D02*
X52900000Y-150300000D01*
X124800000Y-162200000D02*
X120950000Y-166050000D01*
X52900000Y-150300000D02*
X39350000Y-150300000D01*
X145450000Y-158700000D02*
X141950000Y-162200000D01*
X141950000Y-162200000D02*
X124800000Y-162200000D01*
X120950000Y-166050000D02*
X68650000Y-166050000D01*
X39350000Y-150300000D02*
X36626991Y-147576991D01*
%TO.N,/Microcontorller/~{RESET}*%
X162820600Y-148056600D02*
X162820600Y-155821000D01*
X162820600Y-155821000D02*
X161742600Y-156899000D01*
%TO.N,/Buttons/Hover*%
X170730800Y-140565918D02*
X170436118Y-140860600D01*
X170436118Y-140860600D02*
X165839752Y-140860600D01*
X165262600Y-141437752D02*
X165262600Y-158937400D01*
X155892600Y-159492600D02*
X155400000Y-159000000D01*
X165839752Y-140860600D02*
X165262600Y-141437752D01*
X155400000Y-159000000D02*
X155400000Y-156906400D01*
X165262600Y-158937400D02*
X164707400Y-159492600D01*
X170730800Y-125350000D02*
X170730800Y-140565918D01*
X164707400Y-159492600D02*
X155892600Y-159492600D01*
X155400000Y-156906400D02*
X155392600Y-156899000D01*
X171000000Y-125080800D02*
X170730800Y-125350000D01*
%TO.N,/MotorDriver/BH*%
X32966064Y-146510086D02*
X33638169Y-146510086D01*
X29550000Y-149926150D02*
X32966064Y-146510086D01*
X29550000Y-150435800D02*
X29550000Y-149926150D01*
%TO.N,/MotorDriver/CH*%
X33076714Y-145823286D02*
X34076611Y-145823286D01*
X28350000Y-150550000D02*
X33076714Y-145823286D01*
X22500000Y-150550000D02*
X28350000Y-150550000D01*
X34076611Y-145823286D02*
X34587139Y-146333814D01*
%TO.N,/MotorDriver/CL*%
X28050000Y-149864200D02*
X29540800Y-148373400D01*
X29540800Y-148373400D02*
X29540800Y-139180000D01*
%TO.N,/MotorDriver/AH*%
X32799999Y-148460987D02*
X32850000Y-148510988D01*
X37796964Y-150750000D02*
X37965921Y-150581043D01*
X33750000Y-150750000D02*
X37796964Y-150750000D01*
X32850000Y-149850000D02*
X33750000Y-150750000D01*
X32850000Y-148510988D02*
X32850000Y-149850000D01*
%TO.N,/MotorDriver/BL*%
X35800000Y-146575393D02*
X34150000Y-144925393D01*
X36650000Y-150064200D02*
X35800000Y-149214200D01*
X34150000Y-144925393D02*
X34150000Y-140550000D01*
X35800000Y-149214200D02*
X35800000Y-146575393D01*
%TO.N,/MotorDriver/AL*%
X43450000Y-141350000D02*
X35100000Y-141350000D01*
%TO.N,/MotorDriver/~{RESET}*%
X32568800Y-137670214D02*
X31999999Y-138239013D01*
X32568800Y-135367200D02*
X32568800Y-137670214D01*
%TO.N,/MotorDriver/Tx*%
X30500000Y-129480000D02*
X30500000Y-138139014D01*
X28570000Y-127550000D02*
X30500000Y-129480000D01*
X30500000Y-138139014D02*
X30400001Y-138239013D01*
%TO.N,/MotorDriver/Rx*%
X31110000Y-127550000D02*
X31199999Y-127639999D01*
X31199999Y-127639999D02*
X31199999Y-137698999D01*
%TO.N,/MotorDriver/COMMON*%
X31400000Y-153200000D02*
X24783200Y-153200000D01*
X38154834Y-153240634D02*
X31440634Y-153240634D01*
X31440634Y-153240634D02*
X31400000Y-153200000D01*
X24783200Y-153200000D02*
X24733200Y-153250000D01*
X26750000Y-149391600D02*
X27650000Y-148491600D01*
X26750000Y-149864200D02*
X26750000Y-149391600D01*
X38400000Y-153485800D02*
X38154834Y-153240634D01*
%TO.N,/BuckRegulator/3V3*%
X160599201Y-26549201D02*
X160550000Y-26500000D01*
X160599201Y-28105001D02*
X160599201Y-29786301D01*
X160803802Y-29177151D02*
X161877151Y-29177151D01*
X160599201Y-29786301D02*
X160413601Y-29971901D01*
X161550000Y-49161601D02*
X162401401Y-49161601D01*
X162313603Y-29613603D02*
X162313603Y-29971901D01*
X161877151Y-29177151D02*
X162313603Y-29613603D01*
X160413601Y-29971901D02*
X160413601Y-29567352D01*
X160599201Y-28105001D02*
X160599201Y-26549201D01*
X160413601Y-29567352D02*
X160803802Y-29177151D01*
X160413601Y-49161601D02*
X161550000Y-49161601D01*
X162401401Y-49161601D02*
X162452201Y-49212401D01*
%TO.N,/MotorDriver/DTR*%
X31607399Y-129592601D02*
X31607399Y-132330799D01*
X31607399Y-132330799D02*
X32568800Y-133292200D01*
X33650000Y-127550000D02*
X31607399Y-129592601D01*
%TO.N,/Distance/SDA*%
X161692600Y-152457400D02*
X159133800Y-155016200D01*
X158371401Y-49119401D02*
X158371401Y-48273418D01*
X165310552Y-139085200D02*
X161692600Y-142703152D01*
X168754600Y-138795400D02*
X168464800Y-139085200D01*
X168754600Y-119268368D02*
X168754600Y-138795400D01*
X161692600Y-142703152D02*
X161692600Y-152457400D01*
X158413601Y-49161601D02*
X158371401Y-49119401D01*
X159502000Y-50250000D02*
X170442600Y-50250000D01*
X159133800Y-155016200D02*
X157022800Y-155016200D01*
X158371401Y-48170058D02*
X158371401Y-47180401D01*
X168464800Y-139085200D02*
X165310552Y-139085200D01*
X158371401Y-48273418D02*
X158371401Y-48170058D01*
X158413601Y-49161601D02*
X159502000Y-50250000D01*
X170442600Y-117580368D02*
X168754600Y-119268368D01*
X170442600Y-50250000D02*
X170442600Y-117580368D01*
%TO.N,/Distance/SCL*%
X164589401Y-49075201D02*
X164452201Y-49212401D01*
X164452201Y-49212401D02*
X170812401Y-49212401D01*
X162100000Y-152626151D02*
X160172400Y-154553750D01*
X170850000Y-49250000D02*
X170850000Y-117749118D01*
X165479302Y-139492600D02*
X162100000Y-142871902D01*
X164589401Y-47201201D02*
X164589401Y-48158574D01*
X169162000Y-119437118D02*
X169162000Y-138964150D01*
X170812401Y-49212401D02*
X170850000Y-49250000D01*
X170850000Y-117749118D02*
X169162000Y-119437118D01*
X169162000Y-138964150D02*
X168633550Y-139492600D01*
X164589401Y-48158574D02*
X164589401Y-49075201D01*
X162100000Y-142871902D02*
X162100000Y-152626151D01*
X160172400Y-154553750D02*
X160172400Y-154965400D01*
X168633550Y-139492600D02*
X165479302Y-139492600D01*
%TO.N,Net-(U4-PB6)*%
X24946078Y-143048200D02*
X27189073Y-145291195D01*
X22231700Y-143048200D02*
X24946078Y-143048200D01*
%TO.N,Net-(U4-AREF)*%
X40450000Y-143350000D02*
X37910986Y-143350000D01*
X40500000Y-143300000D02*
X40450000Y-143350000D01*
X37910986Y-143350000D02*
X37510987Y-143750001D01*
%TO.N,Net-(U4-PB7)*%
X24056600Y-147247600D02*
X26302400Y-147247600D01*
X26302400Y-147247600D02*
X27300000Y-146250000D01*
%TO.N,Net-(Q8-G)*%
X26890000Y-155991400D02*
X26890000Y-156040000D01*
X26890000Y-156040000D02*
X26900000Y-156050000D01*
%TO.N,Net-(Q7-G)*%
X26970000Y-167591400D02*
X27508600Y-167591400D01*
X27635000Y-167465000D02*
X27635000Y-164291400D01*
X27508600Y-167591400D02*
X27635000Y-167465000D01*
%TO.N,Net-(Q6-G)*%
X34015000Y-155941400D02*
X34015000Y-156015000D01*
X34015000Y-156015000D02*
X34050000Y-156050000D01*
%TO.N,Net-(Q5-G)*%
X34810000Y-167490000D02*
X34810000Y-164216400D01*
X34746100Y-167553900D02*
X34810000Y-167490000D01*
X34040000Y-167553900D02*
X34746100Y-167553900D01*
%TO.N,Net-(Q4-G)*%
X41090000Y-155990000D02*
X41100000Y-156000000D01*
X41090000Y-155950000D02*
X41090000Y-155990000D01*
%TO.N,Net-(Q3-G)*%
X41090000Y-167541400D02*
X41708600Y-167541400D01*
X41708600Y-167541400D02*
X41860000Y-167390000D01*
X41860000Y-167390000D02*
X41860000Y-164241400D01*
%TD*%
%TA.AperFunction,Conductor*%
%TO.N,GNDREF*%
G36*
X171722739Y-23896185D02*
G01*
X171768494Y-23948989D01*
X171779700Y-24000500D01*
X171779700Y-124314508D01*
X171760015Y-124381547D01*
X171707211Y-124427302D01*
X171638053Y-124437246D01*
X171574497Y-124408221D01*
X171568019Y-124402189D01*
X171561926Y-124396096D01*
X171561922Y-124396093D01*
X171417553Y-124299628D01*
X171417540Y-124299621D01*
X171257128Y-124233177D01*
X171257119Y-124233174D01*
X171213497Y-124224497D01*
X171151586Y-124192111D01*
X171117013Y-124131394D01*
X171116073Y-124127071D01*
X171103825Y-124065501D01*
X171103824Y-124065494D01*
X171103822Y-124065489D01*
X171037378Y-123905077D01*
X171037371Y-123905064D01*
X170940906Y-123760695D01*
X170940903Y-123760691D01*
X170818126Y-123637914D01*
X170818122Y-123637911D01*
X170673753Y-123541446D01*
X170673740Y-123541439D01*
X170513328Y-123474995D01*
X170513318Y-123474992D01*
X170343022Y-123441118D01*
X170343020Y-123441118D01*
X170295500Y-123441118D01*
X170228461Y-123421433D01*
X170182706Y-123368629D01*
X170171500Y-123317118D01*
X170171500Y-120319700D01*
X170191185Y-120252661D01*
X170243989Y-120206906D01*
X170295500Y-120195700D01*
X170343022Y-120195700D01*
X170457594Y-120172909D01*
X170513324Y-120161824D01*
X170673747Y-120095375D01*
X170818123Y-119998906D01*
X170940906Y-119876123D01*
X171037375Y-119731747D01*
X171103824Y-119571324D01*
X171137700Y-119401020D01*
X171137700Y-119227380D01*
X171137700Y-119227377D01*
X171103825Y-119057081D01*
X171103824Y-119057080D01*
X171103824Y-119057076D01*
X171095080Y-119035965D01*
X171037378Y-118896659D01*
X171037371Y-118896646D01*
X170940906Y-118752277D01*
X170940903Y-118752273D01*
X170907303Y-118718673D01*
X170873818Y-118657350D01*
X170878802Y-118587658D01*
X170907300Y-118543314D01*
X171331800Y-118118816D01*
X171411067Y-117981520D01*
X171452100Y-117828386D01*
X171452100Y-117669850D01*
X171452100Y-49170732D01*
X171411067Y-49017598D01*
X171331800Y-48880302D01*
X171219698Y-48768200D01*
X171182099Y-48730601D01*
X171044803Y-48651334D01*
X171044804Y-48651334D01*
X170993758Y-48637656D01*
X170891669Y-48610301D01*
X170891667Y-48610301D01*
X165631972Y-48610301D01*
X165564933Y-48590616D01*
X165519178Y-48537812D01*
X165514266Y-48525305D01*
X165487015Y-48443067D01*
X165394913Y-48293745D01*
X165337885Y-48236717D01*
X165304400Y-48175394D01*
X165309383Y-48105705D01*
X165323491Y-48067883D01*
X165329900Y-48008273D01*
X165329899Y-47095600D01*
X165349583Y-47028562D01*
X165402387Y-46982807D01*
X165453899Y-46971601D01*
X165961623Y-46971601D01*
X165961625Y-46971601D01*
X166114759Y-46930568D01*
X166252055Y-46851301D01*
X166364157Y-46739199D01*
X166627001Y-46476355D01*
X166706269Y-46339058D01*
X166747301Y-46185925D01*
X166747301Y-46027389D01*
X166747301Y-42918056D01*
X166756376Y-42877132D01*
X166754743Y-42876591D01*
X166757016Y-42869732D01*
X166812200Y-42703198D01*
X166822701Y-42600410D01*
X166822700Y-41600393D01*
X166812200Y-41497604D01*
X166757015Y-41331067D01*
X166664913Y-41181745D01*
X166540857Y-41057689D01*
X166391535Y-40965587D01*
X166391533Y-40965586D01*
X166385388Y-40961796D01*
X166386755Y-40959578D01*
X166343442Y-40921425D01*
X166324301Y-40855238D01*
X166324301Y-37392934D01*
X166324301Y-37392933D01*
X166283268Y-37239799D01*
X166204001Y-37102503D01*
X166091899Y-36990401D01*
X165769698Y-36668200D01*
X165739392Y-36650703D01*
X165632404Y-36588934D01*
X165632403Y-36588933D01*
X165551698Y-36567308D01*
X165479268Y-36547900D01*
X165479266Y-36547900D01*
X165212254Y-36547900D01*
X165145215Y-36528215D01*
X165099460Y-36475411D01*
X165094553Y-36462917D01*
X165053215Y-36338167D01*
X164961113Y-36188845D01*
X164939601Y-36167333D01*
X164906116Y-36106010D01*
X164911100Y-36036318D01*
X164952972Y-35980385D01*
X165014681Y-35956294D01*
X165086997Y-35948906D01*
X165253420Y-35893759D01*
X165253425Y-35893757D01*
X165402646Y-35801716D01*
X165526616Y-35677746D01*
X165618657Y-35528525D01*
X165618659Y-35528520D01*
X165673806Y-35362098D01*
X165673807Y-35362091D01*
X165684300Y-35259387D01*
X165684301Y-35259374D01*
X165684301Y-34984401D01*
X164720801Y-34984401D01*
X164653762Y-34964716D01*
X164608007Y-34911912D01*
X164596801Y-34860401D01*
X164596801Y-34734401D01*
X164470801Y-34734401D01*
X164403762Y-34714716D01*
X164358007Y-34661912D01*
X164346801Y-34610401D01*
X164346801Y-34484401D01*
X164846801Y-34484401D01*
X165684300Y-34484401D01*
X165684300Y-34209429D01*
X165684299Y-34209414D01*
X165673806Y-34106703D01*
X165618659Y-33940281D01*
X165618657Y-33940276D01*
X165526616Y-33791055D01*
X165402646Y-33667085D01*
X165253425Y-33575044D01*
X165253420Y-33575042D01*
X165086998Y-33519895D01*
X165086991Y-33519894D01*
X164984287Y-33509401D01*
X164846801Y-33509401D01*
X164846801Y-34484401D01*
X164346801Y-34484401D01*
X164346801Y-33509401D01*
X164209328Y-33509401D01*
X164209313Y-33509402D01*
X164106603Y-33519895D01*
X163940181Y-33575042D01*
X163940176Y-33575044D01*
X163790955Y-33667085D01*
X163666984Y-33791056D01*
X163666980Y-33791061D01*
X163665127Y-33794066D01*
X163663319Y-33795691D01*
X163662503Y-33796724D01*
X163662326Y-33796584D01*
X163613175Y-33840786D01*
X163544212Y-33852002D01*
X163480132Y-33824153D01*
X163454054Y-33794054D01*
X163454038Y-33794029D01*
X163452013Y-33790745D01*
X163327957Y-33666689D01*
X163203387Y-33589854D01*
X163178637Y-33574588D01*
X163178632Y-33574586D01*
X163154909Y-33566725D01*
X163105165Y-33550241D01*
X163047721Y-33510469D01*
X163020898Y-33445953D01*
X163027987Y-33389205D01*
X163061694Y-33298834D01*
X163068103Y-33239224D01*
X163068102Y-32165579D01*
X163061694Y-32105968D01*
X163011399Y-31971120D01*
X163011398Y-31971119D01*
X163011396Y-31971115D01*
X162925150Y-31855906D01*
X162925147Y-31855903D01*
X162809938Y-31769657D01*
X162809931Y-31769653D01*
X162675089Y-31719361D01*
X162675088Y-31719360D01*
X162675086Y-31719360D01*
X162615476Y-31712951D01*
X162615466Y-31712951D01*
X162011732Y-31712951D01*
X162011726Y-31712952D01*
X161952119Y-31719359D01*
X161817274Y-31769653D01*
X161817267Y-31769657D01*
X161702058Y-31855903D01*
X161702055Y-31855906D01*
X161615809Y-31971115D01*
X161615805Y-31971122D01*
X161565511Y-32105968D01*
X161559104Y-32165567D01*
X161559104Y-32165574D01*
X161559103Y-32165586D01*
X161559103Y-33239221D01*
X161559104Y-33239227D01*
X161565511Y-33298834D01*
X161615805Y-33433679D01*
X161615807Y-33433682D01*
X161693912Y-33538016D01*
X161704620Y-33566725D01*
X161717370Y-33594590D01*
X161716716Y-33599156D01*
X161718329Y-33603478D01*
X161711816Y-33633419D01*
X161707477Y-33663755D01*
X161704185Y-33668499D01*
X161703478Y-33671751D01*
X161688417Y-33693461D01*
X161685489Y-33696844D01*
X161591589Y-33790745D01*
X161560169Y-33841684D01*
X161553639Y-33849232D01*
X161532313Y-33862959D01*
X161513457Y-33879919D01*
X161503430Y-33881550D01*
X161494888Y-33887049D01*
X161469523Y-33887067D01*
X161444494Y-33891140D01*
X161435179Y-33887092D01*
X161425019Y-33887100D01*
X161403670Y-33873401D01*
X161380412Y-33863296D01*
X161371011Y-33852447D01*
X161366213Y-33849368D01*
X161363828Y-33844156D01*
X161354328Y-33833192D01*
X161343816Y-33816149D01*
X161343812Y-33816144D01*
X161219758Y-33692090D01*
X161219757Y-33692089D01*
X161128770Y-33635968D01*
X161082045Y-33584020D01*
X161070824Y-33515057D01*
X161094602Y-33456116D01*
X161111397Y-33433682D01*
X161161692Y-33298834D01*
X161163807Y-33279161D01*
X161168100Y-33239237D01*
X161168100Y-33239233D01*
X161168101Y-33239224D01*
X161168100Y-33197486D01*
X161187783Y-33130448D01*
X161188964Y-33128644D01*
X161194776Y-33119948D01*
X161261225Y-32959525D01*
X161295101Y-32789221D01*
X161295101Y-32615581D01*
X161295101Y-32615578D01*
X161261226Y-32445282D01*
X161261225Y-32445281D01*
X161261225Y-32445277D01*
X161194776Y-32284854D01*
X161188995Y-32276203D01*
X161168120Y-32209526D01*
X161168100Y-32207315D01*
X161168100Y-32165580D01*
X161168099Y-32165574D01*
X161168098Y-32165567D01*
X161161692Y-32105968D01*
X161111397Y-31971120D01*
X161111396Y-31971119D01*
X161111394Y-31971115D01*
X161025148Y-31855906D01*
X161025145Y-31855903D01*
X160909936Y-31769657D01*
X160909929Y-31769653D01*
X160775087Y-31719361D01*
X160775086Y-31719360D01*
X160775084Y-31719360D01*
X160715474Y-31712951D01*
X160715464Y-31712951D01*
X160111730Y-31712951D01*
X160111724Y-31712952D01*
X160052117Y-31719359D01*
X159917272Y-31769653D01*
X159917265Y-31769657D01*
X159802056Y-31855903D01*
X159802053Y-31855906D01*
X159715807Y-31971115D01*
X159715803Y-31971122D01*
X159665509Y-32105968D01*
X159659102Y-32165567D01*
X159659102Y-32165574D01*
X159659101Y-32165586D01*
X159659101Y-32207316D01*
X159639416Y-32274355D01*
X159638206Y-32276203D01*
X159632429Y-32284849D01*
X159632424Y-32284857D01*
X159565977Y-32445276D01*
X159565975Y-32445282D01*
X159532101Y-32615578D01*
X159532101Y-32615581D01*
X159532101Y-32789221D01*
X159532101Y-32789223D01*
X159532100Y-32789223D01*
X159565975Y-32959519D01*
X159565977Y-32959525D01*
X159632424Y-33119944D01*
X159632432Y-33119958D01*
X159638203Y-33128595D01*
X159659081Y-33195272D01*
X159659101Y-33197482D01*
X159659101Y-33239219D01*
X159659102Y-33239228D01*
X159665509Y-33298834D01*
X159715803Y-33433679D01*
X159715805Y-33433682D01*
X159732598Y-33456115D01*
X159732600Y-33456117D01*
X159757018Y-33521581D01*
X159742167Y-33589854D01*
X159698431Y-33635967D01*
X159607448Y-33692086D01*
X159607444Y-33692089D01*
X159483389Y-33816144D01*
X159483384Y-33816150D01*
X159481342Y-33819462D01*
X159479348Y-33821254D01*
X159478908Y-33821812D01*
X159478812Y-33821736D01*
X159429392Y-33866184D01*
X159360429Y-33877403D01*
X159296348Y-33849556D01*
X159270269Y-33819457D01*
X159268420Y-33816460D01*
X159268417Y-33816456D01*
X159144446Y-33692485D01*
X158995225Y-33600444D01*
X158995220Y-33600442D01*
X158828798Y-33545295D01*
X158828791Y-33545294D01*
X158726087Y-33534801D01*
X158588601Y-33534801D01*
X158588601Y-34635801D01*
X158568916Y-34702840D01*
X158516112Y-34748595D01*
X158464601Y-34759801D01*
X158338601Y-34759801D01*
X158338601Y-34885801D01*
X158318916Y-34952840D01*
X158266112Y-34998595D01*
X158214601Y-35009801D01*
X157251102Y-35009801D01*
X157251102Y-35284787D01*
X157261595Y-35387498D01*
X157316742Y-35553920D01*
X157316744Y-35553925D01*
X157408785Y-35703146D01*
X157532755Y-35827116D01*
X157681976Y-35919157D01*
X157681983Y-35919160D01*
X157760643Y-35945225D01*
X157818088Y-35984997D01*
X157844912Y-36049513D01*
X157832597Y-36118289D01*
X157809322Y-36150612D01*
X157745688Y-36214246D01*
X157653588Y-36363564D01*
X157653587Y-36363567D01*
X157598402Y-36530104D01*
X157598402Y-36530105D01*
X157598401Y-36530105D01*
X157587901Y-36632884D01*
X157587901Y-37343040D01*
X157568216Y-37410079D01*
X157551582Y-37430721D01*
X156646903Y-38335401D01*
X156534802Y-38447501D01*
X156534800Y-38447504D01*
X156455534Y-38584798D01*
X156414501Y-38737934D01*
X156414501Y-40855238D01*
X156394816Y-40922277D01*
X156352072Y-40959621D01*
X156353414Y-40961796D01*
X156347268Y-40965586D01*
X156347267Y-40965587D01*
X156297149Y-40996500D01*
X156197943Y-41057690D01*
X156073890Y-41181743D01*
X155981788Y-41331064D01*
X155981787Y-41331067D01*
X155926602Y-41497604D01*
X155926602Y-41497605D01*
X155926601Y-41497605D01*
X155916101Y-41600384D01*
X155916101Y-42600402D01*
X155916102Y-42600420D01*
X155926601Y-42703197D01*
X155926602Y-42703200D01*
X155954536Y-42787497D01*
X155981787Y-42869735D01*
X156073889Y-43019057D01*
X156197945Y-43143113D01*
X156347267Y-43235215D01*
X156347268Y-43235215D01*
X156353414Y-43239006D01*
X156352041Y-43241230D01*
X156395335Y-43279337D01*
X156414501Y-43345563D01*
X156414501Y-44979869D01*
X156433958Y-45052483D01*
X156455534Y-45133004D01*
X156455535Y-45133005D01*
X156521311Y-45246933D01*
X156534801Y-45270299D01*
X156587633Y-45323131D01*
X156591127Y-45327299D01*
X156603027Y-45354527D01*
X156617266Y-45380602D01*
X156618192Y-45389222D01*
X156619110Y-45391321D01*
X156618695Y-45393901D01*
X156620100Y-45406960D01*
X156620100Y-45958270D01*
X156620101Y-45958276D01*
X156626508Y-46017883D01*
X156676802Y-46152728D01*
X156676806Y-46152735D01*
X156763052Y-46267944D01*
X156763055Y-46267947D01*
X156878264Y-46354193D01*
X156878271Y-46354197D01*
X156923218Y-46370961D01*
X157013117Y-46404491D01*
X157072727Y-46410900D01*
X157452061Y-46410899D01*
X157519099Y-46430583D01*
X157564854Y-46483387D01*
X157575349Y-46548151D01*
X157572600Y-46573727D01*
X157572600Y-46573728D01*
X157572600Y-46573732D01*
X157572600Y-47990270D01*
X157572601Y-47990276D01*
X157579009Y-48049890D01*
X157579342Y-48051297D01*
X157579281Y-48052420D01*
X157579838Y-48057596D01*
X157578999Y-48057686D01*
X157575598Y-48121066D01*
X157546346Y-48167486D01*
X157470890Y-48242943D01*
X157378788Y-48392264D01*
X157378786Y-48392269D01*
X157361953Y-48443069D01*
X157323602Y-48558804D01*
X157323602Y-48558805D01*
X157323601Y-48558805D01*
X157313101Y-48661584D01*
X157313101Y-49661602D01*
X157313102Y-49661620D01*
X157323601Y-49764397D01*
X157323602Y-49764400D01*
X157378786Y-49930932D01*
X157378787Y-49930935D01*
X157470889Y-50080257D01*
X157594945Y-50204313D01*
X157744267Y-50296415D01*
X157910804Y-50351600D01*
X158013592Y-50362101D01*
X158711240Y-50362100D01*
X158778279Y-50381784D01*
X158798921Y-50398419D01*
X159132302Y-50731800D01*
X159269599Y-50811068D01*
X159422732Y-50852100D01*
X159581268Y-50852100D01*
X169716500Y-50852100D01*
X169783539Y-50871785D01*
X169829294Y-50924589D01*
X169840500Y-50976100D01*
X169840500Y-117279608D01*
X169820815Y-117346647D01*
X169804181Y-117367289D01*
X169264516Y-117906953D01*
X169203193Y-117940438D01*
X169133501Y-117935454D01*
X169077568Y-117893582D01*
X169053151Y-117828118D01*
X169060653Y-117775938D01*
X169109797Y-117644176D01*
X169109798Y-117644172D01*
X169116199Y-117584644D01*
X169116200Y-117584627D01*
X169116200Y-116886800D01*
X168091478Y-116886800D01*
X168135533Y-116810494D01*
X168166200Y-116696044D01*
X168166200Y-116577556D01*
X168135533Y-116463106D01*
X168091478Y-116386800D01*
X169116200Y-116386800D01*
X169116200Y-115688972D01*
X169116199Y-115688955D01*
X169109798Y-115629427D01*
X169109796Y-115629420D01*
X169059554Y-115494713D01*
X169059550Y-115494706D01*
X168973390Y-115379612D01*
X168973387Y-115379609D01*
X168858293Y-115293449D01*
X168858286Y-115293445D01*
X168723579Y-115243203D01*
X168723572Y-115243201D01*
X168664044Y-115236800D01*
X167966200Y-115236800D01*
X167966200Y-116261522D01*
X167889894Y-116217467D01*
X167775444Y-116186800D01*
X167656956Y-116186800D01*
X167542506Y-116217467D01*
X167466200Y-116261522D01*
X167466200Y-115236800D01*
X166768355Y-115236800D01*
X166708827Y-115243201D01*
X166708820Y-115243203D01*
X166574113Y-115293445D01*
X166574106Y-115293449D01*
X166459012Y-115379609D01*
X166459009Y-115379612D01*
X166372849Y-115494706D01*
X166372843Y-115494718D01*
X166342985Y-115574769D01*
X166301114Y-115630703D01*
X166235649Y-115655119D01*
X166167376Y-115640267D01*
X166139123Y-115619116D01*
X166088563Y-115568556D01*
X166088558Y-115568552D01*
X165910225Y-115438987D01*
X165910224Y-115438986D01*
X165910222Y-115438985D01*
X165847296Y-115406922D01*
X165713806Y-115338904D01*
X165713803Y-115338903D01*
X165504152Y-115270785D01*
X165395286Y-115253542D01*
X165286422Y-115236300D01*
X165065978Y-115236300D01*
X164993401Y-115247795D01*
X164848247Y-115270785D01*
X164638596Y-115338903D01*
X164638593Y-115338904D01*
X164442174Y-115438987D01*
X164263841Y-115568552D01*
X164263836Y-115568556D01*
X164107956Y-115724436D01*
X164107952Y-115724441D01*
X163978387Y-115902774D01*
X163878304Y-116099193D01*
X163878303Y-116099196D01*
X163810185Y-116308847D01*
X163775700Y-116526578D01*
X163775700Y-116747021D01*
X163810185Y-116964752D01*
X163878303Y-117174403D01*
X163878304Y-117174406D01*
X163978387Y-117370825D01*
X164107952Y-117549158D01*
X164107956Y-117549163D01*
X164263836Y-117705043D01*
X164263841Y-117705047D01*
X164419392Y-117818060D01*
X164442178Y-117834615D01*
X164557906Y-117893582D01*
X164638593Y-117934695D01*
X164638596Y-117934696D01*
X164656269Y-117940438D01*
X164848249Y-118002815D01*
X165065978Y-118037300D01*
X165065979Y-118037300D01*
X165286421Y-118037300D01*
X165286422Y-118037300D01*
X165504151Y-118002815D01*
X165713806Y-117934695D01*
X165910222Y-117834615D01*
X166088565Y-117705042D01*
X166139124Y-117654482D01*
X166200445Y-117620998D01*
X166270136Y-117625982D01*
X166326070Y-117667853D01*
X166342986Y-117698830D01*
X166372846Y-117778887D01*
X166372849Y-117778893D01*
X166459009Y-117893987D01*
X166459012Y-117893990D01*
X166574106Y-117980150D01*
X166574113Y-117980154D01*
X166708820Y-118030396D01*
X166708827Y-118030398D01*
X166768355Y-118036799D01*
X166768372Y-118036800D01*
X167466200Y-118036800D01*
X167466200Y-117012077D01*
X167542506Y-117056133D01*
X167656956Y-117086800D01*
X167775444Y-117086800D01*
X167889894Y-117056133D01*
X167966200Y-117012077D01*
X167966200Y-118036800D01*
X168664028Y-118036800D01*
X168664044Y-118036799D01*
X168723572Y-118030398D01*
X168723576Y-118030397D01*
X168855338Y-117981253D01*
X168925030Y-117976269D01*
X168986353Y-118009754D01*
X169019838Y-118071077D01*
X169014854Y-118140768D01*
X168986353Y-118185116D01*
X168384902Y-118786568D01*
X168272801Y-118898668D01*
X168272799Y-118898671D01*
X168193533Y-119035965D01*
X168152500Y-119189101D01*
X168152500Y-138359100D01*
X168132815Y-138426139D01*
X168080011Y-138471894D01*
X168028500Y-138483100D01*
X165231284Y-138483100D01*
X165129194Y-138510455D01*
X165078149Y-138524133D01*
X164985022Y-138577900D01*
X164985021Y-138577899D01*
X164940860Y-138603395D01*
X164940852Y-138603401D01*
X161210801Y-142333452D01*
X161210799Y-142333455D01*
X161131533Y-142470749D01*
X161127372Y-142486277D01*
X161092803Y-142615292D01*
X161090500Y-142623885D01*
X161090500Y-152156640D01*
X161070815Y-152223679D01*
X161054181Y-152244321D01*
X158920721Y-154377781D01*
X158859398Y-154411266D01*
X158833040Y-154414100D01*
X157718691Y-154414100D01*
X157651652Y-154394415D01*
X157631009Y-154377780D01*
X157584726Y-154331496D01*
X157584722Y-154331493D01*
X157440353Y-154235028D01*
X157440340Y-154235021D01*
X157279928Y-154168577D01*
X157279918Y-154168574D01*
X157109622Y-154134700D01*
X157109620Y-154134700D01*
X156935980Y-154134700D01*
X156935978Y-154134700D01*
X156765681Y-154168574D01*
X156765671Y-154168577D01*
X156605259Y-154235021D01*
X156605246Y-154235028D01*
X156460877Y-154331493D01*
X156460873Y-154331496D01*
X156338096Y-154454273D01*
X156338093Y-154454277D01*
X156241628Y-154598646D01*
X156241621Y-154598659D01*
X156175177Y-154759071D01*
X156175174Y-154759081D01*
X156141300Y-154929377D01*
X156141300Y-154929380D01*
X156141300Y-155103020D01*
X156141300Y-155103022D01*
X156141299Y-155103022D01*
X156175174Y-155273318D01*
X156175177Y-155273328D01*
X156241621Y-155433740D01*
X156241628Y-155433753D01*
X156338093Y-155578122D01*
X156338096Y-155578126D01*
X156460873Y-155700903D01*
X156460877Y-155700906D01*
X156605246Y-155797371D01*
X156605259Y-155797378D01*
X156765671Y-155863822D01*
X156765676Y-155863824D01*
X156765680Y-155863824D01*
X156765681Y-155863825D01*
X156935977Y-155897700D01*
X156935980Y-155897700D01*
X157109622Y-155897700D01*
X157261946Y-155867400D01*
X157279924Y-155863824D01*
X157440347Y-155797375D01*
X157584723Y-155700906D01*
X157631009Y-155654620D01*
X157692332Y-155621134D01*
X157718691Y-155618300D01*
X159213066Y-155618300D01*
X159213068Y-155618300D01*
X159366202Y-155577267D01*
X159392486Y-155562091D01*
X159460384Y-155545618D01*
X159526412Y-155568469D01*
X159542162Y-155581791D01*
X159578671Y-155618300D01*
X159610478Y-155650107D01*
X159754846Y-155746571D01*
X159754859Y-155746578D01*
X159877503Y-155797378D01*
X159915276Y-155813024D01*
X159915280Y-155813024D01*
X159915281Y-155813025D01*
X160085577Y-155846900D01*
X160085580Y-155846900D01*
X160259222Y-155846900D01*
X160373794Y-155824109D01*
X160429524Y-155813024D01*
X160589947Y-155746575D01*
X160734323Y-155650106D01*
X160857106Y-155527323D01*
X160953575Y-155382947D01*
X161020024Y-155222524D01*
X161031109Y-155166794D01*
X161053900Y-155052222D01*
X161053900Y-154878577D01*
X161020025Y-154708281D01*
X161020024Y-154708280D01*
X161020024Y-154708276D01*
X161007604Y-154678293D01*
X161000136Y-154608826D01*
X161031411Y-154546347D01*
X161034456Y-154543190D01*
X162006820Y-153570827D01*
X162068142Y-153537343D01*
X162137834Y-153542327D01*
X162193767Y-153584199D01*
X162218184Y-153649663D01*
X162218500Y-153658509D01*
X162218500Y-155520240D01*
X162198815Y-155587279D01*
X162182181Y-155607921D01*
X161808921Y-155981181D01*
X161747598Y-156014666D01*
X161721240Y-156017500D01*
X161655778Y-156017500D01*
X161485481Y-156051374D01*
X161485471Y-156051377D01*
X161325059Y-156117821D01*
X161325046Y-156117828D01*
X161180677Y-156214293D01*
X161180673Y-156214296D01*
X161057896Y-156337073D01*
X161057893Y-156337077D01*
X160961428Y-156481446D01*
X160961421Y-156481459D01*
X160894977Y-156641871D01*
X160894974Y-156641881D01*
X160861100Y-156812177D01*
X160861100Y-156812180D01*
X160861100Y-156985820D01*
X160861100Y-156985822D01*
X160861099Y-156985822D01*
X160894974Y-157156118D01*
X160894977Y-157156128D01*
X160961421Y-157316540D01*
X160961428Y-157316553D01*
X161057893Y-157460922D01*
X161057896Y-157460926D01*
X161180673Y-157583703D01*
X161180677Y-157583706D01*
X161325046Y-157680171D01*
X161325059Y-157680178D01*
X161485471Y-157746622D01*
X161485476Y-157746624D01*
X161485480Y-157746624D01*
X161485481Y-157746625D01*
X161655777Y-157780500D01*
X161655780Y-157780500D01*
X161829422Y-157780500D01*
X161943994Y-157757709D01*
X161999724Y-157746624D01*
X162160147Y-157680175D01*
X162304523Y-157583706D01*
X162427306Y-157460923D01*
X162523775Y-157316547D01*
X162526936Y-157308917D01*
X162582791Y-157174068D01*
X162590224Y-157156124D01*
X162608969Y-157061889D01*
X162624100Y-156985822D01*
X162624100Y-156920360D01*
X162643785Y-156853321D01*
X162660419Y-156832679D01*
X162884045Y-156609053D01*
X163302400Y-156190698D01*
X163337866Y-156129268D01*
X163381667Y-156053402D01*
X163422700Y-155900268D01*
X163422700Y-148752491D01*
X163442385Y-148685452D01*
X163459020Y-148664809D01*
X163505306Y-148618523D01*
X163598471Y-148479092D01*
X163652083Y-148434287D01*
X163721408Y-148425580D01*
X163784435Y-148455734D01*
X163821155Y-148515177D01*
X163825573Y-148547983D01*
X163825573Y-157428367D01*
X163805888Y-157495406D01*
X163789254Y-157516048D01*
X163416321Y-157888981D01*
X163354998Y-157922466D01*
X163328640Y-157925300D01*
X163263178Y-157925300D01*
X163092881Y-157959174D01*
X163092871Y-157959177D01*
X162932459Y-158025621D01*
X162932446Y-158025628D01*
X162788077Y-158122093D01*
X162788073Y-158122096D01*
X162665296Y-158244873D01*
X162665293Y-158244877D01*
X162568828Y-158389246D01*
X162568821Y-158389259D01*
X162502377Y-158549671D01*
X162502374Y-158549681D01*
X162468500Y-158719977D01*
X162468500Y-158766500D01*
X162448815Y-158833539D01*
X162396011Y-158879294D01*
X162344500Y-158890500D01*
X156193360Y-158890500D01*
X156163919Y-158881855D01*
X156133933Y-158875332D01*
X156128917Y-158871577D01*
X156126321Y-158870815D01*
X156105679Y-158854181D01*
X156038419Y-158786921D01*
X156004934Y-158725598D01*
X156002100Y-158699240D01*
X156002100Y-157587491D01*
X156021785Y-157520452D01*
X156038420Y-157499809D01*
X156077303Y-157460926D01*
X156077306Y-157460923D01*
X156173775Y-157316547D01*
X156176936Y-157308917D01*
X156232791Y-157174068D01*
X156240224Y-157156124D01*
X156258969Y-157061889D01*
X156274100Y-156985822D01*
X156274100Y-156812177D01*
X156240225Y-156641881D01*
X156240224Y-156641880D01*
X156240224Y-156641876D01*
X156240222Y-156641871D01*
X156173778Y-156481459D01*
X156173771Y-156481446D01*
X156077306Y-156337077D01*
X156077303Y-156337073D01*
X155954526Y-156214296D01*
X155954522Y-156214293D01*
X155810153Y-156117828D01*
X155810140Y-156117821D01*
X155649728Y-156051377D01*
X155649718Y-156051374D01*
X155479422Y-156017500D01*
X155479420Y-156017500D01*
X155305780Y-156017500D01*
X155305778Y-156017500D01*
X155135481Y-156051374D01*
X155135471Y-156051377D01*
X154975059Y-156117821D01*
X154975046Y-156117828D01*
X154826491Y-156217090D01*
X154759813Y-156237968D01*
X154692433Y-156219483D01*
X154688709Y-156217090D01*
X154540153Y-156117828D01*
X154540140Y-156117821D01*
X154379728Y-156051377D01*
X154379718Y-156051374D01*
X154209422Y-156017500D01*
X154209420Y-156017500D01*
X154035780Y-156017500D01*
X154035778Y-156017500D01*
X153865481Y-156051374D01*
X153865471Y-156051377D01*
X153705059Y-156117821D01*
X153705046Y-156117828D01*
X153560677Y-156214293D01*
X153560673Y-156214296D01*
X153437896Y-156337073D01*
X153437893Y-156337077D01*
X153341428Y-156481446D01*
X153341421Y-156481459D01*
X153274977Y-156641871D01*
X153274974Y-156641881D01*
X153241100Y-156812177D01*
X153241100Y-156812180D01*
X153241100Y-156985820D01*
X153241100Y-156985822D01*
X153241099Y-156985822D01*
X153274974Y-157156118D01*
X153274977Y-157156128D01*
X153341421Y-157316540D01*
X153341428Y-157316553D01*
X153437893Y-157460922D01*
X153437896Y-157460926D01*
X153560673Y-157583703D01*
X153560677Y-157583706D01*
X153705046Y-157680171D01*
X153705059Y-157680178D01*
X153865471Y-157746622D01*
X153865476Y-157746624D01*
X153865480Y-157746624D01*
X153865481Y-157746625D01*
X154035777Y-157780500D01*
X154035780Y-157780500D01*
X154077640Y-157780500D01*
X154144679Y-157800185D01*
X154165321Y-157816819D01*
X154354181Y-158005679D01*
X154387666Y-158067002D01*
X154390500Y-158093360D01*
X154390500Y-159248018D01*
X154390738Y-159248906D01*
X154431533Y-159401153D01*
X154431535Y-159401158D01*
X154489974Y-159502377D01*
X154489975Y-159502377D01*
X154510800Y-159538448D01*
X155242048Y-160269697D01*
X155242049Y-160269698D01*
X155354151Y-160381800D01*
X155491447Y-160461067D01*
X155644581Y-160502100D01*
X155644583Y-160502100D01*
X164955416Y-160502100D01*
X164955418Y-160502100D01*
X165108552Y-160461067D01*
X165245848Y-160381800D01*
X165357950Y-160269698D01*
X165416500Y-160211148D01*
X165416510Y-160211136D01*
X165560922Y-160066725D01*
X165622242Y-160033243D01*
X165691934Y-160038227D01*
X165747867Y-160080099D01*
X165772284Y-160145563D01*
X165772600Y-160154409D01*
X165772600Y-175135500D01*
X165752915Y-175202539D01*
X165700111Y-175248294D01*
X165648600Y-175259500D01*
X161158092Y-175259500D01*
X161091053Y-175239815D01*
X161045298Y-175187011D01*
X161035354Y-175117853D01*
X161064379Y-175054297D01*
X161070411Y-175047819D01*
X161157303Y-174960926D01*
X161157306Y-174960923D01*
X161253775Y-174816547D01*
X161257677Y-174807128D01*
X161283120Y-174745701D01*
X161320224Y-174656124D01*
X161354100Y-174485820D01*
X161354100Y-174312180D01*
X161354100Y-174312177D01*
X161320225Y-174141881D01*
X161320224Y-174141880D01*
X161320224Y-174141876D01*
X161284673Y-174056047D01*
X161253778Y-173981459D01*
X161253771Y-173981446D01*
X161157306Y-173837077D01*
X161157303Y-173837073D01*
X161034526Y-173714296D01*
X161034522Y-173714293D01*
X160890153Y-173617828D01*
X160890140Y-173617821D01*
X160729728Y-173551377D01*
X160729718Y-173551374D01*
X160559422Y-173517500D01*
X160559420Y-173517500D01*
X160493960Y-173517500D01*
X160426921Y-173497815D01*
X160406279Y-173481181D01*
X160155499Y-173230401D01*
X160155494Y-173230397D01*
X160131241Y-173216395D01*
X160131240Y-173216395D01*
X160018204Y-173151134D01*
X160018203Y-173151133D01*
X159967157Y-173137455D01*
X159865068Y-173110100D01*
X159865066Y-173110100D01*
X139087830Y-173110100D01*
X139020791Y-173090415D01*
X139018939Y-173089202D01*
X139009701Y-173083029D01*
X139009688Y-173083022D01*
X138849276Y-173016578D01*
X138849266Y-173016575D01*
X138678970Y-172982701D01*
X138678968Y-172982701D01*
X138505328Y-172982701D01*
X138505326Y-172982701D01*
X138335029Y-173016575D01*
X138335019Y-173016578D01*
X138174607Y-173083022D01*
X138174594Y-173083029D01*
X138030225Y-173179494D01*
X138030221Y-173179497D01*
X137907444Y-173302274D01*
X137907441Y-173302278D01*
X137810976Y-173446647D01*
X137810969Y-173446660D01*
X137744525Y-173607072D01*
X137744522Y-173607082D01*
X137710648Y-173777378D01*
X137710648Y-173777381D01*
X137710648Y-173951021D01*
X137710648Y-173951023D01*
X137710647Y-173951023D01*
X137744522Y-174121319D01*
X137744525Y-174121329D01*
X137810969Y-174281741D01*
X137810976Y-174281754D01*
X137907441Y-174426123D01*
X137907444Y-174426127D01*
X138030221Y-174548904D01*
X138030225Y-174548907D01*
X138174594Y-174645372D01*
X138174607Y-174645379D01*
X138335019Y-174711823D01*
X138335024Y-174711825D01*
X138335028Y-174711825D01*
X138335029Y-174711826D01*
X138505325Y-174745701D01*
X138505328Y-174745701D01*
X138678970Y-174745701D01*
X138793542Y-174722910D01*
X138849272Y-174711825D01*
X139009695Y-174645376D01*
X139154071Y-174548907D01*
X139276854Y-174426124D01*
X139314748Y-174369410D01*
X139368360Y-174324605D01*
X139417851Y-174314300D01*
X141047020Y-174314300D01*
X141114059Y-174333985D01*
X141159814Y-174386789D01*
X141169758Y-174455947D01*
X141168639Y-174462479D01*
X141168500Y-174463180D01*
X141168500Y-174636820D01*
X141168500Y-174636822D01*
X141168499Y-174636822D01*
X141202374Y-174807118D01*
X141202377Y-174807128D01*
X141268821Y-174967540D01*
X141268828Y-174967553D01*
X141335016Y-175066609D01*
X141355894Y-175133286D01*
X141337410Y-175200666D01*
X141285431Y-175247357D01*
X141231914Y-175259500D01*
X20520700Y-175259500D01*
X20453661Y-175239815D01*
X20407906Y-175187011D01*
X20396700Y-175135500D01*
X20396700Y-155218555D01*
X22155000Y-155218555D01*
X22155000Y-155741400D01*
X22830000Y-155741400D01*
X23330000Y-155741400D01*
X24100000Y-155741400D01*
X24600000Y-155741400D01*
X25370000Y-155741400D01*
X25370000Y-154766400D01*
X25147155Y-154766400D01*
X25087627Y-154772801D01*
X25087616Y-154772804D01*
X25028332Y-154794915D01*
X24958640Y-154799899D01*
X24941668Y-154794915D01*
X24882383Y-154772804D01*
X24882372Y-154772801D01*
X24822844Y-154766400D01*
X24600000Y-154766400D01*
X24600000Y-155741400D01*
X24100000Y-155741400D01*
X24100000Y-154766400D01*
X23877155Y-154766400D01*
X23817627Y-154772801D01*
X23817616Y-154772804D01*
X23758332Y-154794915D01*
X23688640Y-154799899D01*
X23671668Y-154794915D01*
X23612383Y-154772804D01*
X23612372Y-154772801D01*
X23552844Y-154766400D01*
X23330000Y-154766400D01*
X23330000Y-155741400D01*
X22830000Y-155741400D01*
X22830000Y-154766400D01*
X22607155Y-154766400D01*
X22547627Y-154772801D01*
X22547620Y-154772803D01*
X22412913Y-154823045D01*
X22412906Y-154823049D01*
X22297812Y-154909209D01*
X22297809Y-154909212D01*
X22211649Y-155024306D01*
X22211645Y-155024313D01*
X22161403Y-155159020D01*
X22161401Y-155159027D01*
X22155000Y-155218555D01*
X20396700Y-155218555D01*
X20396700Y-152650904D01*
X20416385Y-152583865D01*
X20469189Y-152538110D01*
X20538347Y-152528166D01*
X20601903Y-152557191D01*
X20626239Y-152585807D01*
X20702684Y-152709745D01*
X20826654Y-152833715D01*
X20975875Y-152925756D01*
X20975880Y-152925758D01*
X21142302Y-152980905D01*
X21142309Y-152980906D01*
X21245019Y-152991399D01*
X21394999Y-152991399D01*
X21395000Y-152991398D01*
X21395000Y-151915400D01*
X21414685Y-151848361D01*
X21467489Y-151802606D01*
X21519000Y-151791400D01*
X21771000Y-151791400D01*
X21838039Y-151811085D01*
X21883794Y-151863889D01*
X21895000Y-151915400D01*
X21895000Y-152991399D01*
X22044972Y-152991399D01*
X22044986Y-152991398D01*
X22147697Y-152980905D01*
X22314119Y-152925758D01*
X22314124Y-152925756D01*
X22463342Y-152833717D01*
X22556964Y-152740095D01*
X22618287Y-152706610D01*
X22687979Y-152711594D01*
X22732327Y-152740095D01*
X22826344Y-152834112D01*
X22975666Y-152926214D01*
X23142203Y-152981399D01*
X23244991Y-152991900D01*
X23734675Y-152991899D01*
X23801714Y-153011583D01*
X23847469Y-153064387D01*
X23857413Y-153133546D01*
X23856293Y-153140089D01*
X23851700Y-153163180D01*
X23851700Y-153336820D01*
X23851700Y-153336822D01*
X23851699Y-153336822D01*
X23885574Y-153507118D01*
X23885577Y-153507128D01*
X23952021Y-153667540D01*
X23952028Y-153667553D01*
X24048493Y-153811922D01*
X24048496Y-153811926D01*
X24171273Y-153934703D01*
X24171277Y-153934706D01*
X24315646Y-154031171D01*
X24315659Y-154031178D01*
X24437149Y-154081500D01*
X24476076Y-154097624D01*
X24476080Y-154097624D01*
X24476081Y-154097625D01*
X24646377Y-154131500D01*
X24646380Y-154131500D01*
X24820022Y-154131500D01*
X24934594Y-154108709D01*
X24990324Y-154097624D01*
X25150747Y-154031175D01*
X25295123Y-153934706D01*
X25391411Y-153838417D01*
X25452732Y-153804934D01*
X25479091Y-153802100D01*
X30704109Y-153802100D01*
X30771148Y-153821785D01*
X30791791Y-153838420D01*
X30838073Y-153884703D01*
X30838077Y-153884706D01*
X30982446Y-153981171D01*
X30982459Y-153981178D01*
X31142871Y-154047622D01*
X31142876Y-154047624D01*
X31142880Y-154047624D01*
X31142881Y-154047625D01*
X31313177Y-154081500D01*
X31313180Y-154081500D01*
X31486822Y-154081500D01*
X31601394Y-154058709D01*
X31657124Y-154047624D01*
X31817547Y-153981175D01*
X31961923Y-153884706D01*
X31961926Y-153884703D01*
X31967577Y-153879053D01*
X32028900Y-153845568D01*
X32055258Y-153842734D01*
X37512103Y-153842734D01*
X37579142Y-153862419D01*
X37613470Y-153899597D01*
X37615440Y-153898282D01*
X37715293Y-154047722D01*
X37715296Y-154047726D01*
X37838073Y-154170503D01*
X37838077Y-154170506D01*
X37982446Y-154266971D01*
X37982459Y-154266978D01*
X38138221Y-154331496D01*
X38142876Y-154333424D01*
X38142880Y-154333424D01*
X38142881Y-154333425D01*
X38313177Y-154367300D01*
X38313180Y-154367300D01*
X38486822Y-154367300D01*
X38601394Y-154344509D01*
X38657124Y-154333424D01*
X38817547Y-154266975D01*
X38961923Y-154170506D01*
X39084706Y-154047723D01*
X39181175Y-153903347D01*
X39247624Y-153742924D01*
X39281500Y-153572620D01*
X39281500Y-153398980D01*
X39281500Y-153398977D01*
X39247625Y-153228681D01*
X39247624Y-153228680D01*
X39247624Y-153228676D01*
X39220495Y-153163180D01*
X39199565Y-153112649D01*
X39192096Y-153043180D01*
X39223372Y-152980701D01*
X39257362Y-152954952D01*
X39265944Y-152950532D01*
X39339334Y-152926214D01*
X39471488Y-152844701D01*
X39475736Y-152842514D01*
X39505528Y-152836788D01*
X39534796Y-152828780D01*
X39539701Y-152830220D01*
X39544350Y-152829327D01*
X39565396Y-152837764D01*
X39597594Y-152847219D01*
X39725666Y-152926214D01*
X39892203Y-152981399D01*
X39994991Y-152991900D01*
X40795008Y-152991899D01*
X40795016Y-152991898D01*
X40795019Y-152991898D01*
X40851317Y-152986147D01*
X40897797Y-152981399D01*
X41064334Y-152926214D01*
X41213656Y-152834112D01*
X41307319Y-152740449D01*
X41368642Y-152706964D01*
X41438334Y-152711948D01*
X41482681Y-152740449D01*
X41576344Y-152834112D01*
X41725666Y-152926214D01*
X41892203Y-152981399D01*
X41994991Y-152991900D01*
X42795008Y-152991899D01*
X42795016Y-152991898D01*
X42795019Y-152991898D01*
X42851317Y-152986147D01*
X42897797Y-152981399D01*
X43064334Y-152926214D01*
X43213656Y-152834112D01*
X43337712Y-152710056D01*
X43429814Y-152560734D01*
X43484999Y-152394197D01*
X43495500Y-152291409D01*
X43495499Y-151291392D01*
X43489708Y-151234706D01*
X43484999Y-151188603D01*
X43476715Y-151163603D01*
X43444074Y-151065102D01*
X43441673Y-150995276D01*
X43477404Y-150935234D01*
X43539925Y-150904041D01*
X43561781Y-150902100D01*
X52599240Y-150902100D01*
X52666279Y-150921785D01*
X52686921Y-150938419D01*
X65784721Y-164036219D01*
X65818206Y-164097542D01*
X65813222Y-164167234D01*
X65771350Y-164223167D01*
X65705886Y-164247584D01*
X65697040Y-164247900D01*
X59511820Y-164247900D01*
X59444781Y-164228215D01*
X59399026Y-164175411D01*
X59390566Y-164149853D01*
X59389999Y-164147206D01*
X59389999Y-164147203D01*
X59334814Y-163980666D01*
X59242712Y-163831344D01*
X59118656Y-163707288D01*
X58969334Y-163615186D01*
X58802797Y-163560001D01*
X58802795Y-163560000D01*
X58700010Y-163549500D01*
X57499998Y-163549500D01*
X57499981Y-163549501D01*
X57397203Y-163560000D01*
X57397200Y-163560001D01*
X57230668Y-163615185D01*
X57230663Y-163615187D01*
X57081342Y-163707289D01*
X56957289Y-163831342D01*
X56865187Y-163980663D01*
X56865185Y-163980668D01*
X56810000Y-164147206D01*
X56809431Y-164149866D01*
X56808628Y-164151347D01*
X56807872Y-164153630D01*
X56807464Y-164153495D01*
X56776145Y-164211297D01*
X56714930Y-164244980D01*
X56688180Y-164247900D01*
X51134932Y-164247900D01*
X51067893Y-164228215D01*
X51029938Y-164189872D01*
X51022604Y-164178200D01*
X50942523Y-164050752D01*
X50767416Y-163831175D01*
X50568825Y-163632584D01*
X50547007Y-163615185D01*
X50477809Y-163560001D01*
X50349248Y-163457477D01*
X50111445Y-163308055D01*
X50111442Y-163308053D01*
X49858411Y-163186200D01*
X49729355Y-163141041D01*
X49672579Y-163100319D01*
X49646832Y-163035367D01*
X49660288Y-162966805D01*
X49708676Y-162916402D01*
X49770310Y-162900000D01*
X50104706Y-162900000D01*
X50104719Y-162899999D01*
X50237906Y-162889517D01*
X50237912Y-162889516D01*
X50457829Y-162834101D01*
X50457832Y-162834100D01*
X50664330Y-162740304D01*
X50664336Y-162740301D01*
X50850758Y-162611148D01*
X50850770Y-162611138D01*
X51011138Y-162450770D01*
X51011148Y-162450758D01*
X51107558Y-162311599D01*
X51140301Y-162264336D01*
X51140304Y-162264330D01*
X51234100Y-162057832D01*
X51234101Y-162057829D01*
X51289516Y-161837912D01*
X51289517Y-161837906D01*
X51299999Y-161704719D01*
X51300000Y-161704706D01*
X51300000Y-161247682D01*
X56800000Y-161247682D01*
X56800000Y-161452317D01*
X56832009Y-161654417D01*
X56895244Y-161849031D01*
X56988141Y-162031350D01*
X56988147Y-162031359D01*
X57020523Y-162075921D01*
X57020524Y-162075922D01*
X57700000Y-161396446D01*
X57700000Y-161402661D01*
X57727259Y-161504394D01*
X57779920Y-161595606D01*
X57854394Y-161670080D01*
X57945606Y-161722741D01*
X58047339Y-161750000D01*
X58053553Y-161750000D01*
X57374076Y-162429474D01*
X57418650Y-162461859D01*
X57600968Y-162554755D01*
X57795582Y-162617990D01*
X57997683Y-162650000D01*
X58202317Y-162650000D01*
X58404417Y-162617990D01*
X58599031Y-162554755D01*
X58781349Y-162461859D01*
X58825921Y-162429474D01*
X58146447Y-161750000D01*
X58152661Y-161750000D01*
X58254394Y-161722741D01*
X58345606Y-161670080D01*
X58420080Y-161595606D01*
X58472741Y-161504394D01*
X58500000Y-161402661D01*
X58500000Y-161396447D01*
X59179474Y-162075921D01*
X59211859Y-162031349D01*
X59304755Y-161849031D01*
X59367990Y-161654417D01*
X59400000Y-161452317D01*
X59400000Y-161247682D01*
X59367990Y-161045582D01*
X59304755Y-160850968D01*
X59211859Y-160668650D01*
X59179474Y-160624077D01*
X59179474Y-160624076D01*
X58500000Y-161303551D01*
X58500000Y-161297339D01*
X58472741Y-161195606D01*
X58420080Y-161104394D01*
X58345606Y-161029920D01*
X58254394Y-160977259D01*
X58152661Y-160950000D01*
X58146446Y-160950000D01*
X58825922Y-160270524D01*
X58825921Y-160270523D01*
X58781359Y-160238147D01*
X58781350Y-160238141D01*
X58599031Y-160145244D01*
X58404417Y-160082009D01*
X58202317Y-160050000D01*
X57997683Y-160050000D01*
X57795582Y-160082009D01*
X57600968Y-160145244D01*
X57418644Y-160238143D01*
X57374077Y-160270523D01*
X57374077Y-160270524D01*
X58053554Y-160950000D01*
X58047339Y-160950000D01*
X57945606Y-160977259D01*
X57854394Y-161029920D01*
X57779920Y-161104394D01*
X57727259Y-161195606D01*
X57700000Y-161297339D01*
X57700000Y-161303553D01*
X57020524Y-160624077D01*
X57020523Y-160624077D01*
X56988143Y-160668644D01*
X56895244Y-160850968D01*
X56832009Y-161045582D01*
X56800000Y-161247682D01*
X51300000Y-161247682D01*
X51300000Y-160750000D01*
X50227231Y-160750000D01*
X50250000Y-160606247D01*
X50250000Y-160393753D01*
X50227231Y-160250000D01*
X51300000Y-160250000D01*
X51300000Y-159295293D01*
X51299999Y-159295280D01*
X51289517Y-159162093D01*
X51289516Y-159162087D01*
X51234101Y-158942170D01*
X51234100Y-158942167D01*
X51140304Y-158735669D01*
X51140301Y-158735663D01*
X51011148Y-158549241D01*
X51011138Y-158549229D01*
X50850770Y-158388861D01*
X50850758Y-158388851D01*
X50664336Y-158259698D01*
X50664330Y-158259695D01*
X50457832Y-158165899D01*
X50457829Y-158165898D01*
X50237912Y-158110483D01*
X50237906Y-158110482D01*
X50104719Y-158100000D01*
X49150000Y-158100000D01*
X49150000Y-159172768D01*
X49006247Y-159150000D01*
X48793753Y-159150000D01*
X48650000Y-159172768D01*
X48650000Y-158100000D01*
X47695280Y-158100000D01*
X47562093Y-158110482D01*
X47562087Y-158110483D01*
X47342170Y-158165898D01*
X47342167Y-158165899D01*
X47135669Y-158259695D01*
X47135663Y-158259698D01*
X46949241Y-158388851D01*
X46949229Y-158388861D01*
X46788861Y-158549229D01*
X46788851Y-158549241D01*
X46659698Y-158735663D01*
X46659695Y-158735669D01*
X46565899Y-158942167D01*
X46565898Y-158942170D01*
X46510483Y-159162087D01*
X46510482Y-159162093D01*
X46500000Y-159295280D01*
X46500000Y-160250000D01*
X47572769Y-160250000D01*
X47550000Y-160393753D01*
X47550000Y-160606247D01*
X47572769Y-160750000D01*
X46500000Y-160750000D01*
X46500000Y-161704719D01*
X46510482Y-161837906D01*
X46510483Y-161837912D01*
X46565898Y-162057829D01*
X46565899Y-162057832D01*
X46659695Y-162264330D01*
X46659698Y-162264336D01*
X46788851Y-162450758D01*
X46788861Y-162450770D01*
X46949229Y-162611138D01*
X46949241Y-162611148D01*
X47135663Y-162740301D01*
X47135669Y-162740304D01*
X47342167Y-162834100D01*
X47342170Y-162834101D01*
X47562087Y-162889516D01*
X47562093Y-162889517D01*
X47695280Y-162899999D01*
X47695294Y-162900000D01*
X48029690Y-162900000D01*
X48096729Y-162919685D01*
X48142484Y-162972489D01*
X48152428Y-163041647D01*
X48123403Y-163105203D01*
X48070645Y-163141041D01*
X47941588Y-163186200D01*
X47688557Y-163308053D01*
X47450753Y-163457476D01*
X47231175Y-163632583D01*
X42559178Y-168304581D01*
X42497855Y-168338066D01*
X42471497Y-168340900D01*
X42139500Y-168340900D01*
X42130814Y-168338349D01*
X42121854Y-168339638D01*
X42097812Y-168328659D01*
X42072461Y-168321215D01*
X42066534Y-168314375D01*
X42058298Y-168310614D01*
X42044007Y-168288378D01*
X42026706Y-168268411D01*
X42024418Y-168257898D01*
X42020523Y-168251836D01*
X42015500Y-168216901D01*
X42015499Y-168131049D01*
X42035183Y-168064010D01*
X42072246Y-168028671D01*
X42071847Y-168028150D01*
X42076697Y-168024427D01*
X42077506Y-168023657D01*
X42078298Y-168023200D01*
X42190400Y-167911098D01*
X42341800Y-167759698D01*
X42359389Y-167729232D01*
X42421067Y-167622402D01*
X42462100Y-167469268D01*
X42462100Y-164948399D01*
X42468394Y-164909395D01*
X42489999Y-164844197D01*
X42500500Y-164741409D01*
X42500499Y-163741392D01*
X42489999Y-163638603D01*
X42434814Y-163472066D01*
X42342712Y-163322744D01*
X42218656Y-163198688D01*
X42093415Y-163121439D01*
X42069336Y-163106587D01*
X42069331Y-163106585D01*
X42029662Y-163093440D01*
X41902797Y-163051401D01*
X41902795Y-163051400D01*
X41800016Y-163040900D01*
X41631165Y-163040900D01*
X41564126Y-163021215D01*
X41518371Y-162968411D01*
X41508427Y-162899253D01*
X41537452Y-162835697D01*
X41574871Y-162806415D01*
X41745403Y-162719525D01*
X41745402Y-162719525D01*
X41745405Y-162719524D01*
X41904646Y-162603828D01*
X42043828Y-162464646D01*
X42159524Y-162305405D01*
X42248884Y-162130025D01*
X42309709Y-161942826D01*
X42324411Y-161850000D01*
X42340500Y-161748422D01*
X42340500Y-161551577D01*
X42309709Y-161357173D01*
X42248882Y-161169970D01*
X42180618Y-161035995D01*
X42159524Y-160994595D01*
X42059180Y-160856484D01*
X42035701Y-160790680D01*
X42035499Y-160783600D01*
X42035499Y-157327129D01*
X42035498Y-157327123D01*
X42035497Y-157327116D01*
X42029091Y-157267517D01*
X42025883Y-157258917D01*
X41978797Y-157132671D01*
X41978795Y-157132668D01*
X41974502Y-157126933D01*
X41943823Y-157085951D01*
X41919406Y-157020489D01*
X41934257Y-156952216D01*
X41943815Y-156937341D01*
X41958796Y-156917331D01*
X42009091Y-156782483D01*
X42015500Y-156722873D01*
X42015499Y-155177128D01*
X42009091Y-155117517D01*
X42005924Y-155109027D01*
X41958797Y-154982671D01*
X41958793Y-154982664D01*
X41872547Y-154867455D01*
X41872544Y-154867452D01*
X41757335Y-154781206D01*
X41757328Y-154781202D01*
X41622482Y-154730908D01*
X41622483Y-154730908D01*
X41562883Y-154724501D01*
X41562881Y-154724500D01*
X41562873Y-154724500D01*
X41562864Y-154724500D01*
X40617129Y-154724500D01*
X40617123Y-154724501D01*
X40557518Y-154730908D01*
X40497616Y-154753250D01*
X40427925Y-154758233D01*
X40410952Y-154753249D01*
X40352380Y-154731403D01*
X40352372Y-154731401D01*
X40292844Y-154725000D01*
X40070000Y-154725000D01*
X40070000Y-155826000D01*
X40050315Y-155893039D01*
X39997511Y-155938794D01*
X39946000Y-155950000D01*
X39820000Y-155950000D01*
X39820000Y-156076000D01*
X39800315Y-156143039D01*
X39747511Y-156188794D01*
X39696000Y-156200000D01*
X36355000Y-156200000D01*
X36355000Y-156722844D01*
X36361401Y-156782372D01*
X36361403Y-156782379D01*
X36411645Y-156917086D01*
X36411649Y-156917093D01*
X36426487Y-156936914D01*
X36450904Y-157002378D01*
X36436052Y-157070651D01*
X36426488Y-157085533D01*
X36391205Y-157132665D01*
X36391202Y-157132671D01*
X36340908Y-157267517D01*
X36334501Y-157327116D01*
X36334501Y-157327123D01*
X36334500Y-157327135D01*
X36334500Y-160783601D01*
X36314815Y-160850640D01*
X36310818Y-160856487D01*
X36210476Y-160994594D01*
X36121117Y-161169970D01*
X36060290Y-161357173D01*
X36029500Y-161551577D01*
X36029500Y-164018422D01*
X36051733Y-164158803D01*
X36051733Y-164197597D01*
X36029500Y-164337977D01*
X36029500Y-167639822D01*
X36060290Y-167834226D01*
X36121118Y-168021432D01*
X36198400Y-168173106D01*
X36211296Y-168241775D01*
X36185019Y-168306515D01*
X36127913Y-168346772D01*
X36087915Y-168353400D01*
X35089500Y-168353400D01*
X35080814Y-168350849D01*
X35071856Y-168352138D01*
X35047816Y-168341160D01*
X35022461Y-168333715D01*
X35016534Y-168326875D01*
X35008300Y-168323115D01*
X34994010Y-168300881D01*
X34976706Y-168280911D01*
X34974418Y-168270397D01*
X34970524Y-168264338D01*
X34965500Y-168229404D01*
X34965499Y-168194069D01*
X34985182Y-168127028D01*
X35027499Y-168086678D01*
X35115798Y-168035700D01*
X35227900Y-167923598D01*
X35291800Y-167859698D01*
X35301383Y-167843100D01*
X35371067Y-167722402D01*
X35412100Y-167569268D01*
X35412100Y-165057725D01*
X35430562Y-164992627D01*
X35434814Y-164985734D01*
X35489999Y-164819197D01*
X35500500Y-164716409D01*
X35500499Y-163716392D01*
X35492552Y-163638600D01*
X35489999Y-163613603D01*
X35489998Y-163613600D01*
X35472237Y-163560001D01*
X35434814Y-163447066D01*
X35342712Y-163297744D01*
X35218656Y-163173688D01*
X35108434Y-163105703D01*
X35069336Y-163081587D01*
X35069331Y-163081585D01*
X35038036Y-163071215D01*
X34902797Y-163026401D01*
X34902795Y-163026400D01*
X34800016Y-163015900D01*
X34588352Y-163015900D01*
X34521313Y-162996215D01*
X34475558Y-162943411D01*
X34465614Y-162874253D01*
X34494639Y-162810697D01*
X34532058Y-162781415D01*
X34670403Y-162710925D01*
X34670402Y-162710925D01*
X34670405Y-162710924D01*
X34829646Y-162595228D01*
X34968828Y-162456046D01*
X35084524Y-162296805D01*
X35173884Y-162121425D01*
X35234709Y-161934226D01*
X35248049Y-161850000D01*
X35265500Y-161739822D01*
X35265500Y-161542977D01*
X35234709Y-161348573D01*
X35190128Y-161211370D01*
X35173884Y-161161375D01*
X35173882Y-161161372D01*
X35173882Y-161161370D01*
X35110000Y-161035995D01*
X35084524Y-160985995D01*
X34984180Y-160847884D01*
X34960701Y-160782080D01*
X34960499Y-160775000D01*
X34960499Y-157318529D01*
X34960498Y-157318523D01*
X34960497Y-157318516D01*
X34954091Y-157258917D01*
X34922444Y-157174068D01*
X34903797Y-157124071D01*
X34903795Y-157124068D01*
X34868824Y-157077353D01*
X34844406Y-157011889D01*
X34859257Y-156943616D01*
X34868815Y-156928741D01*
X34883796Y-156908731D01*
X34934091Y-156773883D01*
X34940500Y-156714273D01*
X34940499Y-155177155D01*
X36355000Y-155177155D01*
X36355000Y-155700000D01*
X37030000Y-155700000D01*
X37530000Y-155700000D01*
X38300000Y-155700000D01*
X38800000Y-155700000D01*
X39570000Y-155700000D01*
X39570000Y-154725000D01*
X39347155Y-154725000D01*
X39287627Y-154731401D01*
X39287616Y-154731404D01*
X39228332Y-154753515D01*
X39158640Y-154758499D01*
X39141668Y-154753515D01*
X39082383Y-154731404D01*
X39082372Y-154731401D01*
X39022844Y-154725000D01*
X38800000Y-154725000D01*
X38800000Y-155700000D01*
X38300000Y-155700000D01*
X38300000Y-154725000D01*
X38077155Y-154725000D01*
X38017627Y-154731401D01*
X38017616Y-154731404D01*
X37958332Y-154753515D01*
X37888640Y-154758499D01*
X37871668Y-154753515D01*
X37812383Y-154731404D01*
X37812372Y-154731401D01*
X37752844Y-154725000D01*
X37530000Y-154725000D01*
X37530000Y-155700000D01*
X37030000Y-155700000D01*
X37030000Y-154725000D01*
X36807155Y-154725000D01*
X36747627Y-154731401D01*
X36747620Y-154731403D01*
X36612913Y-154781645D01*
X36612906Y-154781649D01*
X36497812Y-154867809D01*
X36497809Y-154867812D01*
X36411649Y-154982906D01*
X36411645Y-154982913D01*
X36361403Y-155117620D01*
X36361401Y-155117627D01*
X36355000Y-155177155D01*
X34940499Y-155177155D01*
X34940499Y-155168528D01*
X34934091Y-155108917D01*
X34931892Y-155103022D01*
X34883797Y-154974071D01*
X34883793Y-154974064D01*
X34797547Y-154858855D01*
X34797544Y-154858852D01*
X34682335Y-154772606D01*
X34682328Y-154772602D01*
X34547482Y-154722308D01*
X34547483Y-154722308D01*
X34487883Y-154715901D01*
X34487881Y-154715900D01*
X34487873Y-154715900D01*
X34487864Y-154715900D01*
X33542129Y-154715900D01*
X33542123Y-154715901D01*
X33482518Y-154722308D01*
X33422616Y-154744650D01*
X33352925Y-154749633D01*
X33335952Y-154744649D01*
X33277380Y-154722803D01*
X33277372Y-154722801D01*
X33217844Y-154716400D01*
X32995000Y-154716400D01*
X32995000Y-155817400D01*
X32975315Y-155884439D01*
X32922511Y-155930194D01*
X32871000Y-155941400D01*
X32745000Y-155941400D01*
X32745000Y-156067400D01*
X32725315Y-156134439D01*
X32672511Y-156180194D01*
X32621000Y-156191400D01*
X29280000Y-156191400D01*
X29280000Y-156714244D01*
X29286401Y-156773772D01*
X29286403Y-156773779D01*
X29336645Y-156908486D01*
X29336649Y-156908493D01*
X29351487Y-156928314D01*
X29375904Y-156993778D01*
X29361052Y-157062051D01*
X29351488Y-157076933D01*
X29316205Y-157124065D01*
X29316202Y-157124071D01*
X29265908Y-157258917D01*
X29259713Y-157316547D01*
X29259501Y-157318523D01*
X29259500Y-157318535D01*
X29259500Y-160775001D01*
X29239815Y-160842040D01*
X29235818Y-160847887D01*
X29135476Y-160985994D01*
X29046117Y-161161369D01*
X28985290Y-161348573D01*
X28954500Y-161542977D01*
X28954500Y-161739818D01*
X28957973Y-161761743D01*
X28959500Y-161781144D01*
X28959500Y-164339821D01*
X28977973Y-164456451D01*
X28979500Y-164475850D01*
X28979500Y-167652322D01*
X29010290Y-167846726D01*
X29071117Y-168033929D01*
X29123536Y-168136805D01*
X29160476Y-168209305D01*
X29160478Y-168209307D01*
X29161139Y-168210605D01*
X29174035Y-168279274D01*
X29147759Y-168344015D01*
X29090652Y-168384272D01*
X29050654Y-168390900D01*
X28019500Y-168390900D01*
X28010814Y-168388349D01*
X28001854Y-168389638D01*
X27977815Y-168378659D01*
X27952461Y-168371215D01*
X27946533Y-168364373D01*
X27938298Y-168360613D01*
X27924009Y-168338379D01*
X27906706Y-168318411D01*
X27904418Y-168307897D01*
X27900523Y-168301836D01*
X27895500Y-168266901D01*
X27895499Y-168107361D01*
X27915183Y-168040321D01*
X27931819Y-168019678D01*
X27949382Y-168002116D01*
X27990400Y-167961098D01*
X28116800Y-167834698D01*
X28196068Y-167697401D01*
X28237100Y-167544268D01*
X28237100Y-167385732D01*
X28237100Y-165173257D01*
X28255560Y-165108161D01*
X28284814Y-165060734D01*
X28339999Y-164894197D01*
X28350500Y-164791409D01*
X28350499Y-163791392D01*
X28345391Y-163741392D01*
X28339999Y-163688603D01*
X28339998Y-163688600D01*
X28284814Y-163522066D01*
X28192712Y-163372744D01*
X28068656Y-163248688D01*
X27919334Y-163156586D01*
X27752797Y-163101401D01*
X27752795Y-163101400D01*
X27650016Y-163090900D01*
X27412388Y-163090900D01*
X27345349Y-163071215D01*
X27299594Y-163018411D01*
X27289650Y-162949253D01*
X27318675Y-162885697D01*
X27366345Y-162854110D01*
X27365532Y-162852145D01*
X27370015Y-162850287D01*
X27370025Y-162850284D01*
X27545405Y-162760924D01*
X27704646Y-162645228D01*
X27843828Y-162506046D01*
X27959524Y-162346805D01*
X28048884Y-162171425D01*
X28109709Y-161984226D01*
X28117628Y-161934226D01*
X28140500Y-161789822D01*
X28140500Y-161592977D01*
X28109709Y-161398573D01*
X28058916Y-161242251D01*
X28048884Y-161211375D01*
X28048882Y-161211372D01*
X28048882Y-161211370D01*
X27994375Y-161104394D01*
X27959524Y-161035995D01*
X27859180Y-160897884D01*
X27835701Y-160832080D01*
X27835499Y-160825000D01*
X27835499Y-157368529D01*
X27835498Y-157368523D01*
X27835497Y-157368516D01*
X27829091Y-157308917D01*
X27813649Y-157267516D01*
X27778797Y-157174071D01*
X27778795Y-157174068D01*
X27743824Y-157127353D01*
X27719406Y-157061889D01*
X27734257Y-156993616D01*
X27743815Y-156978741D01*
X27758796Y-156958731D01*
X27809091Y-156823883D01*
X27815500Y-156764273D01*
X27815499Y-155218528D01*
X27814643Y-155210571D01*
X27811197Y-155178503D01*
X27810127Y-155168555D01*
X29280000Y-155168555D01*
X29280000Y-155691400D01*
X29955000Y-155691400D01*
X30455000Y-155691400D01*
X31225000Y-155691400D01*
X31725000Y-155691400D01*
X32495000Y-155691400D01*
X32495000Y-154716400D01*
X32272155Y-154716400D01*
X32212627Y-154722801D01*
X32212616Y-154722804D01*
X32153332Y-154744915D01*
X32083640Y-154749899D01*
X32066668Y-154744915D01*
X32007383Y-154722804D01*
X32007372Y-154722801D01*
X31947844Y-154716400D01*
X31725000Y-154716400D01*
X31725000Y-155691400D01*
X31225000Y-155691400D01*
X31225000Y-154716400D01*
X31002155Y-154716400D01*
X30942627Y-154722801D01*
X30942616Y-154722804D01*
X30883332Y-154744915D01*
X30813640Y-154749899D01*
X30796668Y-154744915D01*
X30737383Y-154722804D01*
X30737372Y-154722801D01*
X30677844Y-154716400D01*
X30455000Y-154716400D01*
X30455000Y-155691400D01*
X29955000Y-155691400D01*
X29955000Y-154716400D01*
X29732155Y-154716400D01*
X29672627Y-154722801D01*
X29672620Y-154722803D01*
X29537913Y-154773045D01*
X29537906Y-154773049D01*
X29422812Y-154859209D01*
X29422809Y-154859212D01*
X29336649Y-154974306D01*
X29336645Y-154974313D01*
X29286403Y-155109020D01*
X29286401Y-155109027D01*
X29280000Y-155168555D01*
X27810127Y-155168555D01*
X27810124Y-155168527D01*
X27809091Y-155158917D01*
X27758887Y-155024313D01*
X27758797Y-155024071D01*
X27758793Y-155024064D01*
X27672547Y-154908855D01*
X27672544Y-154908852D01*
X27557335Y-154822606D01*
X27557328Y-154822602D01*
X27422482Y-154772308D01*
X27422483Y-154772308D01*
X27362883Y-154765901D01*
X27362881Y-154765900D01*
X27362873Y-154765900D01*
X27362864Y-154765900D01*
X26417129Y-154765900D01*
X26417123Y-154765901D01*
X26357518Y-154772308D01*
X26297616Y-154794650D01*
X26227925Y-154799633D01*
X26210952Y-154794649D01*
X26152380Y-154772803D01*
X26152372Y-154772801D01*
X26092844Y-154766400D01*
X25870000Y-154766400D01*
X25870000Y-155867400D01*
X25850315Y-155934439D01*
X25797511Y-155980194D01*
X25746000Y-155991400D01*
X25620000Y-155991400D01*
X25620000Y-156117400D01*
X25600315Y-156184439D01*
X25547511Y-156230194D01*
X25496000Y-156241400D01*
X22155000Y-156241400D01*
X22155000Y-156764244D01*
X22161401Y-156823772D01*
X22161403Y-156823779D01*
X22211645Y-156958486D01*
X22211649Y-156958493D01*
X22226487Y-156978314D01*
X22250904Y-157043778D01*
X22236052Y-157112051D01*
X22226488Y-157126933D01*
X22191205Y-157174065D01*
X22191202Y-157174071D01*
X22140908Y-157308917D01*
X22138950Y-157327135D01*
X22134501Y-157368523D01*
X22134500Y-157368535D01*
X22134500Y-160817063D01*
X22114815Y-160884102D01*
X22098189Y-160904736D01*
X22096174Y-160906750D01*
X22096166Y-160906760D01*
X21980478Y-161065991D01*
X21890669Y-161242251D01*
X21889608Y-161246012D01*
X21830291Y-161428569D01*
X21830291Y-161428572D01*
X21799500Y-161622977D01*
X21799500Y-167579822D01*
X21830290Y-167774226D01*
X21891117Y-167961430D01*
X21971124Y-168118450D01*
X21980476Y-168136805D01*
X22096172Y-168296046D01*
X22096174Y-168296048D01*
X22231886Y-168431760D01*
X22234715Y-168435790D01*
X22237067Y-168437267D01*
X22244828Y-168450194D01*
X22256457Y-168466757D01*
X22258612Y-168471350D01*
X22291204Y-168558731D01*
X22313773Y-168588880D01*
X22319160Y-168600357D01*
X22322635Y-168622862D01*
X22330592Y-168644195D01*
X22327865Y-168656730D01*
X22329823Y-168669409D01*
X22320579Y-168690219D01*
X22315740Y-168712468D01*
X22306176Y-168727350D01*
X22271205Y-168774065D01*
X22271202Y-168774071D01*
X22220908Y-168908917D01*
X22214501Y-168968516D01*
X22214500Y-168968535D01*
X22214500Y-172425001D01*
X22194815Y-172492040D01*
X22190818Y-172497887D01*
X22090476Y-172635994D01*
X22001117Y-172811370D01*
X21940290Y-172998573D01*
X21909500Y-173192977D01*
X21909500Y-173389822D01*
X21940290Y-173584226D01*
X22001117Y-173771429D01*
X22034567Y-173837077D01*
X22090476Y-173946805D01*
X22206172Y-174106046D01*
X22345354Y-174245228D01*
X22504595Y-174360924D01*
X22581840Y-174400282D01*
X22679970Y-174450282D01*
X22679972Y-174450282D01*
X22679975Y-174450284D01*
X22717569Y-174462499D01*
X22867173Y-174511109D01*
X23061578Y-174541900D01*
X23061583Y-174541900D01*
X30290922Y-174541900D01*
X30388121Y-174526504D01*
X30485326Y-174511109D01*
X30487300Y-174510467D01*
X30489348Y-174510143D01*
X30490061Y-174509972D01*
X30490074Y-174510028D01*
X30525613Y-174504400D01*
X34138421Y-174504400D01*
X34196559Y-174495191D01*
X34207699Y-174493426D01*
X34227097Y-174491900D01*
X41188422Y-174491900D01*
X41382826Y-174461109D01*
X41398713Y-174455947D01*
X41570025Y-174400284D01*
X41745405Y-174310924D01*
X41904646Y-174195228D01*
X42043828Y-174056046D01*
X42159524Y-173896805D01*
X42248884Y-173721425D01*
X42309709Y-173534226D01*
X42323603Y-173446502D01*
X42353532Y-173383368D01*
X42412843Y-173346436D01*
X42446076Y-173341900D01*
X43699028Y-173341900D01*
X43699029Y-173341899D01*
X43841655Y-173325829D01*
X43978094Y-173310457D01*
X43978099Y-173310456D01*
X43978109Y-173310455D01*
X44251918Y-173247960D01*
X44517008Y-173155201D01*
X44770045Y-173033345D01*
X45007848Y-172883923D01*
X45227425Y-172708816D01*
X47417270Y-170518971D01*
X82371900Y-170518971D01*
X82371900Y-170755428D01*
X82402761Y-170989835D01*
X82463959Y-171218228D01*
X82554437Y-171436661D01*
X82554441Y-171436671D01*
X82672659Y-171641431D01*
X82816595Y-171829012D01*
X82816601Y-171829019D01*
X82983780Y-171996198D01*
X82983787Y-171996204D01*
X83171368Y-172140140D01*
X83376128Y-172258358D01*
X83376129Y-172258358D01*
X83376132Y-172258360D01*
X83594576Y-172348842D01*
X83822961Y-172410038D01*
X84057379Y-172440900D01*
X84057386Y-172440900D01*
X84293814Y-172440900D01*
X84293821Y-172440900D01*
X84528239Y-172410038D01*
X84756624Y-172348842D01*
X84975068Y-172258360D01*
X85179832Y-172140140D01*
X85367414Y-171996203D01*
X85534603Y-171829014D01*
X85678540Y-171641432D01*
X85796760Y-171436668D01*
X85887242Y-171218224D01*
X85948438Y-170989839D01*
X85979300Y-170755421D01*
X85979300Y-170569771D01*
X104012700Y-170569771D01*
X104012700Y-170806228D01*
X104043561Y-171040635D01*
X104104759Y-171269028D01*
X104195237Y-171487461D01*
X104195241Y-171487471D01*
X104313459Y-171692231D01*
X104457395Y-171879812D01*
X104457401Y-171879819D01*
X104624580Y-172046998D01*
X104624587Y-172047004D01*
X104812168Y-172190940D01*
X105016928Y-172309158D01*
X105016929Y-172309158D01*
X105016932Y-172309160D01*
X105235376Y-172399642D01*
X105463761Y-172460838D01*
X105698179Y-172491700D01*
X105698186Y-172491700D01*
X105934614Y-172491700D01*
X105934621Y-172491700D01*
X106169039Y-172460838D01*
X106397424Y-172399642D01*
X106615868Y-172309160D01*
X106820632Y-172190940D01*
X107008214Y-172047003D01*
X107175403Y-171879814D01*
X107319340Y-171692232D01*
X107437560Y-171487468D01*
X107528042Y-171269024D01*
X107589238Y-171040639D01*
X107620100Y-170806221D01*
X107620100Y-170569779D01*
X107589238Y-170335361D01*
X107528042Y-170106976D01*
X107437560Y-169888532D01*
X107408228Y-169837728D01*
X107319340Y-169683768D01*
X107175404Y-169496187D01*
X107175398Y-169496180D01*
X107008219Y-169329001D01*
X107008212Y-169328995D01*
X106820631Y-169185059D01*
X106615871Y-169066841D01*
X106615861Y-169066837D01*
X106397428Y-168976359D01*
X106169035Y-168915161D01*
X105934628Y-168884300D01*
X105934621Y-168884300D01*
X105698179Y-168884300D01*
X105698171Y-168884300D01*
X105463764Y-168915161D01*
X105235371Y-168976359D01*
X105016938Y-169066837D01*
X105016928Y-169066841D01*
X104812168Y-169185059D01*
X104624587Y-169328995D01*
X104624580Y-169329001D01*
X104457401Y-169496180D01*
X104457395Y-169496187D01*
X104313459Y-169683768D01*
X104195241Y-169888528D01*
X104195237Y-169888538D01*
X104104759Y-170106971D01*
X104043561Y-170335364D01*
X104012700Y-170569771D01*
X85979300Y-170569771D01*
X85979300Y-170518979D01*
X85948438Y-170284561D01*
X85887242Y-170056176D01*
X85796760Y-169837732D01*
X85716570Y-169698839D01*
X85678540Y-169632968D01*
X85534604Y-169445387D01*
X85534598Y-169445380D01*
X85367419Y-169278201D01*
X85367412Y-169278195D01*
X85179831Y-169134259D01*
X84975071Y-169016041D01*
X84975061Y-169016037D01*
X84756628Y-168925559D01*
X84528235Y-168864361D01*
X84293828Y-168833500D01*
X84293821Y-168833500D01*
X84057379Y-168833500D01*
X84057371Y-168833500D01*
X83822964Y-168864361D01*
X83594571Y-168925559D01*
X83376138Y-169016037D01*
X83376128Y-169016041D01*
X83171368Y-169134259D01*
X82983787Y-169278195D01*
X82983780Y-169278201D01*
X82816601Y-169445380D01*
X82816595Y-169445387D01*
X82672659Y-169632968D01*
X82554441Y-169837728D01*
X82554437Y-169837738D01*
X82463959Y-170056171D01*
X82402761Y-170284564D01*
X82371900Y-170518971D01*
X47417270Y-170518971D01*
X50767416Y-167168825D01*
X50942523Y-166949248D01*
X51091945Y-166711445D01*
X51213801Y-166458408D01*
X51306560Y-166193318D01*
X51369055Y-165919509D01*
X51400500Y-165640425D01*
X51400500Y-165576100D01*
X51420185Y-165509061D01*
X51472989Y-165463306D01*
X51524500Y-165452100D01*
X56688180Y-165452100D01*
X56755219Y-165471785D01*
X56800974Y-165524589D01*
X56809434Y-165550147D01*
X56810002Y-165552801D01*
X56853080Y-165682802D01*
X56865186Y-165719334D01*
X56957288Y-165868656D01*
X57081344Y-165992712D01*
X57230666Y-166084814D01*
X57397203Y-166139999D01*
X57499991Y-166150500D01*
X58700008Y-166150499D01*
X58802797Y-166139999D01*
X58969334Y-166084814D01*
X59118656Y-165992712D01*
X59242712Y-165868656D01*
X59334814Y-165719334D01*
X59389999Y-165552797D01*
X59389999Y-165552789D01*
X59390569Y-165550134D01*
X59391371Y-165548652D01*
X59392128Y-165546370D01*
X59392535Y-165546504D01*
X59423855Y-165488703D01*
X59485070Y-165455020D01*
X59511820Y-165452100D01*
X66574240Y-165452100D01*
X66641279Y-165471785D01*
X66661921Y-165488419D01*
X68457181Y-167283679D01*
X68490666Y-167345002D01*
X68493500Y-167371360D01*
X68493500Y-167436820D01*
X68493500Y-167436822D01*
X68493499Y-167436822D01*
X68527374Y-167607118D01*
X68527377Y-167607128D01*
X68593821Y-167767540D01*
X68593828Y-167767553D01*
X68690293Y-167911922D01*
X68690296Y-167911926D01*
X68813073Y-168034703D01*
X68813077Y-168034706D01*
X68957446Y-168131171D01*
X68957459Y-168131178D01*
X69085098Y-168184047D01*
X69117876Y-168197624D01*
X69117880Y-168197624D01*
X69117881Y-168197625D01*
X69288177Y-168231500D01*
X69288180Y-168231500D01*
X69461822Y-168231500D01*
X69576394Y-168208709D01*
X69632124Y-168197624D01*
X69792547Y-168131175D01*
X69936923Y-168034706D01*
X70059706Y-167911923D01*
X70156175Y-167767547D01*
X70222624Y-167607124D01*
X70256500Y-167436820D01*
X70256500Y-167263180D01*
X70256500Y-167263177D01*
X70222625Y-167092881D01*
X70222624Y-167092880D01*
X70222624Y-167092876D01*
X70163131Y-166949246D01*
X70156178Y-166932459D01*
X70156171Y-166932446D01*
X70097735Y-166844991D01*
X70076857Y-166778314D01*
X70095341Y-166710933D01*
X70147320Y-166664243D01*
X70200837Y-166652100D01*
X121029266Y-166652100D01*
X121029268Y-166652100D01*
X121182402Y-166611067D01*
X121319698Y-166531800D01*
X121431800Y-166419698D01*
X125013079Y-162838419D01*
X125074402Y-162804934D01*
X125100760Y-162802100D01*
X129311666Y-162802100D01*
X129378705Y-162821785D01*
X129424460Y-162874589D01*
X129434404Y-162943747D01*
X129405379Y-163007303D01*
X129349984Y-163044031D01*
X129326982Y-163051504D01*
X129137639Y-163147980D01*
X129083482Y-163187327D01*
X129083482Y-163187328D01*
X129715791Y-163819637D01*
X129652207Y-163836675D01*
X129538193Y-163902501D01*
X129445101Y-163995593D01*
X129379275Y-164109607D01*
X129362237Y-164173191D01*
X128729928Y-163540882D01*
X128729927Y-163540882D01*
X128690580Y-163595039D01*
X128594104Y-163784382D01*
X128528442Y-163986469D01*
X128528442Y-163986472D01*
X128495200Y-164196353D01*
X128495200Y-164408846D01*
X128528442Y-164618727D01*
X128528442Y-164618730D01*
X128594104Y-164820817D01*
X128690575Y-165010150D01*
X128729928Y-165064316D01*
X129362237Y-164432008D01*
X129379275Y-164495593D01*
X129445101Y-164609607D01*
X129538193Y-164702699D01*
X129652207Y-164768525D01*
X129715790Y-164785562D01*
X129083482Y-165417869D01*
X129083482Y-165417870D01*
X129137652Y-165457226D01*
X129137651Y-165457226D01*
X129146695Y-165461834D01*
X129197492Y-165509808D01*
X129214287Y-165577629D01*
X129191750Y-165643764D01*
X129146699Y-165682802D01*
X129137382Y-165687549D01*
X128965413Y-165812490D01*
X128815090Y-165962813D01*
X128690151Y-166134779D01*
X128593644Y-166324185D01*
X128527953Y-166526360D01*
X128494700Y-166736313D01*
X128494700Y-166948886D01*
X128517506Y-167092881D01*
X128527954Y-167158843D01*
X128561855Y-167263180D01*
X128593644Y-167361014D01*
X128690151Y-167550420D01*
X128815090Y-167722386D01*
X128965413Y-167872709D01*
X129137382Y-167997650D01*
X129146146Y-168002116D01*
X129196942Y-168050091D01*
X129213736Y-168117912D01*
X129191198Y-168184047D01*
X129146146Y-168223084D01*
X129137382Y-168227549D01*
X128965413Y-168352490D01*
X128815090Y-168502813D01*
X128690151Y-168674779D01*
X128593644Y-168864185D01*
X128527953Y-169066360D01*
X128494700Y-169276313D01*
X128494700Y-169488886D01*
X128527953Y-169698839D01*
X128593644Y-169901014D01*
X128690151Y-170090420D01*
X128815090Y-170262386D01*
X128928630Y-170375926D01*
X128962115Y-170437249D01*
X128957131Y-170506941D01*
X128915259Y-170562874D01*
X128884283Y-170579789D01*
X128752869Y-170628803D01*
X128752864Y-170628806D01*
X128637655Y-170715052D01*
X128637652Y-170715055D01*
X128551406Y-170830264D01*
X128551402Y-170830271D01*
X128501108Y-170965117D01*
X128494701Y-171024716D01*
X128494701Y-171024723D01*
X128494700Y-171024735D01*
X128494700Y-172820470D01*
X128494701Y-172820476D01*
X128501108Y-172880083D01*
X128551402Y-173014928D01*
X128551406Y-173014935D01*
X128637652Y-173130144D01*
X128637655Y-173130147D01*
X128752864Y-173216393D01*
X128752871Y-173216397D01*
X128887717Y-173266691D01*
X128887716Y-173266691D01*
X128894644Y-173267435D01*
X128947327Y-173273100D01*
X130743072Y-173273099D01*
X130802683Y-173266691D01*
X130937531Y-173216396D01*
X131052746Y-173130146D01*
X131138996Y-173014931D01*
X131189291Y-172880083D01*
X131195700Y-172820473D01*
X131195699Y-171024728D01*
X131189291Y-170965117D01*
X131138996Y-170830269D01*
X131138995Y-170830268D01*
X131138993Y-170830264D01*
X131052747Y-170715055D01*
X131052744Y-170715052D01*
X130937535Y-170628806D01*
X130937528Y-170628802D01*
X130806117Y-170579789D01*
X130750183Y-170537918D01*
X130725766Y-170472453D01*
X130740618Y-170404180D01*
X130761763Y-170375932D01*
X130875304Y-170262392D01*
X131000251Y-170090416D01*
X131096757Y-169901012D01*
X131162446Y-169698843D01*
X131195700Y-169488887D01*
X131195700Y-169276313D01*
X131162446Y-169066357D01*
X131096757Y-168864188D01*
X131000251Y-168674784D01*
X131000249Y-168674781D01*
X131000248Y-168674779D01*
X130875309Y-168502813D01*
X130724986Y-168352490D01*
X130553020Y-168227551D01*
X130552315Y-168227191D01*
X130544254Y-168223085D01*
X130493459Y-168175112D01*
X130476663Y-168107292D01*
X130499199Y-168041156D01*
X130544254Y-168002115D01*
X130553016Y-167997651D01*
X130654942Y-167923598D01*
X130724986Y-167872709D01*
X130724988Y-167872706D01*
X130724992Y-167872704D01*
X130875304Y-167722392D01*
X130875306Y-167722388D01*
X130875309Y-167722386D01*
X131000248Y-167550420D01*
X131000247Y-167550420D01*
X131000251Y-167550416D01*
X131096757Y-167361012D01*
X131162446Y-167158843D01*
X131195700Y-166948887D01*
X131195700Y-166736313D01*
X131162446Y-166526357D01*
X131096757Y-166324188D01*
X131000251Y-166134784D01*
X131000249Y-166134781D01*
X131000248Y-166134779D01*
X130875309Y-165962813D01*
X130724986Y-165812490D01*
X130553017Y-165687549D01*
X130543704Y-165682804D01*
X130492907Y-165634830D01*
X130476112Y-165567009D01*
X130498649Y-165500874D01*
X130543707Y-165461832D01*
X130552755Y-165457222D01*
X130606916Y-165417870D01*
X130606917Y-165417870D01*
X129974608Y-164785562D01*
X130038193Y-164768525D01*
X130152207Y-164702699D01*
X130245299Y-164609607D01*
X130311125Y-164495593D01*
X130328162Y-164432008D01*
X130960470Y-165064317D01*
X130960470Y-165064316D01*
X130999822Y-165010154D01*
X131096295Y-164820817D01*
X131161957Y-164618730D01*
X131161957Y-164618727D01*
X131195200Y-164408846D01*
X131195200Y-164196353D01*
X131161957Y-163986472D01*
X131161957Y-163986469D01*
X131096295Y-163784382D01*
X130999824Y-163595049D01*
X130960470Y-163540882D01*
X130960469Y-163540882D01*
X130328162Y-164173190D01*
X130311125Y-164109607D01*
X130245299Y-163995593D01*
X130152207Y-163902501D01*
X130038193Y-163836675D01*
X129974609Y-163819637D01*
X130606916Y-163187328D01*
X130552750Y-163147975D01*
X130363417Y-163051504D01*
X130340416Y-163044031D01*
X130282741Y-163004594D01*
X130255542Y-162940235D01*
X130267456Y-162871389D01*
X130314700Y-162819913D01*
X130378734Y-162802100D01*
X142029266Y-162802100D01*
X142029268Y-162802100D01*
X142182402Y-162761067D01*
X142319698Y-162681800D01*
X142431800Y-162569698D01*
X145383679Y-159617819D01*
X145445002Y-159584334D01*
X145471360Y-159581500D01*
X145536822Y-159581500D01*
X145651394Y-159558709D01*
X145707124Y-159547624D01*
X145867547Y-159481175D01*
X146011923Y-159384706D01*
X146134706Y-159261923D01*
X146231175Y-159117547D01*
X146297624Y-158957124D01*
X146331500Y-158786820D01*
X146331500Y-158613180D01*
X146331500Y-158613177D01*
X146297625Y-158442881D01*
X146297624Y-158442880D01*
X146297624Y-158442876D01*
X146275410Y-158389246D01*
X146231178Y-158282459D01*
X146231171Y-158282446D01*
X146134706Y-158138077D01*
X146134703Y-158138073D01*
X146011926Y-158015296D01*
X146011922Y-158015293D01*
X145867553Y-157918828D01*
X145867540Y-157918821D01*
X145707128Y-157852377D01*
X145707118Y-157852374D01*
X145536822Y-157818500D01*
X145536820Y-157818500D01*
X145363180Y-157818500D01*
X145363178Y-157818500D01*
X145192881Y-157852374D01*
X145192871Y-157852377D01*
X145032459Y-157918821D01*
X145032446Y-157918828D01*
X144888077Y-158015293D01*
X144888073Y-158015296D01*
X144765296Y-158138073D01*
X144765293Y-158138077D01*
X144668828Y-158282446D01*
X144668821Y-158282459D01*
X144602377Y-158442871D01*
X144602374Y-158442881D01*
X144568500Y-158613177D01*
X144568500Y-158678640D01*
X144548815Y-158745679D01*
X144532181Y-158766321D01*
X141736921Y-161561581D01*
X141675598Y-161595066D01*
X141649240Y-161597900D01*
X124720732Y-161597900D01*
X124644165Y-161618416D01*
X124567596Y-161638933D01*
X124567591Y-161638935D01*
X124449080Y-161707358D01*
X124443501Y-161710579D01*
X124430302Y-161718199D01*
X124430300Y-161718201D01*
X120736921Y-165411581D01*
X120675598Y-165445066D01*
X120649240Y-165447900D01*
X68950760Y-165447900D01*
X68883721Y-165428215D01*
X68863079Y-165411581D01*
X53269702Y-149818203D01*
X53269701Y-149818202D01*
X53269698Y-149818200D01*
X53250430Y-149807076D01*
X53133116Y-149739345D01*
X53132404Y-149738934D01*
X53132403Y-149738933D01*
X53075892Y-149723791D01*
X52979268Y-149697900D01*
X52979266Y-149697900D01*
X39650760Y-149697900D01*
X39583721Y-149678215D01*
X39563079Y-149661581D01*
X37544810Y-147643312D01*
X37511325Y-147581989D01*
X37508491Y-147555631D01*
X37508491Y-147490168D01*
X37474616Y-147319872D01*
X37474615Y-147319871D01*
X37474615Y-147319867D01*
X37462767Y-147291263D01*
X37408169Y-147159450D01*
X37408162Y-147159437D01*
X37311697Y-147015068D01*
X37311694Y-147015064D01*
X37188917Y-146892287D01*
X37188913Y-146892284D01*
X37044544Y-146795819D01*
X37044531Y-146795812D01*
X36884119Y-146729368D01*
X36884109Y-146729365D01*
X36713813Y-146695491D01*
X36713811Y-146695491D01*
X36540171Y-146695491D01*
X36540162Y-146695491D01*
X36538241Y-146695680D01*
X36537245Y-146695491D01*
X36534079Y-146695491D01*
X36534079Y-146694890D01*
X36469596Y-146682654D01*
X36418891Y-146634584D01*
X36402100Y-146572276D01*
X36402100Y-146496126D01*
X36402100Y-146496125D01*
X36361067Y-146342991D01*
X36281800Y-146205695D01*
X36169698Y-146093593D01*
X34788419Y-144712314D01*
X34754934Y-144650991D01*
X34752100Y-144624633D01*
X34752100Y-143836823D01*
X36629486Y-143836823D01*
X36663361Y-144007119D01*
X36663364Y-144007129D01*
X36729808Y-144167541D01*
X36729815Y-144167554D01*
X36826280Y-144311923D01*
X36826283Y-144311927D01*
X36949060Y-144434704D01*
X36949064Y-144434707D01*
X37093433Y-144531172D01*
X37093446Y-144531179D01*
X37253858Y-144597623D01*
X37253863Y-144597625D01*
X37253867Y-144597625D01*
X37253868Y-144597626D01*
X37424164Y-144631501D01*
X37424167Y-144631501D01*
X37597809Y-144631501D01*
X37723554Y-144606488D01*
X37768111Y-144597625D01*
X37928534Y-144531176D01*
X38072910Y-144434707D01*
X38195693Y-144311924D01*
X38292162Y-144167548D01*
X38349696Y-144028648D01*
X38393536Y-143974244D01*
X38459831Y-143952179D01*
X38464257Y-143952100D01*
X39854108Y-143952100D01*
X39921147Y-143971785D01*
X39932976Y-143981317D01*
X39933367Y-143980841D01*
X39938077Y-143984706D01*
X40082446Y-144081171D01*
X40082459Y-144081178D01*
X40242871Y-144147622D01*
X40242876Y-144147624D01*
X40242880Y-144147624D01*
X40242881Y-144147625D01*
X40413177Y-144181500D01*
X40413180Y-144181500D01*
X40586822Y-144181500D01*
X40701394Y-144158709D01*
X40757124Y-144147624D01*
X40917547Y-144081175D01*
X41061923Y-143984706D01*
X41184706Y-143861923D01*
X41281175Y-143717547D01*
X41347624Y-143557124D01*
X41381500Y-143386820D01*
X41381500Y-143213180D01*
X41381500Y-143213177D01*
X41347625Y-143042881D01*
X41347624Y-143042880D01*
X41347624Y-143042876D01*
X41316950Y-142968822D01*
X41281178Y-142882459D01*
X41281171Y-142882446D01*
X41184706Y-142738077D01*
X41184703Y-142738073D01*
X41061926Y-142615296D01*
X41061922Y-142615293D01*
X40917553Y-142518828D01*
X40917540Y-142518821D01*
X40757128Y-142452377D01*
X40757118Y-142452374D01*
X40586822Y-142418500D01*
X40586820Y-142418500D01*
X40413180Y-142418500D01*
X40413178Y-142418500D01*
X40242881Y-142452374D01*
X40242871Y-142452377D01*
X40082459Y-142518821D01*
X40082446Y-142518828D01*
X39938078Y-142615292D01*
X39889934Y-142663436D01*
X39841788Y-142711582D01*
X39780468Y-142745066D01*
X39754109Y-142747900D01*
X37831715Y-142747900D01*
X37766991Y-142765243D01*
X37766990Y-142765242D01*
X37678587Y-142788931D01*
X37678580Y-142788934D01*
X37627894Y-142818198D01*
X37627892Y-142818200D01*
X37569540Y-142851889D01*
X37507541Y-142868501D01*
X37424165Y-142868501D01*
X37253868Y-142902375D01*
X37253858Y-142902378D01*
X37093446Y-142968822D01*
X37093433Y-142968829D01*
X36949064Y-143065294D01*
X36949060Y-143065297D01*
X36826283Y-143188074D01*
X36826280Y-143188078D01*
X36729815Y-143332447D01*
X36729808Y-143332460D01*
X36663364Y-143492872D01*
X36663361Y-143492882D01*
X36629487Y-143663178D01*
X36629487Y-143663181D01*
X36629487Y-143836821D01*
X36629487Y-143836823D01*
X36629486Y-143836823D01*
X34752100Y-143836823D01*
X34752100Y-142330662D01*
X34771785Y-142263623D01*
X34824589Y-142217868D01*
X34893747Y-142207924D01*
X34900292Y-142209045D01*
X35013177Y-142231500D01*
X35013180Y-142231500D01*
X35186822Y-142231500D01*
X35342283Y-142200576D01*
X35357124Y-142197624D01*
X35481196Y-142146231D01*
X35517540Y-142131178D01*
X35517540Y-142131177D01*
X35517547Y-142131175D01*
X35661923Y-142034706D01*
X35708209Y-141988420D01*
X35769532Y-141954934D01*
X35795891Y-141952100D01*
X42754109Y-141952100D01*
X42821148Y-141971785D01*
X42841791Y-141988420D01*
X42888073Y-142034703D01*
X42888077Y-142034706D01*
X43032446Y-142131171D01*
X43032459Y-142131178D01*
X43192871Y-142197622D01*
X43192876Y-142197624D01*
X43192880Y-142197624D01*
X43192881Y-142197625D01*
X43363177Y-142231500D01*
X43363180Y-142231500D01*
X43536822Y-142231500D01*
X43692283Y-142200576D01*
X43707124Y-142197624D01*
X43831196Y-142146231D01*
X43867540Y-142131178D01*
X43867540Y-142131177D01*
X43867547Y-142131175D01*
X44011923Y-142034706D01*
X44134706Y-141911923D01*
X44231175Y-141767547D01*
X44297624Y-141607124D01*
X44331500Y-141436820D01*
X44331500Y-141263180D01*
X44331500Y-141263177D01*
X44297625Y-141092881D01*
X44297624Y-141092880D01*
X44297624Y-141092876D01*
X44245714Y-140967553D01*
X44231178Y-140932459D01*
X44231171Y-140932446D01*
X44134706Y-140788077D01*
X44134703Y-140788073D01*
X44011926Y-140665296D01*
X44011922Y-140665293D01*
X43867553Y-140568828D01*
X43867540Y-140568821D01*
X43707128Y-140502377D01*
X43707118Y-140502374D01*
X43536822Y-140468500D01*
X43536820Y-140468500D01*
X43363180Y-140468500D01*
X43363178Y-140468500D01*
X43192881Y-140502374D01*
X43192871Y-140502377D01*
X43032459Y-140568821D01*
X43032446Y-140568828D01*
X42888077Y-140665293D01*
X42888073Y-140665296D01*
X42841791Y-140711580D01*
X42780468Y-140745066D01*
X42754109Y-140747900D01*
X35795891Y-140747900D01*
X35728852Y-140728215D01*
X35708209Y-140711580D01*
X35661926Y-140665296D01*
X35661922Y-140665293D01*
X35517553Y-140568828D01*
X35517540Y-140568821D01*
X35357128Y-140502377D01*
X35357118Y-140502374D01*
X35186822Y-140468500D01*
X35186820Y-140468500D01*
X35134322Y-140468500D01*
X35067283Y-140448815D01*
X35021528Y-140396011D01*
X35012705Y-140368691D01*
X34997625Y-140292883D01*
X34997625Y-140292881D01*
X34997624Y-140292876D01*
X34997622Y-140292871D01*
X34931178Y-140132459D01*
X34931171Y-140132446D01*
X34834706Y-139988077D01*
X34834703Y-139988073D01*
X34711926Y-139865296D01*
X34711922Y-139865293D01*
X34567553Y-139768828D01*
X34567540Y-139768821D01*
X34407128Y-139702377D01*
X34407118Y-139702374D01*
X34236822Y-139668500D01*
X34236820Y-139668500D01*
X34063180Y-139668500D01*
X34063178Y-139668500D01*
X33892881Y-139702374D01*
X33892871Y-139702377D01*
X33732459Y-139768821D01*
X33732446Y-139768828D01*
X33588077Y-139865293D01*
X33588073Y-139865296D01*
X33465296Y-139988073D01*
X33465293Y-139988077D01*
X33368828Y-140132446D01*
X33368821Y-140132459D01*
X33302377Y-140292871D01*
X33302374Y-140292881D01*
X33268500Y-140463177D01*
X33268500Y-140463180D01*
X33268500Y-140636820D01*
X33268500Y-140636822D01*
X33268499Y-140636822D01*
X33302374Y-140807118D01*
X33302377Y-140807128D01*
X33368821Y-140967540D01*
X33368828Y-140967553D01*
X33465293Y-141111922D01*
X33465296Y-141111926D01*
X33511580Y-141158209D01*
X33545066Y-141219532D01*
X33547900Y-141245891D01*
X33547900Y-145004661D01*
X33555781Y-145034071D01*
X33564093Y-145065092D01*
X33562430Y-145134942D01*
X33523268Y-145192805D01*
X33459039Y-145220309D01*
X33444318Y-145221186D01*
X32997446Y-145221186D01*
X32895356Y-145248541D01*
X32844311Y-145262219D01*
X32707017Y-145341485D01*
X32707014Y-145341487D01*
X30354581Y-147693921D01*
X30293258Y-147727406D01*
X30223566Y-147722422D01*
X30167633Y-147680550D01*
X30143216Y-147615086D01*
X30142900Y-147606240D01*
X30142900Y-139875891D01*
X30162585Y-139808852D01*
X30179220Y-139788209D01*
X30225503Y-139741926D01*
X30225506Y-139741923D01*
X30321975Y-139597547D01*
X30388424Y-139437124D01*
X30422300Y-139266820D01*
X30422300Y-139235111D01*
X30441985Y-139168072D01*
X30494789Y-139122317D01*
X30522109Y-139113494D01*
X30568380Y-139104289D01*
X30657125Y-139086637D01*
X30817548Y-139020188D01*
X30961924Y-138923719D01*
X31084707Y-138800936D01*
X31096897Y-138782691D01*
X31150509Y-138737887D01*
X31219834Y-138729179D01*
X31282862Y-138759333D01*
X31303103Y-138782692D01*
X31315294Y-138800938D01*
X31438072Y-138923716D01*
X31438076Y-138923719D01*
X31582445Y-139020184D01*
X31582458Y-139020191D01*
X31742870Y-139086635D01*
X31742875Y-139086637D01*
X31742879Y-139086637D01*
X31742880Y-139086638D01*
X31913176Y-139120513D01*
X31913179Y-139120513D01*
X32086821Y-139120513D01*
X32201393Y-139097722D01*
X32257123Y-139086637D01*
X32417546Y-139020188D01*
X32561922Y-138923719D01*
X32684705Y-138800936D01*
X32781174Y-138656560D01*
X32847623Y-138496137D01*
X32874882Y-138359100D01*
X32881499Y-138325835D01*
X32881499Y-138260376D01*
X32901184Y-138193337D01*
X32917818Y-138172695D01*
X32976221Y-138114291D01*
X33050600Y-138039913D01*
X33129867Y-137902616D01*
X33170900Y-137749483D01*
X33170900Y-137590947D01*
X33170900Y-136063091D01*
X33190585Y-135996052D01*
X33207220Y-135975409D01*
X33253503Y-135929126D01*
X33253506Y-135929123D01*
X33349975Y-135784747D01*
X33416424Y-135624324D01*
X33450300Y-135454020D01*
X33450300Y-135280380D01*
X33450300Y-135280377D01*
X33416425Y-135110081D01*
X33416424Y-135110080D01*
X33416424Y-135110076D01*
X33416422Y-135110071D01*
X33349978Y-134949659D01*
X33349971Y-134949646D01*
X33253506Y-134805277D01*
X33253503Y-134805273D01*
X33130726Y-134682496D01*
X33130722Y-134682493D01*
X32986353Y-134586028D01*
X32986340Y-134586021D01*
X32825928Y-134519577D01*
X32825918Y-134519574D01*
X32655622Y-134485700D01*
X32655620Y-134485700D01*
X32481980Y-134485700D01*
X32481978Y-134485700D01*
X32311681Y-134519574D01*
X32311671Y-134519577D01*
X32151259Y-134586021D01*
X32151246Y-134586028D01*
X32006873Y-134682495D01*
X32004758Y-134684232D01*
X32003433Y-134684794D01*
X32001812Y-134685878D01*
X32001606Y-134685570D01*
X31940447Y-134711541D01*
X31871580Y-134699746D01*
X31820022Y-134652590D01*
X31802099Y-134588374D01*
X31802099Y-134071025D01*
X31821784Y-134003986D01*
X31874588Y-133958231D01*
X31943746Y-133948287D01*
X32001631Y-133973792D01*
X32001812Y-133973522D01*
X32003349Y-133974549D01*
X32004767Y-133975174D01*
X32006874Y-133976903D01*
X32006877Y-133976906D01*
X32006880Y-133976908D01*
X32151246Y-134073371D01*
X32151259Y-134073378D01*
X32311671Y-134139822D01*
X32311676Y-134139824D01*
X32311680Y-134139824D01*
X32311681Y-134139825D01*
X32481977Y-134173700D01*
X32481980Y-134173700D01*
X32655622Y-134173700D01*
X32770194Y-134150909D01*
X32825924Y-134139824D01*
X32986347Y-134073375D01*
X33130723Y-133976906D01*
X33253506Y-133854123D01*
X33349975Y-133709747D01*
X33416424Y-133549324D01*
X33450300Y-133379020D01*
X33450300Y-133205380D01*
X33450300Y-133205377D01*
X33416425Y-133035081D01*
X33416424Y-133035080D01*
X33416424Y-133035076D01*
X33416422Y-133035071D01*
X33349978Y-132874659D01*
X33349971Y-132874646D01*
X33253506Y-132730277D01*
X33253503Y-132730273D01*
X33130726Y-132607496D01*
X33130722Y-132607493D01*
X32986353Y-132511028D01*
X32986340Y-132511021D01*
X32825928Y-132444577D01*
X32825918Y-132444574D01*
X32655622Y-132410700D01*
X32655620Y-132410700D01*
X32590160Y-132410700D01*
X32523121Y-132391015D01*
X32502479Y-132374381D01*
X32245818Y-132117720D01*
X32212333Y-132056397D01*
X32209499Y-132030039D01*
X32209499Y-129893360D01*
X32229184Y-129826321D01*
X32245814Y-129805683D01*
X33114679Y-128936817D01*
X33176002Y-128903333D01*
X33202360Y-128900499D01*
X34547871Y-128900499D01*
X34547872Y-128900499D01*
X34607483Y-128894091D01*
X34742331Y-128843796D01*
X34857546Y-128757546D01*
X34943796Y-128642331D01*
X34994091Y-128507483D01*
X35000500Y-128447873D01*
X35000499Y-126652128D01*
X34994091Y-126592517D01*
X34992810Y-126589083D01*
X34943797Y-126457671D01*
X34943793Y-126457664D01*
X34857547Y-126342455D01*
X34857544Y-126342452D01*
X34742335Y-126256206D01*
X34742328Y-126256202D01*
X34607482Y-126205908D01*
X34607483Y-126205908D01*
X34547883Y-126199501D01*
X34547881Y-126199500D01*
X34547873Y-126199500D01*
X34547864Y-126199500D01*
X32752129Y-126199500D01*
X32752123Y-126199501D01*
X32692516Y-126205908D01*
X32557671Y-126256202D01*
X32557664Y-126256206D01*
X32442455Y-126342452D01*
X32442452Y-126342455D01*
X32356206Y-126457664D01*
X32356203Y-126457669D01*
X32307189Y-126589083D01*
X32265317Y-126645016D01*
X32199853Y-126669433D01*
X32131580Y-126654581D01*
X32103326Y-126633430D01*
X31989786Y-126519890D01*
X31817820Y-126394951D01*
X31628414Y-126298444D01*
X31628413Y-126298443D01*
X31628412Y-126298443D01*
X31426243Y-126232754D01*
X31426241Y-126232753D01*
X31426240Y-126232753D01*
X31264957Y-126207208D01*
X31216287Y-126199500D01*
X31003713Y-126199500D01*
X30955042Y-126207208D01*
X30793760Y-126232753D01*
X30591585Y-126298444D01*
X30402179Y-126394951D01*
X30230213Y-126519890D01*
X30079890Y-126670213D01*
X29954949Y-126842182D01*
X29950484Y-126850946D01*
X29902509Y-126901742D01*
X29834688Y-126918536D01*
X29768553Y-126895998D01*
X29729516Y-126850946D01*
X29725050Y-126842182D01*
X29600109Y-126670213D01*
X29449786Y-126519890D01*
X29277820Y-126394951D01*
X29088414Y-126298444D01*
X29088413Y-126298443D01*
X29088412Y-126298443D01*
X28886243Y-126232754D01*
X28886241Y-126232753D01*
X28886240Y-126232753D01*
X28724957Y-126207208D01*
X28676287Y-126199500D01*
X28463713Y-126199500D01*
X28415042Y-126207208D01*
X28253760Y-126232753D01*
X28051585Y-126298444D01*
X27862179Y-126394951D01*
X27690213Y-126519890D01*
X27539890Y-126670213D01*
X27414949Y-126842182D01*
X27410484Y-126850946D01*
X27362509Y-126901742D01*
X27294688Y-126918536D01*
X27228553Y-126895998D01*
X27189516Y-126850946D01*
X27185050Y-126842182D01*
X27060109Y-126670213D01*
X26909786Y-126519890D01*
X26737820Y-126394951D01*
X26548414Y-126298444D01*
X26548413Y-126298443D01*
X26548412Y-126298443D01*
X26346243Y-126232754D01*
X26346241Y-126232753D01*
X26346240Y-126232753D01*
X26184957Y-126207208D01*
X26136287Y-126199500D01*
X25923713Y-126199500D01*
X25875042Y-126207208D01*
X25713760Y-126232753D01*
X25511585Y-126298444D01*
X25322179Y-126394951D01*
X25150213Y-126519890D01*
X24999890Y-126670213D01*
X24874949Y-126842182D01*
X24870202Y-126851499D01*
X24822227Y-126902293D01*
X24754405Y-126919087D01*
X24688271Y-126896548D01*
X24649234Y-126851495D01*
X24644626Y-126842452D01*
X24605270Y-126788282D01*
X24605269Y-126788282D01*
X23972962Y-127420590D01*
X23955925Y-127357007D01*
X23890099Y-127242993D01*
X23797007Y-127149901D01*
X23682993Y-127084075D01*
X23619409Y-127067037D01*
X24251716Y-126434728D01*
X24197550Y-126395375D01*
X24008217Y-126298904D01*
X23806129Y-126233242D01*
X23596246Y-126200000D01*
X23383754Y-126200000D01*
X23173872Y-126233242D01*
X23173869Y-126233242D01*
X22971782Y-126298904D01*
X22782439Y-126395380D01*
X22728282Y-126434727D01*
X22728282Y-126434728D01*
X23360591Y-127067037D01*
X23297007Y-127084075D01*
X23182993Y-127149901D01*
X23089901Y-127242993D01*
X23024075Y-127357007D01*
X23007037Y-127420591D01*
X22374728Y-126788282D01*
X22374727Y-126788282D01*
X22335380Y-126842439D01*
X22238904Y-127031782D01*
X22173242Y-127233869D01*
X22173242Y-127233872D01*
X22140000Y-127443753D01*
X22140000Y-127656246D01*
X22173242Y-127866127D01*
X22173242Y-127866130D01*
X22238904Y-128068217D01*
X22335375Y-128257550D01*
X22374728Y-128311716D01*
X23007037Y-127679408D01*
X23024075Y-127742993D01*
X23089901Y-127857007D01*
X23182993Y-127950099D01*
X23297007Y-128015925D01*
X23360590Y-128032962D01*
X22728282Y-128665269D01*
X22728282Y-128665270D01*
X22782449Y-128704624D01*
X22971782Y-128801095D01*
X23173870Y-128866757D01*
X23383754Y-128900000D01*
X23596246Y-128900000D01*
X23806127Y-128866757D01*
X23806130Y-128866757D01*
X24008217Y-128801095D01*
X24197554Y-128704622D01*
X24251716Y-128665270D01*
X24251717Y-128665270D01*
X23619408Y-128032962D01*
X23682993Y-128015925D01*
X23797007Y-127950099D01*
X23890099Y-127857007D01*
X23955925Y-127742993D01*
X23972962Y-127679408D01*
X24605270Y-128311717D01*
X24605270Y-128311716D01*
X24644622Y-128257555D01*
X24649232Y-128248507D01*
X24697205Y-128197709D01*
X24765025Y-128180912D01*
X24831161Y-128203447D01*
X24870204Y-128248504D01*
X24874949Y-128257817D01*
X24999890Y-128429786D01*
X25150213Y-128580109D01*
X25322179Y-128705048D01*
X25322181Y-128705049D01*
X25322184Y-128705051D01*
X25511588Y-128801557D01*
X25713757Y-128867246D01*
X25923713Y-128900500D01*
X25923714Y-128900500D01*
X26136286Y-128900500D01*
X26136287Y-128900500D01*
X26346243Y-128867246D01*
X26548412Y-128801557D01*
X26737816Y-128705051D01*
X26824138Y-128642335D01*
X26909786Y-128580109D01*
X26909788Y-128580106D01*
X26909792Y-128580104D01*
X27060104Y-128429792D01*
X27060106Y-128429788D01*
X27060109Y-128429786D01*
X27185048Y-128257820D01*
X27185050Y-128257817D01*
X27185051Y-128257816D01*
X27189514Y-128249054D01*
X27237488Y-128198259D01*
X27305308Y-128181463D01*
X27371444Y-128203999D01*
X27410486Y-128249056D01*
X27414951Y-128257820D01*
X27539890Y-128429786D01*
X27690213Y-128580109D01*
X27862179Y-128705048D01*
X27862181Y-128705049D01*
X27862184Y-128705051D01*
X28051588Y-128801557D01*
X28253757Y-128867246D01*
X28463713Y-128900500D01*
X28463714Y-128900500D01*
X28676286Y-128900500D01*
X28676287Y-128900500D01*
X28886243Y-128867246D01*
X28926815Y-128854062D01*
X28996654Y-128852066D01*
X29052814Y-128884312D01*
X29861581Y-129693079D01*
X29895066Y-129754402D01*
X29897900Y-129780760D01*
X29897900Y-137448055D01*
X29878215Y-137515094D01*
X29842795Y-137551155D01*
X29838075Y-137554308D01*
X29715297Y-137677086D01*
X29715294Y-137677090D01*
X29618829Y-137821459D01*
X29618822Y-137821472D01*
X29552378Y-137981884D01*
X29552375Y-137981894D01*
X29518501Y-138152190D01*
X29518501Y-138183901D01*
X29498816Y-138250940D01*
X29446012Y-138296695D01*
X29418693Y-138305518D01*
X29283681Y-138332374D01*
X29283671Y-138332377D01*
X29123259Y-138398821D01*
X29123246Y-138398828D01*
X28978877Y-138495293D01*
X28978873Y-138495296D01*
X28856096Y-138618073D01*
X28856093Y-138618077D01*
X28759628Y-138762446D01*
X28759621Y-138762459D01*
X28693177Y-138922871D01*
X28693174Y-138922881D01*
X28659300Y-139093177D01*
X28659300Y-139093180D01*
X28659300Y-139266820D01*
X28659300Y-139266822D01*
X28659299Y-139266822D01*
X28693174Y-139437118D01*
X28693177Y-139437128D01*
X28759621Y-139597540D01*
X28759628Y-139597553D01*
X28856093Y-139741922D01*
X28856096Y-139741926D01*
X28902380Y-139788209D01*
X28935866Y-139849532D01*
X28938700Y-139875891D01*
X28938700Y-148072640D01*
X28919015Y-148139679D01*
X28902381Y-148160321D01*
X28716514Y-148346187D01*
X28655191Y-148379672D01*
X28585499Y-148374688D01*
X28529566Y-148332816D01*
X28507216Y-148282697D01*
X28497625Y-148234483D01*
X28497625Y-148234481D01*
X28497624Y-148234476D01*
X28453976Y-148129100D01*
X28431178Y-148074059D01*
X28431171Y-148074046D01*
X28334706Y-147929677D01*
X28334703Y-147929673D01*
X28211926Y-147806896D01*
X28211922Y-147806893D01*
X28067553Y-147710428D01*
X28067540Y-147710421D01*
X27907128Y-147643977D01*
X27907118Y-147643974D01*
X27736822Y-147610100D01*
X27736820Y-147610100D01*
X27563180Y-147610100D01*
X27563178Y-147610100D01*
X27392881Y-147643974D01*
X27392871Y-147643977D01*
X27232459Y-147710421D01*
X27232446Y-147710428D01*
X27088077Y-147806893D01*
X27088073Y-147806896D01*
X26965296Y-147929673D01*
X26965293Y-147929677D01*
X26868828Y-148074046D01*
X26868821Y-148074059D01*
X26802377Y-148234471D01*
X26802374Y-148234481D01*
X26768500Y-148404777D01*
X26768500Y-148470240D01*
X26748815Y-148537279D01*
X26732181Y-148557921D01*
X26268201Y-149021900D01*
X26268197Y-149021905D01*
X26188934Y-149159194D01*
X26185823Y-149166706D01*
X26183453Y-149165724D01*
X26158324Y-149209245D01*
X26065295Y-149302275D01*
X26065291Y-149302280D01*
X25968828Y-149446646D01*
X25968821Y-149446659D01*
X25902377Y-149607071D01*
X25902374Y-149607081D01*
X25868500Y-149777377D01*
X25868500Y-149823900D01*
X25848815Y-149890939D01*
X25796011Y-149936694D01*
X25744500Y-149947900D01*
X23195891Y-149947900D01*
X23128852Y-149928215D01*
X23108209Y-149911580D01*
X23061926Y-149865296D01*
X23061922Y-149865293D01*
X22917553Y-149768828D01*
X22917540Y-149768821D01*
X22757128Y-149702377D01*
X22757118Y-149702374D01*
X22586822Y-149668500D01*
X22586820Y-149668500D01*
X22413180Y-149668500D01*
X22413178Y-149668500D01*
X22242881Y-149702374D01*
X22242871Y-149702377D01*
X22082459Y-149768821D01*
X22082446Y-149768828D01*
X21938077Y-149865293D01*
X21938073Y-149865296D01*
X21815296Y-149988073D01*
X21815293Y-149988077D01*
X21718828Y-150132446D01*
X21718821Y-150132459D01*
X21652377Y-150292871D01*
X21652374Y-150292881D01*
X21618500Y-150463177D01*
X21618500Y-150467400D01*
X21598815Y-150534439D01*
X21546011Y-150580194D01*
X21494500Y-150591400D01*
X21245029Y-150591400D01*
X21245012Y-150591401D01*
X21142302Y-150601894D01*
X20975880Y-150657041D01*
X20975875Y-150657043D01*
X20826654Y-150749084D01*
X20702684Y-150873054D01*
X20626239Y-150996992D01*
X20574291Y-151043716D01*
X20505328Y-151054939D01*
X20441246Y-151027095D01*
X20402390Y-150969026D01*
X20396700Y-150931895D01*
X20396700Y-143135022D01*
X21350199Y-143135022D01*
X21384074Y-143305318D01*
X21384077Y-143305328D01*
X21450521Y-143465740D01*
X21450528Y-143465753D01*
X21546993Y-143610122D01*
X21546996Y-143610126D01*
X21669773Y-143732903D01*
X21669777Y-143732906D01*
X21814146Y-143829371D01*
X21814159Y-143829378D01*
X21974571Y-143895822D01*
X21974576Y-143895824D01*
X21974580Y-143895824D01*
X21974581Y-143895825D01*
X22144877Y-143929700D01*
X22144880Y-143929700D01*
X22318522Y-143929700D01*
X22433094Y-143906909D01*
X22488824Y-143895824D01*
X22649247Y-143829375D01*
X22793623Y-143732906D01*
X22839909Y-143686620D01*
X22901232Y-143653134D01*
X22927591Y-143650300D01*
X24645318Y-143650300D01*
X24712357Y-143669985D01*
X24732999Y-143686619D01*
X26271254Y-145224874D01*
X26304739Y-145286197D01*
X26307573Y-145312555D01*
X26307573Y-145378015D01*
X26307573Y-145378017D01*
X26307572Y-145378017D01*
X26341447Y-145548313D01*
X26341450Y-145548323D01*
X26407894Y-145708735D01*
X26407904Y-145708753D01*
X26471184Y-145803459D01*
X26492062Y-145870136D01*
X26482644Y-145919799D01*
X26452376Y-145992875D01*
X26452374Y-145992882D01*
X26418500Y-146163177D01*
X26418500Y-146228640D01*
X26398815Y-146295679D01*
X26382181Y-146316321D01*
X26089321Y-146609181D01*
X26027998Y-146642666D01*
X26001640Y-146645500D01*
X24752491Y-146645500D01*
X24685452Y-146625815D01*
X24664809Y-146609180D01*
X24618526Y-146562896D01*
X24618522Y-146562893D01*
X24474153Y-146466428D01*
X24474140Y-146466421D01*
X24313728Y-146399977D01*
X24313718Y-146399974D01*
X24143422Y-146366100D01*
X24143420Y-146366100D01*
X23969780Y-146366100D01*
X23969778Y-146366100D01*
X23799481Y-146399974D01*
X23799471Y-146399977D01*
X23639059Y-146466421D01*
X23639046Y-146466428D01*
X23494677Y-146562893D01*
X23494673Y-146562896D01*
X23371896Y-146685673D01*
X23371893Y-146685677D01*
X23275428Y-146830046D01*
X23275421Y-146830059D01*
X23208977Y-146990471D01*
X23208974Y-146990481D01*
X23175100Y-147160777D01*
X23175100Y-147160780D01*
X23175100Y-147334420D01*
X23175100Y-147334422D01*
X23175099Y-147334422D01*
X23208974Y-147504718D01*
X23208977Y-147504728D01*
X23275421Y-147665140D01*
X23275428Y-147665153D01*
X23371893Y-147809522D01*
X23371896Y-147809526D01*
X23494673Y-147932303D01*
X23494677Y-147932306D01*
X23639046Y-148028771D01*
X23639059Y-148028778D01*
X23799471Y-148095222D01*
X23799476Y-148095224D01*
X23799480Y-148095224D01*
X23799481Y-148095225D01*
X23969777Y-148129100D01*
X23969780Y-148129100D01*
X24143422Y-148129100D01*
X24257994Y-148106309D01*
X24313724Y-148095224D01*
X24474147Y-148028775D01*
X24618523Y-147932306D01*
X24664809Y-147886020D01*
X24726132Y-147852534D01*
X24752491Y-147849700D01*
X26381666Y-147849700D01*
X26381668Y-147849700D01*
X26534802Y-147808667D01*
X26672098Y-147729400D01*
X26784200Y-147617298D01*
X27233679Y-147167819D01*
X27295002Y-147134334D01*
X27321360Y-147131500D01*
X27386822Y-147131500D01*
X27501394Y-147108709D01*
X27557124Y-147097624D01*
X27717547Y-147031175D01*
X27861923Y-146934706D01*
X27984706Y-146811923D01*
X28081175Y-146667547D01*
X28147624Y-146507124D01*
X28168937Y-146399977D01*
X28181500Y-146336822D01*
X28181500Y-146163177D01*
X28147625Y-145992881D01*
X28147624Y-145992880D01*
X28147624Y-145992876D01*
X28089735Y-145853118D01*
X28081178Y-145832459D01*
X28081176Y-145832455D01*
X28081175Y-145832453D01*
X28017886Y-145737735D01*
X27997009Y-145671059D01*
X28006426Y-145621398D01*
X28036697Y-145548319D01*
X28070573Y-145378015D01*
X28070573Y-145204375D01*
X28070573Y-145204372D01*
X28036698Y-145034076D01*
X28036697Y-145034075D01*
X28036697Y-145034071D01*
X28024514Y-145004659D01*
X27970251Y-144873654D01*
X27970244Y-144873641D01*
X27873779Y-144729272D01*
X27873776Y-144729268D01*
X27750999Y-144606491D01*
X27750995Y-144606488D01*
X27606626Y-144510023D01*
X27606613Y-144510016D01*
X27446201Y-144443572D01*
X27446191Y-144443569D01*
X27275895Y-144409695D01*
X27275893Y-144409695D01*
X27210433Y-144409695D01*
X27143394Y-144390010D01*
X27122752Y-144373376D01*
X25315777Y-142566401D01*
X25315776Y-142566400D01*
X25178480Y-142487133D01*
X25178481Y-142487133D01*
X25117335Y-142470749D01*
X25025346Y-142446100D01*
X25025344Y-142446100D01*
X22927591Y-142446100D01*
X22860552Y-142426415D01*
X22839909Y-142409780D01*
X22793626Y-142363496D01*
X22793622Y-142363493D01*
X22649253Y-142267028D01*
X22649240Y-142267021D01*
X22488828Y-142200577D01*
X22488818Y-142200574D01*
X22318522Y-142166700D01*
X22318520Y-142166700D01*
X22144880Y-142166700D01*
X22144878Y-142166700D01*
X21974581Y-142200574D01*
X21974571Y-142200577D01*
X21814159Y-142267021D01*
X21814146Y-142267028D01*
X21669777Y-142363493D01*
X21669773Y-142363496D01*
X21546996Y-142486273D01*
X21546993Y-142486277D01*
X21450528Y-142630646D01*
X21450521Y-142630659D01*
X21384077Y-142791071D01*
X21384074Y-142791081D01*
X21350200Y-142961377D01*
X21350200Y-142961380D01*
X21350200Y-143135020D01*
X21350200Y-143135022D01*
X21350199Y-143135022D01*
X20396700Y-143135022D01*
X20396700Y-98128971D01*
X23647100Y-98128971D01*
X23647100Y-98365428D01*
X23677961Y-98599835D01*
X23739159Y-98828228D01*
X23829637Y-99046661D01*
X23829641Y-99046671D01*
X23947859Y-99251431D01*
X24091795Y-99439012D01*
X24091801Y-99439019D01*
X24258980Y-99606198D01*
X24258987Y-99606204D01*
X24446568Y-99750140D01*
X24651328Y-99868358D01*
X24651329Y-99868358D01*
X24651332Y-99868360D01*
X24869776Y-99958842D01*
X25098161Y-100020038D01*
X25332579Y-100050900D01*
X25332586Y-100050900D01*
X25569014Y-100050900D01*
X25569021Y-100050900D01*
X25803439Y-100020038D01*
X26031824Y-99958842D01*
X26250268Y-99868360D01*
X26455032Y-99750140D01*
X26642614Y-99606203D01*
X26809803Y-99439014D01*
X26953740Y-99251432D01*
X27071960Y-99046668D01*
X27162442Y-98828224D01*
X27178881Y-98766872D01*
X30809700Y-98766872D01*
X30809700Y-98779413D01*
X30809700Y-100369128D01*
X30849021Y-101970901D01*
X30924561Y-103508562D01*
X30927641Y-103571241D01*
X31045508Y-105169138D01*
X31202559Y-106763703D01*
X31398687Y-108353862D01*
X31633794Y-109938827D01*
X31907714Y-111517466D01*
X32220298Y-113088929D01*
X32571351Y-114652246D01*
X32960678Y-116206523D01*
X33375376Y-117705047D01*
X33388015Y-117750717D01*
X33628446Y-118543311D01*
X33853132Y-119284004D01*
X34355726Y-120805376D01*
X34895499Y-122313944D01*
X35406211Y-123637912D01*
X35472151Y-123808855D01*
X36085308Y-125289146D01*
X36734608Y-126753944D01*
X37417719Y-128198259D01*
X37419663Y-128202370D01*
X38140062Y-129633559D01*
X38895345Y-131046593D01*
X39393598Y-131926132D01*
X39656951Y-132391015D01*
X39685104Y-132440711D01*
X40445738Y-133709753D01*
X40508825Y-133815006D01*
X40610250Y-133975174D01*
X41366034Y-135168688D01*
X42256205Y-136500922D01*
X43178763Y-137810853D01*
X43178786Y-137810885D01*
X44133248Y-139097829D01*
X45119007Y-140360962D01*
X46135467Y-141599522D01*
X46404945Y-141911922D01*
X47182015Y-142812764D01*
X48244202Y-143984706D01*
X48258026Y-143999958D01*
X49362847Y-145160387D01*
X50495813Y-146293353D01*
X51656242Y-147398174D01*
X51656254Y-147398185D01*
X52843435Y-148474184D01*
X53488453Y-149030579D01*
X54056678Y-149520733D01*
X55295238Y-150537193D01*
X56558371Y-151522952D01*
X57845315Y-152477414D01*
X57845341Y-152477432D01*
X57845346Y-152477436D01*
X59155277Y-153399994D01*
X60487511Y-154290165D01*
X60487521Y-154290171D01*
X60487522Y-154290172D01*
X61841194Y-155147375D01*
X61841208Y-155147383D01*
X61841209Y-155147384D01*
X61860634Y-155159027D01*
X63215494Y-155971099D01*
X63861536Y-156337077D01*
X64609606Y-156760854D01*
X66022640Y-157516137D01*
X66062357Y-157536129D01*
X67453834Y-158236539D01*
X68902256Y-158921592D01*
X70367054Y-159570892D01*
X71847345Y-160184049D01*
X72565487Y-160461067D01*
X73342255Y-160760700D01*
X74850823Y-161300473D01*
X76372195Y-161803067D01*
X76372204Y-161803069D01*
X76372220Y-161803075D01*
X77905483Y-162268185D01*
X78765006Y-162506047D01*
X79449676Y-162695521D01*
X79449689Y-162695524D01*
X79449699Y-162695527D01*
X80949527Y-163071215D01*
X81003953Y-163084848D01*
X81399582Y-163173689D01*
X82567262Y-163435900D01*
X84138731Y-163748485D01*
X84646984Y-163836675D01*
X85717372Y-164022405D01*
X85717392Y-164022408D01*
X85717398Y-164022409D01*
X87302312Y-164257509D01*
X87468862Y-164278051D01*
X88892496Y-164453640D01*
X89318452Y-164495593D01*
X90487058Y-164610691D01*
X92084973Y-164728560D01*
X93685299Y-164807179D01*
X95287072Y-164846500D01*
X95287086Y-164846500D01*
X96889314Y-164846500D01*
X96889328Y-164846500D01*
X98491101Y-164807179D01*
X100091427Y-164728560D01*
X101689342Y-164610691D01*
X103058401Y-164475850D01*
X103283903Y-164453640D01*
X104508499Y-164302600D01*
X104874088Y-164257509D01*
X106459002Y-164022409D01*
X106459013Y-164022406D01*
X106459027Y-164022405D01*
X107080406Y-163914585D01*
X108037669Y-163748485D01*
X109609138Y-163435900D01*
X111075637Y-163106587D01*
X111172446Y-163084848D01*
X111172453Y-163084846D01*
X111172463Y-163084844D01*
X112726701Y-162695527D01*
X114270917Y-162268185D01*
X115804180Y-161803075D01*
X117325567Y-161300476D01*
X117325567Y-161300475D01*
X117325576Y-161300473D01*
X118834144Y-160760700D01*
X119072790Y-160668644D01*
X120329055Y-160184049D01*
X121809346Y-159570892D01*
X123274144Y-158921592D01*
X124722566Y-158236539D01*
X126153740Y-157516147D01*
X126153926Y-157516048D01*
X127566793Y-156760854D01*
X127566804Y-156760848D01*
X128960906Y-155971099D01*
X130335206Y-155147375D01*
X131688878Y-154290172D01*
X133021105Y-153400006D01*
X134331085Y-152477414D01*
X135618029Y-151522952D01*
X136881162Y-150537193D01*
X138119722Y-149520733D01*
X138687956Y-149030571D01*
X144195500Y-149030571D01*
X144195500Y-149267028D01*
X144226361Y-149501435D01*
X144226362Y-149501439D01*
X144226587Y-149502277D01*
X144287559Y-149729828D01*
X144378037Y-149948261D01*
X144378041Y-149948271D01*
X144496259Y-150153031D01*
X144640195Y-150340612D01*
X144640201Y-150340619D01*
X144807380Y-150507798D01*
X144807387Y-150507804D01*
X144994968Y-150651740D01*
X145199728Y-150769958D01*
X145199729Y-150769958D01*
X145199732Y-150769960D01*
X145418176Y-150860442D01*
X145646561Y-150921638D01*
X145880979Y-150952500D01*
X145880986Y-150952500D01*
X146117414Y-150952500D01*
X146117421Y-150952500D01*
X146351839Y-150921638D01*
X146580224Y-150860442D01*
X146798668Y-150769960D01*
X147003432Y-150651740D01*
X147191014Y-150507803D01*
X147358203Y-150340614D01*
X147502140Y-150153032D01*
X147620360Y-149948268D01*
X147710842Y-149729824D01*
X147772038Y-149501439D01*
X147802900Y-149267021D01*
X147802900Y-149030579D01*
X147772038Y-148796161D01*
X147710842Y-148567776D01*
X147620360Y-148349332D01*
X147618544Y-148346187D01*
X147502140Y-148144568D01*
X147358204Y-147956987D01*
X147358198Y-147956980D01*
X147191019Y-147789801D01*
X147191012Y-147789795D01*
X147003431Y-147645859D01*
X146798671Y-147527641D01*
X146798661Y-147527637D01*
X146580228Y-147437159D01*
X146351835Y-147375961D01*
X146117428Y-147345100D01*
X146117421Y-147345100D01*
X145880979Y-147345100D01*
X145880971Y-147345100D01*
X145646564Y-147375961D01*
X145418171Y-147437159D01*
X145199738Y-147527637D01*
X145199728Y-147527641D01*
X144994968Y-147645859D01*
X144807387Y-147789795D01*
X144807380Y-147789801D01*
X144640201Y-147956980D01*
X144640195Y-147956987D01*
X144496259Y-148144568D01*
X144378041Y-148349328D01*
X144378037Y-148349338D01*
X144287559Y-148567771D01*
X144226361Y-148796164D01*
X144195500Y-149030571D01*
X138687956Y-149030571D01*
X138959703Y-148796161D01*
X139332964Y-148474184D01*
X139719330Y-148124002D01*
X140520158Y-147398174D01*
X141680587Y-146293353D01*
X142813553Y-145160387D01*
X143918374Y-143999958D01*
X144931216Y-142882459D01*
X144994384Y-142812764D01*
X145164721Y-142615296D01*
X146040933Y-141599522D01*
X147057393Y-140360962D01*
X148043152Y-139097829D01*
X148997614Y-137810885D01*
X149920206Y-136500905D01*
X150810372Y-135168678D01*
X151667575Y-133815006D01*
X152491299Y-132440706D01*
X153281048Y-131046604D01*
X154036347Y-129633540D01*
X154756739Y-128202366D01*
X155441792Y-126753944D01*
X156091092Y-125289146D01*
X156704249Y-123808855D01*
X157280893Y-122313962D01*
X157280900Y-122313944D01*
X157820673Y-120805376D01*
X158323267Y-119284004D01*
X158323275Y-119283980D01*
X158788385Y-117750717D01*
X159066145Y-116747021D01*
X159137651Y-116488634D01*
X159215721Y-116206523D01*
X159220662Y-116186800D01*
X159605044Y-114652263D01*
X159956100Y-113088938D01*
X160268685Y-111517469D01*
X160542609Y-109938802D01*
X160777709Y-108353888D01*
X160828606Y-107941220D01*
X160973840Y-106763703D01*
X161130891Y-105169138D01*
X161248760Y-103571227D01*
X161271548Y-103107371D01*
X164159900Y-103107371D01*
X164159900Y-103343828D01*
X164190761Y-103578235D01*
X164251959Y-103806628D01*
X164342437Y-104025061D01*
X164342441Y-104025071D01*
X164460659Y-104229831D01*
X164604595Y-104417412D01*
X164604601Y-104417419D01*
X164771780Y-104584598D01*
X164771787Y-104584604D01*
X164959368Y-104728540D01*
X165164128Y-104846758D01*
X165164129Y-104846758D01*
X165164132Y-104846760D01*
X165382576Y-104937242D01*
X165610961Y-104998438D01*
X165845379Y-105029300D01*
X165845386Y-105029300D01*
X166081814Y-105029300D01*
X166081821Y-105029300D01*
X166316239Y-104998438D01*
X166544624Y-104937242D01*
X166763068Y-104846760D01*
X166967832Y-104728540D01*
X167155414Y-104584603D01*
X167322603Y-104417414D01*
X167466540Y-104229832D01*
X167584760Y-104025068D01*
X167675242Y-103806624D01*
X167736438Y-103578239D01*
X167767300Y-103343821D01*
X167767300Y-103107379D01*
X167736438Y-102872961D01*
X167675242Y-102644576D01*
X167584760Y-102426132D01*
X167466540Y-102221368D01*
X167322603Y-102033786D01*
X167322598Y-102033780D01*
X167155419Y-101866601D01*
X167155412Y-101866595D01*
X166967831Y-101722659D01*
X166763071Y-101604441D01*
X166763061Y-101604437D01*
X166544628Y-101513959D01*
X166316235Y-101452761D01*
X166081828Y-101421900D01*
X166081821Y-101421900D01*
X165845379Y-101421900D01*
X165845371Y-101421900D01*
X165610964Y-101452761D01*
X165382571Y-101513959D01*
X165164138Y-101604437D01*
X165164128Y-101604441D01*
X164959368Y-101722659D01*
X164771787Y-101866595D01*
X164771780Y-101866601D01*
X164604601Y-102033780D01*
X164604595Y-102033787D01*
X164460659Y-102221368D01*
X164342441Y-102426128D01*
X164342437Y-102426138D01*
X164251959Y-102644571D01*
X164190761Y-102872964D01*
X164159900Y-103107371D01*
X161271548Y-103107371D01*
X161327379Y-101970901D01*
X161366700Y-100369128D01*
X161366700Y-98766872D01*
X161327379Y-97165099D01*
X161248760Y-95564773D01*
X161130891Y-93966858D01*
X160973842Y-92372318D01*
X160973840Y-92372296D01*
X160777712Y-90782137D01*
X160777709Y-90782112D01*
X160542609Y-89197198D01*
X160542608Y-89197192D01*
X160542605Y-89197172D01*
X160268685Y-87618533D01*
X160241348Y-87481100D01*
X159956100Y-86047062D01*
X159938880Y-85970378D01*
X164029700Y-85970378D01*
X164029700Y-86190821D01*
X164064185Y-86408552D01*
X164132303Y-86618203D01*
X164132304Y-86618206D01*
X164232387Y-86814625D01*
X164361952Y-86992958D01*
X164361956Y-86992963D01*
X164517836Y-87148843D01*
X164517841Y-87148847D01*
X164673392Y-87261860D01*
X164696178Y-87278415D01*
X164812701Y-87337787D01*
X164892593Y-87378495D01*
X164892596Y-87378496D01*
X164997421Y-87412555D01*
X165102249Y-87446615D01*
X165319978Y-87481100D01*
X165319979Y-87481100D01*
X165540421Y-87481100D01*
X165540422Y-87481100D01*
X165758151Y-87446615D01*
X165967806Y-87378495D01*
X166164222Y-87278415D01*
X166342565Y-87148842D01*
X166393124Y-87098282D01*
X166454445Y-87064798D01*
X166524136Y-87069782D01*
X166580070Y-87111653D01*
X166596986Y-87142630D01*
X166626846Y-87222687D01*
X166626849Y-87222693D01*
X166713009Y-87337787D01*
X166713012Y-87337790D01*
X166828106Y-87423950D01*
X166828113Y-87423954D01*
X166962820Y-87474196D01*
X166962827Y-87474198D01*
X167022355Y-87480599D01*
X167022372Y-87480600D01*
X167720200Y-87480600D01*
X167720200Y-86455877D01*
X167796506Y-86499933D01*
X167910956Y-86530600D01*
X168029444Y-86530600D01*
X168143894Y-86499933D01*
X168220200Y-86455877D01*
X168220200Y-87480600D01*
X168918028Y-87480600D01*
X168918044Y-87480599D01*
X168977572Y-87474198D01*
X168977579Y-87474196D01*
X169112286Y-87423954D01*
X169112293Y-87423950D01*
X169227387Y-87337790D01*
X169227390Y-87337787D01*
X169313550Y-87222693D01*
X169313554Y-87222686D01*
X169363796Y-87087979D01*
X169363798Y-87087972D01*
X169370199Y-87028444D01*
X169370200Y-87028427D01*
X169370200Y-86330600D01*
X168345478Y-86330600D01*
X168389533Y-86254294D01*
X168420200Y-86139844D01*
X168420200Y-86021356D01*
X168389533Y-85906906D01*
X168345478Y-85830600D01*
X169370200Y-85830600D01*
X169370200Y-85132772D01*
X169370199Y-85132755D01*
X169363798Y-85073227D01*
X169363796Y-85073220D01*
X169313554Y-84938513D01*
X169313550Y-84938506D01*
X169227390Y-84823412D01*
X169227387Y-84823409D01*
X169112293Y-84737249D01*
X169112286Y-84737245D01*
X168977579Y-84687003D01*
X168977572Y-84687001D01*
X168918044Y-84680600D01*
X168220200Y-84680600D01*
X168220200Y-85705322D01*
X168143894Y-85661267D01*
X168029444Y-85630600D01*
X167910956Y-85630600D01*
X167796506Y-85661267D01*
X167720200Y-85705322D01*
X167720200Y-84680600D01*
X167022355Y-84680600D01*
X166962827Y-84687001D01*
X166962820Y-84687003D01*
X166828113Y-84737245D01*
X166828106Y-84737249D01*
X166713012Y-84823409D01*
X166713009Y-84823412D01*
X166626849Y-84938506D01*
X166626843Y-84938518D01*
X166596985Y-85018569D01*
X166555114Y-85074503D01*
X166489649Y-85098919D01*
X166421376Y-85084067D01*
X166393123Y-85062916D01*
X166342563Y-85012356D01*
X166342558Y-85012352D01*
X166164225Y-84882787D01*
X166164224Y-84882786D01*
X166164222Y-84882785D01*
X166101296Y-84850722D01*
X165967806Y-84782704D01*
X165967803Y-84782703D01*
X165758152Y-84714585D01*
X165649286Y-84697342D01*
X165540422Y-84680100D01*
X165319978Y-84680100D01*
X165247401Y-84691595D01*
X165102247Y-84714585D01*
X164892596Y-84782703D01*
X164892593Y-84782704D01*
X164696174Y-84882787D01*
X164517841Y-85012352D01*
X164517836Y-85012356D01*
X164361956Y-85168236D01*
X164361952Y-85168241D01*
X164232387Y-85346574D01*
X164132304Y-85542993D01*
X164132303Y-85542996D01*
X164064185Y-85752647D01*
X164029700Y-85970378D01*
X159938880Y-85970378D01*
X159889987Y-85752649D01*
X159605046Y-84483745D01*
X159605044Y-84483737D01*
X159215727Y-82929499D01*
X158788385Y-81385283D01*
X158323275Y-79852020D01*
X158323267Y-79851995D01*
X157820673Y-78330623D01*
X157280900Y-76822055D01*
X156850621Y-75706600D01*
X156704249Y-75327145D01*
X156091092Y-73846854D01*
X155441792Y-72382056D01*
X154756739Y-70933634D01*
X154036347Y-69502460D01*
X154036337Y-69502440D01*
X153281054Y-68089406D01*
X152998369Y-67590398D01*
X152491299Y-66695294D01*
X151667575Y-65320994D01*
X150810372Y-63967322D01*
X149920206Y-62635095D01*
X149920194Y-62635077D01*
X148997636Y-61325146D01*
X148997632Y-61325141D01*
X148997614Y-61325115D01*
X148043152Y-60038171D01*
X147057393Y-58775038D01*
X146040933Y-57536478D01*
X145578310Y-57000169D01*
X144994384Y-56323235D01*
X143918385Y-55136054D01*
X143493035Y-54689295D01*
X142813553Y-53975613D01*
X141680587Y-52842647D01*
X140520158Y-51737826D01*
X140177625Y-51427372D01*
X139332964Y-50661815D01*
X138442443Y-49893648D01*
X138119722Y-49615267D01*
X136881162Y-48598807D01*
X135618029Y-47613048D01*
X134331085Y-46658586D01*
X134331065Y-46658572D01*
X134331053Y-46658563D01*
X133021122Y-45736005D01*
X131688888Y-44845834D01*
X130522300Y-44107101D01*
X130335206Y-43988625D01*
X130335202Y-43988622D01*
X130335190Y-43988615D01*
X128960911Y-43164904D01*
X128837550Y-43095021D01*
X128525164Y-42918056D01*
X127566793Y-42375145D01*
X126153759Y-41619862D01*
X124722570Y-40899463D01*
X124706059Y-40891654D01*
X123274144Y-40214408D01*
X121809346Y-39565108D01*
X120329055Y-38951951D01*
X120308114Y-38943873D01*
X118834144Y-38375299D01*
X117325576Y-37835526D01*
X115804204Y-37332932D01*
X115044573Y-37102501D01*
X114270917Y-36867815D01*
X114227139Y-36855700D01*
X112726723Y-36440478D01*
X111172446Y-36051151D01*
X109609129Y-35700098D01*
X108037666Y-35387514D01*
X106459027Y-35113594D01*
X106046338Y-35052378D01*
X105246756Y-34933771D01*
X140791900Y-34933771D01*
X140791900Y-35170228D01*
X140822761Y-35404635D01*
X140883959Y-35633028D01*
X140974437Y-35851461D01*
X140974441Y-35851471D01*
X141092659Y-36056231D01*
X141236595Y-36243812D01*
X141236601Y-36243819D01*
X141403780Y-36410998D01*
X141403787Y-36411004D01*
X141591368Y-36554940D01*
X141796128Y-36673158D01*
X141796129Y-36673158D01*
X141796132Y-36673160D01*
X142014576Y-36763642D01*
X142242961Y-36824838D01*
X142477379Y-36855700D01*
X142477386Y-36855700D01*
X142713814Y-36855700D01*
X142713821Y-36855700D01*
X142948239Y-36824838D01*
X143176624Y-36763642D01*
X143395068Y-36673160D01*
X143599832Y-36554940D01*
X143787414Y-36411003D01*
X143954603Y-36243814D01*
X144098540Y-36056232D01*
X144216760Y-35851468D01*
X144307242Y-35633024D01*
X144368438Y-35404639D01*
X144399300Y-35170221D01*
X144399300Y-34933779D01*
X144368438Y-34699361D01*
X144307242Y-34470976D01*
X144232073Y-34289500D01*
X144227789Y-34279157D01*
X144227773Y-34279119D01*
X144216760Y-34252533D01*
X144216758Y-34252528D01*
X144206531Y-34234814D01*
X157251101Y-34234814D01*
X157251101Y-34509801D01*
X158088601Y-34509801D01*
X158088601Y-33534801D01*
X157951128Y-33534801D01*
X157951113Y-33534802D01*
X157848403Y-33545295D01*
X157681981Y-33600442D01*
X157681976Y-33600444D01*
X157532755Y-33692485D01*
X157408785Y-33816455D01*
X157316744Y-33965676D01*
X157316742Y-33965681D01*
X157261595Y-34132103D01*
X157261594Y-34132110D01*
X157251101Y-34234814D01*
X144206531Y-34234814D01*
X144098540Y-34047768D01*
X143954604Y-33860187D01*
X143954598Y-33860180D01*
X143787419Y-33693001D01*
X143787412Y-33692995D01*
X143599831Y-33549059D01*
X143395071Y-33430841D01*
X143395061Y-33430837D01*
X143176628Y-33340359D01*
X142948235Y-33279161D01*
X142713828Y-33248300D01*
X142713821Y-33248300D01*
X142477379Y-33248300D01*
X142477371Y-33248300D01*
X142242964Y-33279161D01*
X142014571Y-33340359D01*
X141796138Y-33430837D01*
X141796128Y-33430841D01*
X141591368Y-33549059D01*
X141403787Y-33692995D01*
X141403780Y-33693001D01*
X141236601Y-33860180D01*
X141236595Y-33860187D01*
X141092659Y-34047768D01*
X140974441Y-34252528D01*
X140974437Y-34252538D01*
X140883959Y-34470971D01*
X140822761Y-34699364D01*
X140791900Y-34933771D01*
X105246756Y-34933771D01*
X104874062Y-34878487D01*
X103283903Y-34682359D01*
X101689338Y-34525308D01*
X100091441Y-34407441D01*
X100091439Y-34407440D01*
X100091427Y-34407440D01*
X98491101Y-34328821D01*
X96889328Y-34289500D01*
X95287072Y-34289500D01*
X93685299Y-34328821D01*
X92084973Y-34407440D01*
X92084962Y-34407440D01*
X92084958Y-34407441D01*
X90487061Y-34525308D01*
X88892496Y-34682359D01*
X87302337Y-34878487D01*
X85717372Y-35113594D01*
X84138733Y-35387514D01*
X82567270Y-35700098D01*
X81003953Y-36051151D01*
X79449676Y-36440478D01*
X77905507Y-36867808D01*
X77905493Y-36867812D01*
X77905483Y-36867815D01*
X77501371Y-36990401D01*
X76372195Y-37332932D01*
X74850823Y-37835526D01*
X73342255Y-38375299D01*
X71847349Y-38951949D01*
X70367053Y-39565108D01*
X68902269Y-40214402D01*
X67453829Y-40899463D01*
X66022640Y-41619862D01*
X64609606Y-42375145D01*
X63215488Y-43164904D01*
X61841209Y-43988615D01*
X60487511Y-44845834D01*
X59155277Y-45736005D01*
X57845346Y-46658563D01*
X56558365Y-47613052D01*
X55295229Y-48598814D01*
X54056674Y-49615270D01*
X52843435Y-50661815D01*
X51656254Y-51737814D01*
X50495796Y-52842663D01*
X49362863Y-53975596D01*
X48258014Y-55136054D01*
X47182015Y-56323235D01*
X46135470Y-57536474D01*
X45119014Y-58775029D01*
X44133252Y-60038165D01*
X43178763Y-61325146D01*
X42256205Y-62635077D01*
X41366034Y-63967311D01*
X40508815Y-65321009D01*
X39685104Y-66695288D01*
X38895345Y-68089406D01*
X38140062Y-69502440D01*
X37419663Y-70933629D01*
X36734602Y-72382069D01*
X36085308Y-73846853D01*
X35472149Y-75327149D01*
X34895499Y-76822055D01*
X34355726Y-78330623D01*
X33853132Y-79851995D01*
X33388008Y-81385307D01*
X32960678Y-82929476D01*
X32571351Y-84483753D01*
X32220298Y-86047070D01*
X31907714Y-87618533D01*
X31633794Y-89197172D01*
X31398687Y-90782137D01*
X31202559Y-92372296D01*
X31045508Y-93966861D01*
X31039041Y-94054536D01*
X30927640Y-95564773D01*
X30849021Y-97165099D01*
X30809700Y-98766872D01*
X27178881Y-98766872D01*
X27223638Y-98599839D01*
X27254500Y-98365421D01*
X27254500Y-98128979D01*
X27223638Y-97894561D01*
X27162442Y-97666176D01*
X27071960Y-97447732D01*
X26953740Y-97242968D01*
X26809803Y-97055386D01*
X26809798Y-97055380D01*
X26642619Y-96888201D01*
X26642612Y-96888195D01*
X26455031Y-96744259D01*
X26250271Y-96626041D01*
X26250261Y-96626037D01*
X26031828Y-96535559D01*
X25803435Y-96474361D01*
X25569028Y-96443500D01*
X25569021Y-96443500D01*
X25332579Y-96443500D01*
X25332571Y-96443500D01*
X25098164Y-96474361D01*
X24869771Y-96535559D01*
X24651338Y-96626037D01*
X24651328Y-96626041D01*
X24446568Y-96744259D01*
X24258987Y-96888195D01*
X24258980Y-96888201D01*
X24091801Y-97055380D01*
X24091795Y-97055387D01*
X23947859Y-97242968D01*
X23829641Y-97447728D01*
X23829637Y-97447738D01*
X23739159Y-97666171D01*
X23677961Y-97894564D01*
X23647100Y-98128971D01*
X20396700Y-98128971D01*
X20396700Y-42858571D01*
X35178700Y-42858571D01*
X35178700Y-43095028D01*
X35208396Y-43320584D01*
X35209562Y-43329439D01*
X35221338Y-43373387D01*
X35270759Y-43557828D01*
X35361237Y-43776261D01*
X35361241Y-43776271D01*
X35479459Y-43981031D01*
X35623395Y-44168612D01*
X35623401Y-44168619D01*
X35790580Y-44335798D01*
X35790587Y-44335804D01*
X35978168Y-44479740D01*
X36182928Y-44597958D01*
X36182929Y-44597958D01*
X36182932Y-44597960D01*
X36401376Y-44688442D01*
X36629761Y-44749638D01*
X36864179Y-44780500D01*
X36864186Y-44780500D01*
X37100614Y-44780500D01*
X37100621Y-44780500D01*
X37335039Y-44749638D01*
X37563424Y-44688442D01*
X37781868Y-44597960D01*
X37986632Y-44479740D01*
X38174214Y-44335803D01*
X38341403Y-44168614D01*
X38485340Y-43981032D01*
X38603560Y-43776268D01*
X38694042Y-43557824D01*
X38755238Y-43329439D01*
X38786100Y-43095021D01*
X38786100Y-42858579D01*
X38755238Y-42624161D01*
X38694042Y-42395776D01*
X38603560Y-42177332D01*
X38485340Y-41972568D01*
X38341403Y-41784986D01*
X38341398Y-41784980D01*
X38174219Y-41617801D01*
X38174212Y-41617795D01*
X37986631Y-41473859D01*
X37781871Y-41355641D01*
X37781861Y-41355637D01*
X37563428Y-41265159D01*
X37335035Y-41203961D01*
X37100628Y-41173100D01*
X37100621Y-41173100D01*
X36864179Y-41173100D01*
X36864171Y-41173100D01*
X36629764Y-41203961D01*
X36401371Y-41265159D01*
X36182938Y-41355637D01*
X36182928Y-41355641D01*
X35978168Y-41473859D01*
X35790587Y-41617795D01*
X35790580Y-41617801D01*
X35623401Y-41784980D01*
X35623395Y-41784987D01*
X35479459Y-41972568D01*
X35361241Y-42177328D01*
X35361237Y-42177338D01*
X35270759Y-42395771D01*
X35209561Y-42624164D01*
X35178700Y-42858571D01*
X20396700Y-42858571D01*
X20396700Y-28939371D01*
X95173500Y-28939371D01*
X95173500Y-29175828D01*
X95204361Y-29410235D01*
X95265559Y-29638628D01*
X95356037Y-29857061D01*
X95356041Y-29857071D01*
X95474259Y-30061831D01*
X95618195Y-30249412D01*
X95618201Y-30249419D01*
X95785380Y-30416598D01*
X95785387Y-30416604D01*
X95972968Y-30560540D01*
X96177728Y-30678758D01*
X96177729Y-30678758D01*
X96177732Y-30678760D01*
X96396176Y-30769242D01*
X96624561Y-30830438D01*
X96858979Y-30861300D01*
X96858986Y-30861300D01*
X97095414Y-30861300D01*
X97095421Y-30861300D01*
X97329839Y-30830438D01*
X97558224Y-30769242D01*
X97776668Y-30678760D01*
X97981432Y-30560540D01*
X98169014Y-30416603D01*
X98336203Y-30249414D01*
X98480140Y-30061832D01*
X98598360Y-29857068D01*
X98688842Y-29638624D01*
X98750038Y-29410239D01*
X98780900Y-29175821D01*
X98780900Y-28939379D01*
X98750038Y-28704961D01*
X98688842Y-28476576D01*
X98598360Y-28258132D01*
X98480140Y-28053368D01*
X98336203Y-27865786D01*
X98336198Y-27865780D01*
X98169019Y-27698601D01*
X98169012Y-27698595D01*
X98138547Y-27675219D01*
X98014435Y-27579984D01*
X159511201Y-27579984D01*
X159511201Y-28630002D01*
X159511202Y-28630020D01*
X159521701Y-28732797D01*
X159521702Y-28732800D01*
X159576816Y-28899120D01*
X159576887Y-28899335D01*
X159668797Y-29048346D01*
X159668990Y-29048658D01*
X159701967Y-29081635D01*
X159735452Y-29142958D01*
X159730468Y-29212650D01*
X159719586Y-29232581D01*
X159720055Y-29232837D01*
X159715803Y-29240622D01*
X159665509Y-29375468D01*
X159659102Y-29435067D01*
X159659101Y-29435086D01*
X159659101Y-30508721D01*
X159659102Y-30508727D01*
X159665509Y-30568334D01*
X159715803Y-30703179D01*
X159715807Y-30703186D01*
X159802053Y-30818395D01*
X159802056Y-30818398D01*
X159917265Y-30904644D01*
X159917272Y-30904648D01*
X159962219Y-30921412D01*
X160052118Y-30954942D01*
X160111728Y-30961351D01*
X160715473Y-30961350D01*
X160775084Y-30954942D01*
X160845981Y-30928498D01*
X160915672Y-30923514D01*
X160932648Y-30928498D01*
X161002222Y-30954447D01*
X161002229Y-30954449D01*
X161061757Y-30960850D01*
X161061774Y-30960851D01*
X161113602Y-30960851D01*
X161113602Y-30719641D01*
X161121419Y-30676310D01*
X161161692Y-30568334D01*
X161168101Y-30508724D01*
X161168100Y-30095900D01*
X161170650Y-30087214D01*
X161169362Y-30078254D01*
X161180339Y-30054217D01*
X161187784Y-30028862D01*
X161194626Y-30022933D01*
X161198387Y-30014698D01*
X161220618Y-30000411D01*
X161240588Y-29983107D01*
X161251103Y-29980819D01*
X161257165Y-29976924D01*
X161292100Y-29971901D01*
X161435103Y-29971901D01*
X161502142Y-29991586D01*
X161547897Y-30044390D01*
X161559103Y-30095901D01*
X161559103Y-30508721D01*
X161559104Y-30508727D01*
X161565511Y-30568332D01*
X161576052Y-30596594D01*
X161605784Y-30676310D01*
X161613602Y-30719641D01*
X161613602Y-30960851D01*
X161665430Y-30960851D01*
X161665446Y-30960850D01*
X161724979Y-30954448D01*
X161724981Y-30954448D01*
X161794552Y-30928499D01*
X161864244Y-30923513D01*
X161881219Y-30928497D01*
X161952120Y-30954942D01*
X162011730Y-30961351D01*
X162615475Y-30961350D01*
X162675086Y-30954942D01*
X162809934Y-30904647D01*
X162925149Y-30818397D01*
X163011399Y-30703182D01*
X163061694Y-30568334D01*
X163068103Y-30508724D01*
X163068102Y-29440384D01*
X163087786Y-29373346D01*
X163140590Y-29327591D01*
X163158030Y-29321819D01*
X163157970Y-29321637D01*
X163330820Y-29264359D01*
X163330825Y-29264357D01*
X163480046Y-29172316D01*
X163604016Y-29048346D01*
X163696057Y-28899125D01*
X163696059Y-28899120D01*
X163751206Y-28732698D01*
X163751207Y-28732691D01*
X163761700Y-28629987D01*
X163761701Y-28629974D01*
X163761701Y-28355001D01*
X162798201Y-28355001D01*
X162731162Y-28335316D01*
X162685407Y-28282512D01*
X162674201Y-28231001D01*
X162674201Y-28105001D01*
X162548201Y-28105001D01*
X162481162Y-28085316D01*
X162435407Y-28032512D01*
X162424201Y-27981001D01*
X162424201Y-27855001D01*
X162924201Y-27855001D01*
X163761700Y-27855001D01*
X163761700Y-27580029D01*
X163761699Y-27580014D01*
X163751206Y-27477303D01*
X163696059Y-27310881D01*
X163696057Y-27310876D01*
X163604016Y-27161655D01*
X163480046Y-27037685D01*
X163330825Y-26945644D01*
X163330820Y-26945642D01*
X163164398Y-26890495D01*
X163164391Y-26890494D01*
X163061687Y-26880001D01*
X162924201Y-26880001D01*
X162924201Y-27855001D01*
X162424201Y-27855001D01*
X162424201Y-26880001D01*
X162286728Y-26880001D01*
X162286713Y-26880002D01*
X162184003Y-26890495D01*
X162017581Y-26945642D01*
X162017576Y-26945644D01*
X161868355Y-27037685D01*
X161744384Y-27161656D01*
X161744380Y-27161661D01*
X161742527Y-27164666D01*
X161740719Y-27166291D01*
X161739903Y-27167324D01*
X161739726Y-27167184D01*
X161690575Y-27211386D01*
X161621612Y-27222602D01*
X161557532Y-27194753D01*
X161549836Y-27187761D01*
X161539260Y-27177310D01*
X161529413Y-27161345D01*
X161405357Y-27037289D01*
X161384620Y-27024498D01*
X161374577Y-27014574D01*
X161364217Y-26995866D01*
X161349915Y-26979966D01*
X161347627Y-26965909D01*
X161340728Y-26953451D01*
X161342126Y-26932113D01*
X161338691Y-26911004D01*
X161345098Y-26886768D01*
X161345298Y-26883731D01*
X161346238Y-26882459D01*
X161347172Y-26878924D01*
X161397624Y-26757124D01*
X161431500Y-26586820D01*
X161431500Y-26413180D01*
X161431500Y-26413177D01*
X161397625Y-26242881D01*
X161397624Y-26242880D01*
X161397624Y-26242876D01*
X161397622Y-26242871D01*
X161331178Y-26082459D01*
X161331171Y-26082446D01*
X161234706Y-25938077D01*
X161234703Y-25938073D01*
X161111926Y-25815296D01*
X161111922Y-25815293D01*
X160967553Y-25718828D01*
X160967540Y-25718821D01*
X160807128Y-25652377D01*
X160807118Y-25652374D01*
X160636822Y-25618500D01*
X160636820Y-25618500D01*
X160463180Y-25618500D01*
X160463178Y-25618500D01*
X160292881Y-25652374D01*
X160292871Y-25652377D01*
X160132459Y-25718821D01*
X160132446Y-25718828D01*
X159988077Y-25815293D01*
X159988073Y-25815296D01*
X159865296Y-25938073D01*
X159865293Y-25938077D01*
X159768828Y-26082446D01*
X159768821Y-26082459D01*
X159702377Y-26242871D01*
X159702374Y-26242881D01*
X159668500Y-26413177D01*
X159668500Y-26413180D01*
X159668500Y-26586820D01*
X159668500Y-26586822D01*
X159668499Y-26586822D01*
X159702374Y-26757118D01*
X159702376Y-26757124D01*
X159768823Y-26917543D01*
X159768826Y-26917548D01*
X159769952Y-26919233D01*
X159770270Y-26920250D01*
X159771698Y-26922921D01*
X159771191Y-26923191D01*
X159790828Y-26985911D01*
X159772342Y-27053291D01*
X159754530Y-27075802D01*
X159668990Y-27161343D01*
X159576888Y-27310664D01*
X159576886Y-27310669D01*
X159576816Y-27310881D01*
X159521702Y-27477204D01*
X159521702Y-27477205D01*
X159521701Y-27477205D01*
X159511201Y-27579984D01*
X98014435Y-27579984D01*
X97981432Y-27554660D01*
X97981427Y-27554656D01*
X97776671Y-27436441D01*
X97776661Y-27436437D01*
X97558228Y-27345959D01*
X97329835Y-27284761D01*
X97095428Y-27253900D01*
X97095421Y-27253900D01*
X96858979Y-27253900D01*
X96858971Y-27253900D01*
X96624564Y-27284761D01*
X96396171Y-27345959D01*
X96177738Y-27436437D01*
X96177728Y-27436441D01*
X95972968Y-27554659D01*
X95785387Y-27698595D01*
X95785380Y-27698601D01*
X95618201Y-27865780D01*
X95618195Y-27865787D01*
X95474259Y-28053368D01*
X95356041Y-28258128D01*
X95356037Y-28258138D01*
X95265559Y-28476571D01*
X95204361Y-28704964D01*
X95173500Y-28939371D01*
X20396700Y-28939371D01*
X20396700Y-24000500D01*
X20416385Y-23933461D01*
X20469189Y-23887706D01*
X20520700Y-23876500D01*
X171655700Y-23876500D01*
X171722739Y-23896185D01*
G37*
%TD.AperFunction*%
%TA.AperFunction,Conductor*%
G36*
X159006440Y-39115086D02*
G01*
X159052195Y-39167890D01*
X159063401Y-39219401D01*
X159063401Y-40182900D01*
X159338373Y-40182900D01*
X159338387Y-40182899D01*
X159441098Y-40172406D01*
X159607520Y-40117259D01*
X159607529Y-40117255D01*
X159639201Y-40097719D01*
X159706593Y-40079277D01*
X159773257Y-40100198D01*
X159818028Y-40153839D01*
X159828300Y-40203256D01*
X159828300Y-40543869D01*
X159828301Y-40543876D01*
X159834708Y-40603483D01*
X159885002Y-40738328D01*
X159885006Y-40738335D01*
X159969618Y-40851362D01*
X159969620Y-40851363D01*
X159971254Y-40853546D01*
X160007105Y-40880384D01*
X160086464Y-40939793D01*
X160086471Y-40939797D01*
X160095882Y-40943307D01*
X160221317Y-40990091D01*
X160280927Y-40996500D01*
X160876672Y-40996499D01*
X160936283Y-40990091D01*
X160943834Y-40988307D01*
X160944130Y-40989562D01*
X161005862Y-40985141D01*
X161019445Y-40989129D01*
X161021428Y-40989598D01*
X161080956Y-40995999D01*
X161080973Y-40996000D01*
X161128801Y-40996000D01*
X161128801Y-40958693D01*
X161148486Y-40891654D01*
X161156306Y-40880817D01*
X161166057Y-40868733D01*
X161186346Y-40853546D01*
X161272596Y-40738331D01*
X161273710Y-40735344D01*
X161282306Y-40724693D01*
X161302225Y-40710883D01*
X161319363Y-40693743D01*
X161330423Y-40691335D01*
X161339727Y-40684886D01*
X161363952Y-40684038D01*
X161387635Y-40678884D01*
X161398241Y-40682838D01*
X161409554Y-40682443D01*
X161430391Y-40694826D01*
X161453102Y-40703295D01*
X161462086Y-40713663D01*
X161469617Y-40718139D01*
X161474592Y-40728096D01*
X161478245Y-40732312D01*
X161479690Y-40731231D01*
X161551692Y-40827412D01*
X161571256Y-40853546D01*
X161579113Y-40859427D01*
X161581848Y-40863082D01*
X161586004Y-40864980D01*
X161602595Y-40890797D01*
X161620982Y-40915359D01*
X161621997Y-40920987D01*
X161623778Y-40923758D01*
X161628801Y-40958693D01*
X161628801Y-41004739D01*
X161609116Y-41071778D01*
X161592482Y-41092420D01*
X161222922Y-41461982D01*
X161161599Y-41495467D01*
X161135241Y-41498301D01*
X160196372Y-41498301D01*
X160129333Y-41478616D01*
X160083578Y-41425812D01*
X160078666Y-41413305D01*
X160059558Y-41355641D01*
X160051415Y-41331067D01*
X159959313Y-41181745D01*
X159835257Y-41057689D01*
X159814363Y-41044801D01*
X159814361Y-41044800D01*
X159685941Y-40965590D01*
X159685936Y-40965588D01*
X159685935Y-40965587D01*
X159519398Y-40910402D01*
X159519396Y-40910401D01*
X159416611Y-40899901D01*
X158616599Y-40899901D01*
X158616581Y-40899902D01*
X158513804Y-40910401D01*
X158513801Y-40910402D01*
X158347269Y-40965586D01*
X158347264Y-40965588D01*
X158197943Y-41057690D01*
X158104282Y-41151352D01*
X158042959Y-41184837D01*
X157973267Y-41179853D01*
X157928920Y-41151352D01*
X157835258Y-41057690D01*
X157835257Y-41057689D01*
X157685935Y-40965587D01*
X157685933Y-40965586D01*
X157679788Y-40961796D01*
X157681155Y-40959578D01*
X157637842Y-40921425D01*
X157618701Y-40855238D01*
X157618701Y-40073224D01*
X157638386Y-40006185D01*
X157691190Y-39960430D01*
X157760348Y-39950486D01*
X157823904Y-39979511D01*
X157830382Y-39985543D01*
X157870055Y-40025216D01*
X158019276Y-40117257D01*
X158019281Y-40117259D01*
X158185703Y-40172406D01*
X158185710Y-40172407D01*
X158288420Y-40182900D01*
X158563400Y-40182900D01*
X158563401Y-40182899D01*
X158563401Y-39219401D01*
X158583086Y-39152362D01*
X158635890Y-39106607D01*
X158687401Y-39095401D01*
X158939401Y-39095401D01*
X159006440Y-39115086D01*
G37*
%TD.AperFunction*%
%TA.AperFunction,Conductor*%
G36*
X164086440Y-39089686D02*
G01*
X164132195Y-39142490D01*
X164143401Y-39194001D01*
X164143401Y-40157500D01*
X164198101Y-40157500D01*
X164265140Y-40177185D01*
X164310895Y-40229989D01*
X164322101Y-40281500D01*
X164322101Y-40597640D01*
X164302416Y-40664679D01*
X164285782Y-40685321D01*
X164107521Y-40863582D01*
X164046198Y-40897067D01*
X164019840Y-40899901D01*
X163460702Y-40899901D01*
X163393663Y-40880216D01*
X163347908Y-40827412D01*
X163336702Y-40775901D01*
X163336702Y-40281500D01*
X163356387Y-40214461D01*
X163409191Y-40168706D01*
X163460702Y-40157500D01*
X163643400Y-40157500D01*
X163643401Y-40157499D01*
X163643401Y-39194001D01*
X163663086Y-39126962D01*
X163715890Y-39081207D01*
X163767401Y-39070001D01*
X164019401Y-39070001D01*
X164086440Y-39089686D01*
G37*
%TD.AperFunction*%
%TA.AperFunction,Conductor*%
G36*
X161391983Y-37615210D02*
G01*
X161425468Y-37676533D01*
X161428302Y-37702892D01*
X161428302Y-37839757D01*
X161428303Y-37972000D01*
X161408619Y-38039039D01*
X161355815Y-38084794D01*
X161304303Y-38096000D01*
X160828800Y-38096000D01*
X160828800Y-39196002D01*
X161304302Y-39196002D01*
X161371341Y-39215687D01*
X161417096Y-39268491D01*
X161428302Y-39320002D01*
X161428302Y-39589109D01*
X161408617Y-39656148D01*
X161355813Y-39701903D01*
X161286655Y-39711847D01*
X161223099Y-39682822D01*
X161205036Y-39663420D01*
X161186347Y-39638455D01*
X161186344Y-39638452D01*
X161071135Y-39552206D01*
X161071128Y-39552202D01*
X160936282Y-39501908D01*
X160936283Y-39501908D01*
X160876683Y-39495501D01*
X160876681Y-39495500D01*
X160876673Y-39495500D01*
X160876665Y-39495500D01*
X160452800Y-39495500D01*
X160385761Y-39475815D01*
X160340006Y-39423011D01*
X160328800Y-39371500D01*
X160328800Y-37920501D01*
X160348485Y-37853462D01*
X160401289Y-37807707D01*
X160452796Y-37796501D01*
X160876672Y-37796501D01*
X160936283Y-37790093D01*
X161071131Y-37739798D01*
X161186346Y-37653548D01*
X161205037Y-37628579D01*
X161260968Y-37586710D01*
X161330659Y-37581726D01*
X161391983Y-37615210D01*
G37*
%TD.AperFunction*%
%TD*%
M02*
