M48
; DRILL file {KiCad 9.0.6} date 2025-12-17T16:52:15-0500
; FORMAT={-:-/ absolute / metric / decimal}
; #@! TF.CreationDate,2025-12-17T16:52:15-05:00
; #@! TF.GenerationSoftware,Kicad,Pcbnew,9.0.6
; #@! TF.FileFunction,Plated,1,2,PTH
FMAT,2
METRIC
; #@! TA.AperFunction,Plated,PTH,ViaDrill
T1C0.330
; #@! TA.AperFunction,Plated,PTH,ComponentDrill
T2C0.800
; #@! TA.AperFunction,Plated,PTH,ComponentDrill
T3C0.900
; #@! TA.AperFunction,Plated,PTH,ComponentDrill
T4C1.000
; #@! TA.AperFunction,Plated,PTH,ComponentDrill
T5C2.700
%
G90
G05
T1
X21.25Y-149.55
X22.232Y-143.048
X22.4Y-131.4
X22.5Y-150.55
X23.645Y-151.791
X24.057Y-147.248
X24.733Y-153.25
X25.413Y-164.093
X25.42Y-151.791
X25.435Y-160.016
X26.75Y-149.864
X26.9Y-156.05
X27.189Y-145.291
X27.3Y-146.25
X27.42Y-151.791
X27.65Y-148.492
X28.05Y-149.864
X28.55Y-167.95
X28.864Y-152.514
X28.864Y-154.35
X29.541Y-139.18
X29.55Y-150.436
X30.4Y-138.239
X30.5Y-142.036
X30.7Y-143.8
X31.195Y-151.766
X31.2Y-137.699
X31.4Y-153.2
X32.0Y-138.239
X32.4Y-164.216
X32.535Y-160.016
X32.569Y-133.292
X32.569Y-135.367
X32.8Y-148.461
X32.945Y-151.791
X33.638Y-146.51
X34.05Y-156.05
X34.15Y-140.55
X34.587Y-146.334
X34.945Y-151.791
X35.1Y-141.35
X35.3Y-143.0
X35.7Y-167.9
X36.627Y-147.577
X36.65Y-150.064
X37.511Y-143.75
X37.8Y-135.35
X37.966Y-150.581
X38.4Y-153.486
X38.67Y-151.791
X39.4Y-164.241
X39.66Y-160.35
X40.395Y-151.791
X40.5Y-143.3
X40.55Y-140.15
X40.55Y-149.3
X41.1Y-156.0
X42.395Y-151.791
X43.3Y-166.75
X43.45Y-141.35
X66.0Y-167.35
X69.375Y-167.35
X70.6Y-167.4
X94.85Y-172.45
X138.592Y-173.864
X140.65Y-170.65
X140.7Y-166.5
X142.05Y-174.55
X145.45Y-158.7
X154.0Y-164.15
X154.123Y-156.899
X155.2Y-164.149
X155.393Y-156.899
X155.75Y-147.7
X155.85Y-39.15
X156.45Y-163.05
X156.5Y-161.75
X156.563Y-164.2
X156.563Y-165.45
X156.65Y-166.6
X157.023Y-155.016
X157.85Y-164.149
X158.414Y-49.162
X158.813Y-39.095
X159.017Y-42.1
X159.05Y-164.15
X159.203Y-174.399
X160.172Y-154.965
X160.414Y-32.702
X160.473Y-174.399
X160.55Y-26.5
X160.7Y-143.45
X160.8Y-149.8
X161.45Y-49.162
X161.743Y-156.899
X162.821Y-148.057
X163.35Y-158.807
X163.85Y-40.6
X164.3Y-173.2
X164.34Y-158.807
X164.452Y-49.212
X165.459Y-45.268
X166.8Y-40.6
X167.55Y-132.35
X167.65Y-128.15
X168.895Y-73.1
X170.256Y-119.314
X170.256Y-124.323
X171.0Y-125.081
X171.0Y-141.268
T2
X58.1Y-161.35
X58.1Y-164.85
T3
X165.176Y-116.637
X165.43Y-86.081
X167.716Y-116.637
X167.97Y-86.081
T4
X23.49Y-127.55
X26.03Y-127.55
X28.57Y-127.55
X31.11Y-127.55
X33.65Y-127.55
X129.845Y-164.303
X129.845Y-166.843
X129.845Y-169.383
X129.845Y-171.923
T5
X48.9Y-160.5
X48.9Y-165.5
M30
