%TF.GenerationSoftware,KiCad,Pcbnew,9.0.6*%
%TF.CreationDate,2025-12-17T16:52:13-05:00*%
%TF.ProjectId,HMS,484d532e-6b69-4636-9164-5f7063625858,rev?*%
%TF.SameCoordinates,Original*%
%TF.FileFunction,Paste,Top*%
%TF.FilePolarity,Positive*%
%FSLAX46Y46*%
G04 Gerber Fmt 4.6, Leading zero omitted, Abs format (unit mm)*
G04 Created by KiCad (PCBNEW 9.0.6) date 2025-12-17 16:52:13*
%MOMM*%
%LPD*%
G01*
G04 APERTURE LIST*
G04 Aperture macros list*
%AMRoundRect*
0 Rectangle with rounded corners*
0 $1 Rounding radius*
0 $2 $3 $4 $5 $6 $7 $8 $9 X,Y pos of 4 corners*
0 Add a 4 corners polygon primitive as box body*
4,1,4,$2,$3,$4,$5,$6,$7,$8,$9,$2,$3,0*
0 Add four circle primitives for the rounded corners*
1,1,$1+$1,$2,$3*
1,1,$1+$1,$4,$5*
1,1,$1+$1,$6,$7*
1,1,$1+$1,$8,$9*
0 Add four rect primitives between the rounded corners*
20,1,$1+$1,$2,$3,$4,$5,0*
20,1,$1+$1,$4,$5,$6,$7,0*
20,1,$1+$1,$6,$7,$8,$9,0*
20,1,$1+$1,$8,$9,$2,$3,0*%
G04 Aperture macros list end*
%ADD10RoundRect,0.250000X0.350000X0.450000X-0.350000X0.450000X-0.350000X-0.450000X0.350000X-0.450000X0*%
%ADD11RoundRect,0.250000X-0.337500X-0.475000X0.337500X-0.475000X0.337500X0.475000X-0.337500X0.475000X0*%
%ADD12RoundRect,0.250000X0.337500X0.475000X-0.337500X0.475000X-0.337500X-0.475000X0.337500X-0.475000X0*%
%ADD13RoundRect,0.250000X0.475000X-0.337500X0.475000X0.337500X-0.475000X0.337500X-0.475000X-0.337500X0*%
%ADD14R,0.650000X1.050000*%
%ADD15R,0.558800X1.981200*%
%ADD16RoundRect,0.250000X-0.350000X-0.450000X0.350000X-0.450000X0.350000X0.450000X-0.350000X0.450000X0*%
%ADD17RoundRect,0.250000X0.450000X-0.350000X0.450000X0.350000X-0.450000X0.350000X-0.450000X-0.350000X0*%
%ADD18RoundRect,0.250000X-0.450000X0.350000X-0.450000X-0.350000X0.450000X-0.350000X0.450000X0.350000X0*%
%ADD19RoundRect,0.250000X-0.475000X0.337500X-0.475000X-0.337500X0.475000X-0.337500X0.475000X0.337500X0*%
%ADD20R,1.050000X0.600000*%
%ADD21R,1.050000X0.650000*%
%ADD22R,1.200000X1.400000*%
%ADD23R,0.609600X0.254000*%
%ADD24RoundRect,0.068750X-0.666250X-0.206250X0.666250X-0.206250X0.666250X0.206250X-0.666250X0.206250X0*%
%ADD25RoundRect,0.068750X-0.206250X-0.666250X0.206250X-0.666250X0.206250X0.666250X-0.206250X0.666250X0*%
%ADD26R,0.900000X0.900000*%
%ADD27R,0.900000X1.500000*%
%ADD28R,1.500000X0.900000*%
%ADD29RoundRect,0.250000X0.325000X0.450000X-0.325000X0.450000X-0.325000X-0.450000X0.325000X-0.450000X0*%
G04 APERTURE END LIST*
D10*
%TO.C,R14*%
X73635400Y-167340900D03*
X71635400Y-167340900D03*
%TD*%
D11*
%TO.C,C5*%
X162821800Y-151485600D03*
X164896800Y-151485600D03*
%TD*%
D12*
%TO.C,C30*%
X25435000Y-160016400D03*
X23360000Y-160016400D03*
%TD*%
%TO.C,C7*%
X141662400Y-172872400D03*
X139587400Y-172872400D03*
%TD*%
D10*
%TO.C,R5*%
X164820600Y-148056600D03*
X162820600Y-148056600D03*
%TD*%
D13*
%TO.C,C27*%
X40550000Y-148225000D03*
X40550000Y-146150000D03*
%TD*%
D10*
%TO.C,R25*%
X32460000Y-156066400D03*
X30460000Y-156066400D03*
%TD*%
D14*
%TO.C,SW5*%
X168895400Y-75283100D03*
X168895400Y-71133100D03*
X171045400Y-75283100D03*
X171045400Y-71133100D03*
%TD*%
D15*
%TO.C,U8*%
X23120000Y-167241400D03*
X24390000Y-167241400D03*
X25660000Y-167241400D03*
X26930000Y-167241400D03*
X26930000Y-162313800D03*
X25660000Y-162313800D03*
X24390000Y-162313800D03*
X23120000Y-162313800D03*
%TD*%
D16*
%TO.C,R24*%
X23410000Y-158041400D03*
X25410000Y-158041400D03*
%TD*%
D14*
%TO.C,SW1*%
X139576400Y-170653400D03*
X139576400Y-166503400D03*
X141726400Y-170653400D03*
X141726400Y-166503400D03*
%TD*%
D13*
%TO.C,C20*%
X40500000Y-143300000D03*
X40500000Y-141225000D03*
%TD*%
D10*
%TO.C,R23*%
X25435000Y-156116400D03*
X23435000Y-156116400D03*
%TD*%
D11*
%TO.C,C11*%
X162821800Y-154914600D03*
X164896800Y-154914600D03*
%TD*%
D17*
%TO.C,R6*%
X160733600Y-147551600D03*
X160733600Y-145551600D03*
%TD*%
%TO.C,R8*%
X162458400Y-87166200D03*
X162458400Y-85166200D03*
%TD*%
D12*
%TO.C,C26*%
X24500000Y-134800000D03*
X22425000Y-134800000D03*
%TD*%
D18*
%TO.C,R10*%
X160172400Y-152965400D03*
X160172400Y-154965400D03*
%TD*%
D17*
%TO.C,R9*%
X162234800Y-117678200D03*
X162234800Y-115678200D03*
%TD*%
D14*
%TO.C,SW6*%
X168812800Y-132331500D03*
X168812800Y-128181500D03*
X170962800Y-132331500D03*
X170962800Y-128181500D03*
%TD*%
D19*
%TO.C,C28*%
X36539800Y-133305600D03*
X36539800Y-135380600D03*
%TD*%
D16*
%TO.C,R27*%
X30460000Y-158066400D03*
X32460000Y-158066400D03*
%TD*%
D20*
%TO.C,D5*%
X26285000Y-171566400D03*
X23485000Y-171566400D03*
%TD*%
D16*
%TO.C,R15*%
X168910000Y-69291200D03*
X170910000Y-69291200D03*
%TD*%
D18*
%TO.C,R11*%
X157022800Y-153016200D03*
X157022800Y-155016200D03*
%TD*%
D12*
%TO.C,C22*%
X39660000Y-160241400D03*
X37585000Y-160241400D03*
%TD*%
%TO.C,C9*%
X73600000Y-171950000D03*
X71525000Y-171950000D03*
%TD*%
D15*
%TO.C,U5*%
X37305000Y-167480200D03*
X38575000Y-167480200D03*
X39845000Y-167480200D03*
X41115000Y-167480200D03*
X41115000Y-162552600D03*
X39845000Y-162552600D03*
X38575000Y-162552600D03*
X37305000Y-162552600D03*
%TD*%
%TO.C,U7*%
X30215000Y-167194000D03*
X31485000Y-167194000D03*
X32755000Y-167194000D03*
X34025000Y-167194000D03*
X34025000Y-162266400D03*
X32755000Y-162266400D03*
X31485000Y-162266400D03*
X30215000Y-162266400D03*
%TD*%
D19*
%TO.C,C19*%
X32568800Y-133292200D03*
X32568800Y-135367200D03*
%TD*%
D21*
%TO.C,SW2*%
X158800000Y-147650000D03*
X154650000Y-147650000D03*
X158800000Y-145500000D03*
X154650000Y-145500000D03*
%TD*%
D11*
%TO.C,C21*%
X37585000Y-169791400D03*
X39660000Y-169791400D03*
%TD*%
D19*
%TO.C,C8*%
X152829400Y-145525400D03*
X152829400Y-147600400D03*
%TD*%
D11*
%TO.C,C4*%
X162847200Y-144729200D03*
X164922200Y-144729200D03*
%TD*%
D16*
%TO.C,R30*%
X37610000Y-158291400D03*
X39610000Y-158291400D03*
%TD*%
D22*
%TO.C,Y1*%
X22231700Y-143048200D03*
X22231700Y-145248200D03*
X23931700Y-145248200D03*
X23931700Y-143048200D03*
%TD*%
D11*
%TO.C,C29*%
X23410000Y-169566400D03*
X25485000Y-169566400D03*
%TD*%
D12*
%TO.C,C18*%
X170850000Y-134550000D03*
X168775000Y-134550000D03*
%TD*%
D11*
%TO.C,C10*%
X67300000Y-169500000D03*
X69375000Y-169500000D03*
%TD*%
D20*
%TO.C,D3*%
X40435000Y-171741400D03*
X37635000Y-171741400D03*
%TD*%
%TO.C,D4*%
X33335000Y-171391400D03*
X30535000Y-171391400D03*
%TD*%
D11*
%TO.C,C14*%
X22050000Y-141050000D03*
X24125000Y-141050000D03*
%TD*%
D12*
%TO.C,C17*%
X170942000Y-77393800D03*
X168867000Y-77393800D03*
%TD*%
D23*
%TO.C,U6*%
X71849700Y-169025301D03*
X71849700Y-169525300D03*
X71849700Y-170025299D03*
X73551500Y-170025299D03*
X73551500Y-169525300D03*
X73551500Y-169025301D03*
%TD*%
D12*
%TO.C,C24*%
X32535000Y-160016400D03*
X30460000Y-160016400D03*
%TD*%
%TO.C,C13*%
X24056600Y-147247600D03*
X21981600Y-147247600D03*
%TD*%
D17*
%TO.C,R21*%
X34550000Y-135300000D03*
X34550000Y-133300000D03*
%TD*%
D24*
%TO.C,U4*%
X28230000Y-140550000D03*
X28230000Y-141350000D03*
X28230000Y-142150000D03*
X28230000Y-142950000D03*
X28230000Y-143750000D03*
X28230000Y-144550000D03*
X28230000Y-145350000D03*
X28230000Y-146150000D03*
D25*
X29600000Y-147520000D03*
X30400000Y-147520000D03*
X31200000Y-147520000D03*
X32000000Y-147520000D03*
X32800000Y-147520000D03*
X33600000Y-147520000D03*
X34400000Y-147520000D03*
X35200000Y-147520000D03*
D24*
X36570000Y-146150000D03*
X36570000Y-145350000D03*
X36570000Y-144550000D03*
X36570000Y-143750000D03*
X36570000Y-142950000D03*
X36570000Y-142150000D03*
X36570000Y-141350000D03*
X36570000Y-140550000D03*
D25*
X35200000Y-139180000D03*
X34400000Y-139180000D03*
X33600000Y-139180000D03*
X32800000Y-139180000D03*
X32000000Y-139180000D03*
X31200000Y-139180000D03*
X30400000Y-139180000D03*
X29600000Y-139180000D03*
%TD*%
D16*
%TO.C,R16*%
X168859200Y-126365000D03*
X170859200Y-126365000D03*
%TD*%
D10*
%TO.C,R28*%
X39585000Y-156341400D03*
X37585000Y-156341400D03*
%TD*%
D26*
%TO.C,U3*%
X157962600Y-162749000D03*
X156562600Y-162749000D03*
X155162600Y-162749000D03*
X157962600Y-164149000D03*
X156562600Y-164149000D03*
X155162600Y-164149000D03*
X157962600Y-165549000D03*
X156562600Y-165549000D03*
X155162600Y-165549000D03*
D27*
X164282600Y-156899000D03*
X163012600Y-156899000D03*
X161742600Y-156899000D03*
X160472600Y-156899000D03*
X159202600Y-156899000D03*
X157932600Y-156899000D03*
X156662600Y-156899000D03*
X155392600Y-156899000D03*
X154122600Y-156899000D03*
X152852600Y-156899000D03*
X151582600Y-156899000D03*
X150312600Y-156899000D03*
X149042600Y-156899000D03*
X147772600Y-156899000D03*
D28*
X146522600Y-158664000D03*
X146522600Y-159934000D03*
X146522600Y-161204000D03*
X146522600Y-162474000D03*
X146522600Y-163744000D03*
X146522600Y-165014000D03*
X146522600Y-166284000D03*
X146522600Y-167554000D03*
X146522600Y-168824000D03*
X146522600Y-170094000D03*
X146522600Y-171364000D03*
X146522600Y-172634000D03*
D27*
X147772600Y-174399000D03*
X149042600Y-174399000D03*
X150312600Y-174399000D03*
X151582600Y-174399000D03*
X152852600Y-174399000D03*
X154122600Y-174399000D03*
X155392600Y-174399000D03*
X156662600Y-174399000D03*
X157932600Y-174399000D03*
X159202600Y-174399000D03*
X160472600Y-174399000D03*
X161742600Y-174399000D03*
X163012600Y-174399000D03*
X164282600Y-174399000D03*
%TD*%
D12*
%TO.C,C25*%
X24500000Y-132800000D03*
X22425000Y-132800000D03*
%TD*%
D11*
%TO.C,C23*%
X30485000Y-169466400D03*
X32560000Y-169466400D03*
%TD*%
D12*
%TO.C,C6*%
X69375000Y-167350000D03*
X67300000Y-167350000D03*
%TD*%
D16*
%TO.C,R13*%
X71600000Y-165300000D03*
X73600000Y-165300000D03*
%TD*%
D29*
%TO.C,L1*%
X69400000Y-171650000D03*
X67350000Y-171650000D03*
%TD*%
D16*
%TO.C,R7*%
X139630400Y-164642800D03*
X141630400Y-164642800D03*
%TD*%
M02*
